<?xml version="1.0" encoding="utf-8"?>
<!-- Generator: Adobe Illustrator 21.0.0, SVG Export Plug-In . SVG Version: 6.00 Build 0)  -->
<svg version="1.1" id="Layer_1" xmlns="http://www.w3.org/2000/svg" xmlns:xlink="http://www.w3.org/1999/xlink" x="0px" y="0px"
	 viewBox="0 0 36.5 46.6" style="enable-background:new 0 0 36.5 46.6;" xml:space="preserve">
<style type="text/css">
	.st0{fill:none;}
	.st1{fill:#FFFFFF;}
	.st2{fill:#652D89;}
</style>
<g id="Layer_2">
	<path class="st0" d="M8.6,17.5c0.4,0.1,0.8,0.2,1.2,0.2c0,0,0,0.1,0,0.2l0,0.6c0,0.2,0.2,0.4,0.4,0.4l0.6,0c0.2,0,0.4-0.2,0.4-0.4
		l0-0.6c0-0.1,0-0.1,0-0.2c0.4-0.1,0.8-0.2,1.2-0.3c0,0,0,0.1,0,0.1l0.3,0.5c0.1,0.2,0.4,0.2,0.5,0.2l0.6-0.3
		c0.2-0.1,0.3-0.3,0.2-0.5l-0.3-0.5c0,0-0.1-0.1-0.1-0.1c0.3-0.2,0.6-0.5,0.9-0.7c0,0,0.1,0.1,0.1,0.1l0.5,0.3
		c0.2,0.1,0.4,0.1,0.5-0.1l0.4-0.5c0.1-0.2,0.1-0.4-0.1-0.5l-0.5-0.3c0,0-0.1,0-0.1-0.1c0.2-0.3,0.4-0.7,0.5-1c0,0,0.1,0,0.1,0
		l0.6,0.1c0.2,0,0.4-0.1,0.5-0.3l0.1-0.6c0-0.2-0.1-0.4-0.3-0.4l-0.6-0.1c0,0-0.1,0-0.1,0c0-0.4,0-0.8-0.1-1.1c0,0,0.1,0,0.1,0
		l0.6-0.2c0.2-0.1,0.3-0.3,0.3-0.5l-0.2-0.5c-0.1-0.2-0.3-0.3-0.5-0.3l-0.6,0.2c0,0-0.1,0-0.1,0.1c-0.1-0.3-0.4-0.7-0.6-1
		c0,0,0.1,0,0.1-0.1l0.5-0.4c0.1-0.1,0.2-0.4,0-0.5L15.2,8c-0.1-0.1-0.4-0.2-0.6,0l-0.5,0.4c0,0-0.1,0.1-0.1,0.1
		c-0.3-0.2-0.6-0.4-0.9-0.6c0,0-0.1,0-0.1,0c0,0,0-0.1,0.1-0.1l0.3-0.5c0.1-0.2,0-0.4-0.2-0.5l-0.6-0.2c-0.2-0.1-0.4,0-0.5,0.2
		l-0.3,0.5c0,0,0,0.1,0,0.1c-0.3-0.1-0.5-0.1-0.8-0.1c0,0,0-0.1,0-0.1V6.5c0-0.2-0.2-0.4-0.4-0.4H10c-0.2,0-0.4,0.2-0.4,0.4V7
		c0,0,0,0.1,0,0.1c-0.4,0-0.8,0.1-1.2,0.3c0,0,0-0.1,0-0.1L8.1,6.8C8,6.6,7.8,6.5,7.5,6.6L7,6.9C6.8,7,6.7,7.2,6.8,7.4l0.3,0.5
		c0,0,0,0.1,0.1,0.1C6.8,8.2,6.5,8.5,6.2,8.7c0,0-0.1-0.1-0.1-0.1L5.6,8.3C5.4,8.1,5.2,8.2,5.1,8.3L4.7,8.8C4.5,9,4.6,9.2,4.7,9.3
		l0.5,0.4c0,0,0.1,0.1,0.1,0.1c0,0,0,0,0,0.1c-0.2,0.3-0.4,0.6-0.5,1c0,0-0.1,0-0.1-0.1l-0.6-0.1c-0.2,0-0.4,0.1-0.5,0.3l-0.2,0.6
		c0,0.2,0.1,0.4,0.3,0.4L4.4,12c0.1,0,0.1,0,0.2,0c0,0.4,0,0.8,0,1.1c-0.1,0-0.1,0-0.2,0l-0.6,0.1c-0.2,0-0.4,0.2-0.3,0.4l0.1,0.6
		c0,0.2,0.3,0.3,0.5,0.3l0.6-0.1c0.1,0,0.1,0,0.1-0.1c0.1,0.4,0.3,0.7,0.6,1c-0.1,0-0.1,0-0.2,0.1l-0.5,0.4c-0.2,0.1-0.2,0.4,0,0.5
		l0.4,0.5c0.1,0.2,0.4,0.2,0.6,0l0.5-0.4c0,0,0.1-0.1,0.1-0.1c0.3,0.3,0.6,0.5,1,0.7c0,0-0.1,0.1-0.1,0.1L7,17.7
		c-0.1,0.2,0,0.4,0.2,0.5l0.6,0.2c0.2,0.1,0.4,0,0.5-0.2l0.3-0.5C8.6,17.6,8.6,17.5,8.6,17.5z M13.1,10.3c0.5,0.6,0.8,1.3,0.8,2.1
		c0,0.8-0.3,1.5-0.8,2.1l-1.3-1.2c0.3-0.3,0.3-0.7,0.3-1.1c0-0.2-0.1-0.4-0.3-0.6L13.1,10.3z M10.3,9.1c0.9,0,1.7,0.3,2.3,0.8
		l-1.3,1.2c-0.4-0.2-0.8-0.3-1.2-0.2c-0.3,0-0.5,0.1-0.7,0.2L8,9.8C8.7,9.4,9.5,9.1,10.3,9.1z M11.1,13c-0.1,0.2-0.4,0.3-0.7,0.4
		c-0.6,0.1-1.1-0.3-1.2-0.8c-0.1-0.5,0.3-1,0.9-1.1c0.1,0,0.1,0,0.1,0c0.5,0,0.9,0.3,1,0.8C11.4,12.5,11.3,12.8,11.1,13z M7.5,14.6
		C7,14,6.7,13.3,6.7,12.4c0-0.8,0.3-1.5,0.8-2.1l1.3,1.2c-0.2,0.3-0.3,0.7-0.3,1.1c0,0.2,0.1,0.4,0.3,0.6L7.5,14.6z M8,15l1.3-1.2
		c0.3,0.2,0.6,0.3,0.9,0.3c0.1,0,0.2,0,0.3,0c0.3,0,0.5-0.1,0.7-0.2l1.3,1.2c-0.6,0.5-1.4,0.8-2.3,0.8C9.5,15.8,8.7,15.5,8,15z"/>
	<path class="st0" d="M18.3,9.7c1-2.8,3.3-5.1,6.2-6.7c0.1-0.1,0.3-0.2,0.5-0.3c-1.9-1.2-4.2-1.8-6.7-1.8c-2.4,0-4.7,0.7-6.6,1.9
		C11.8,2.9,12,3,12.1,3C15,4.7,17.3,7,18.3,9.7z"/>
	<path class="st0" d="M18.3,21.6c0,0,0.6-0.4,1.3-1.1c-0.1-0.1-0.3-0.1-0.4-0.2l0,0c-0.6-0.2-1.2-0.2-1.8,0l0,0
		c-0.1,0-0.3,0.1-0.4,0.2C17.7,21.2,18.3,21.6,18.3,21.6z"/>
	<path class="st0" d="M17.6,18.1c0.5-0.1,0.9-0.1,1.4,0l0.5-0.8c0.3,0.1,0.6,0.1,0.9,0.3l0,0l0,0c0.1,0,0.1,0,0.2,0.1L18.3,15
		L16,17.6c0.3-0.1,0.6-0.2,1-0.3L17.6,18.1z"/>
	<path class="st0" d="M32.8,12.8l-0.6-0.1c0,0-0.1,0-0.1,0c0-0.4,0-0.8-0.1-1.1c0,0,0.1,0,0.1,0l0.6-0.2c0.2-0.1,0.3-0.3,0.3-0.4
		l-0.2-0.6c-0.1-0.2-0.3-0.3-0.5-0.3l-0.6,0.2c0,0-0.1,0-0.1,0.1c-0.1-0.3-0.4-0.7-0.6-1c0,0,0.1,0,0.1-0.1l0.5-0.4
		c0.1-0.1,0.2-0.4,0-0.5L31.2,8c-0.1-0.1-0.4-0.2-0.6,0l-0.5,0.4c0,0,0,0.1-0.1,0.1c-0.3-0.2-0.6-0.4-0.9-0.6c0,0-0.1,0-0.1,0
		c0,0,0-0.1,0.1-0.1l0.3-0.5c0.1-0.2,0-0.4-0.2-0.5l-0.6-0.2c-0.2-0.1-0.4,0-0.5,0.2l-0.3,0.5c0,0,0,0.1,0,0.1
		c-0.3-0.1-0.5-0.1-0.8-0.1c0,0,0-0.1,0-0.1V6.5c0-0.2-0.2-0.4-0.4-0.4h-0.6c-0.2,0-0.4,0.2-0.4,0.4V7c0,0,0,0.1,0,0.1
		c-0.4,0-0.8,0.1-1.2,0.3c0,0,0-0.1,0-0.1l-0.3-0.5c-0.1-0.2-0.3-0.3-0.5-0.2l-0.6,0.2c-0.2,0.1-0.3,0.3-0.2,0.5L23,7.9
		c0,0,0,0.1,0.1,0.1c-0.3,0.2-0.6,0.4-0.9,0.7c0,0-0.1-0.1-0.1-0.1l-0.5-0.4c-0.2-0.1-0.4-0.1-0.5,0.1l-0.4,0.5
		c-0.1,0.2-0.1,0.4,0.1,0.5l0.5,0.4c0,0,0.1,0.1,0.1,0.1c0,0,0,0,0,0.1c-0.2,0.3-0.4,0.6-0.5,1c0,0-0.1,0-0.1-0.1L20,10.5
		c-0.2,0-0.4,0.1-0.5,0.3l-0.1,0.6c0,0.2,0.1,0.4,0.3,0.4l0.6,0.1c0.1,0,0.1,0,0.2,0c0,0.4,0,0.8,0,1.1c-0.1,0-0.1,0-0.2,0l-0.6,0.1
		c-0.2,0-0.4,0.2-0.3,0.4l0.1,0.6c0,0.2,0.3,0.3,0.5,0.3l0.6-0.1c0.1,0,0.1,0,0.1-0.1c0.1,0.4,0.3,0.7,0.6,1c-0.1,0-0.1,0-0.2,0.1
		l-0.5,0.4c-0.2,0.1-0.2,0.4,0,0.5l0.4,0.5c0.1,0.2,0.4,0.2,0.6,0l0.4-0.3c0,0,0.1-0.1,0.1-0.1c0.3,0.3,0.6,0.5,1,0.7
		c0,0-0.1,0.1-0.1,0.1l-0.3,0.5c-0.1,0.2,0,0.4,0.2,0.5l0.6,0.2c0.2,0.1,0.4,0,0.5-0.2l0.3-0.5c0-0.1,0-0.1,0-0.2
		c0.4,0.1,0.8,0.2,1.2,0.2c0,0,0,0.1,0,0.2l0,0.6c0,0.2,0.2,0.4,0.4,0.4l0.6,0c0.2,0,0.4-0.2,0.4-0.4l0-0.6c0-0.1,0-0.1,0-0.2
		c0.4-0.1,0.8-0.2,1.2-0.3c0,0,0,0.1,0,0.1l0.3,0.5c0.1,0.2,0.4,0.2,0.5,0.2l0.6-0.3c0.2-0.1,0.3-0.3,0.2-0.5l-0.3-0.5
		c0,0-0.1-0.1-0.1-0.1c0.3-0.2,0.6-0.5,0.9-0.7c0,0,0.1,0.1,0.1,0.1l0.5,0.3c0.2,0.1,0.4,0.1,0.5-0.1L32,16c0.1-0.2,0.1-0.4-0.1-0.5
		l-0.5-0.3c0,0-0.1,0-0.1-0.1c0.2-0.3,0.4-0.7,0.5-1c0,0,0.1,0,0.1,0l0.6,0.1c0.2,0,0.4-0.1,0.5-0.3l0.1-0.6
		C33.1,13.1,33,12.8,32.8,12.8z M26.2,9.1c1.1,0,2.1,0.5,2.7,1.2h-5.5C24.1,9.6,25.2,9.1,26.2,9.1z M26.2,15.8
		c-1.1,0-2.1-0.5-2.7-1.2H29C28.3,15.3,27.3,15.8,26.2,15.8z M29.4,14H23c-0.2-0.4-0.3-0.7-0.4-1.2h7.2C29.8,13.2,29.7,13.6,29.4,14
		z M22.6,12.1c0-0.4,0.2-0.8,0.4-1.2h6.4c0.2,0.4,0.3,0.7,0.4,1.2H22.6z"/>
	<path class="st0" d="M15.9,41.6L15.9,41.6L15.9,41.6z"/>
	<path class="st0" d="M20.3,23.7C20.3,23.8,20.3,23.7,20.3,23.7L20.3,23.7z"/>
	<path class="st0" d="M18.3,23.1c-0.8,0-1.5,0.1-2.2,0.2l0,0l0,0c0.3,0.6,0.8,1,1.4,1.3l0,0c0.6,0.2,1.2,0.2,1.8,0l0,0
		c0.5-0.2,0.9-0.5,1.1-0.9c0.1-0.1,0.2-0.3,0.3-0.4l0,0l0,0l0,0C19.8,23.1,19.1,23.1,18.3,23.1z"/>
	<path class="st0" d="M23.6,24.5L23.6,24.5L23.6,24.5L23.6,24.5c-0.1,0.1-0.1,0.3-0.2,0.4c0,0,0,0,0,0.1c0,0.1-0.1,0.2-0.2,0.3
		c0,0-0.1,0.1-0.1,0.1l0,0l0,0l-1-0.2c-0.3,0.4-0.6,0.7-1,0.9l0.3,0.9l0,0l0,0c-0.6,0.3-1.2,0.6-1.8,0.7L19,26.9
		c-0.5,0.1-0.9,0.1-1.4,0l-0.5,0.8c-0.3-0.1-0.6-0.1-0.9-0.3l0,0l0,0c-0.1-0.1-0.3-0.1-0.4-0.2c0,0,0,0-0.1,0
		c-0.1,0-0.2-0.1-0.3-0.2c0,0-0.1-0.1-0.1-0.1l0,0l0,0l0.2-0.9c-0.4-0.3-0.7-0.6-1-0.9l-1,0.2l0,0l0,0c-0.2-0.3-0.4-0.6-0.5-0.9
		c-2.7,1.5-4.4,4.2-4.4,6.7c0,4.3,3.6,8.5,6.4,11.2l0.1,0.1c0.1-0.2,0-0.1,0,0l0,0c0.2-0.3,0.5-0.5,0.8-0.7c-0.3,0.2,0,0,0,0
		l-0.4-1.5l1.3-0.5l0.9,1.3c0.4-0.1,0.8,0,1.2,0l0.9-1.3l1.3,0.5l-0.4,1.5c0.3,0.2,0,0,0,0c0.3,0.2,0.5,0.4,0.7,0.7l0.1-0.1
		c1.2-1.1,2.6-2.6,3.8-4.2c-0.2-0.2-0.4-0.4-0.6-0.5l-0.8,0.2c-0.3-0.4-0.5-0.9-0.6-1.3L24,36c-0.1-0.3-0.1-0.7,0-1l-0.7-0.4
		c0.1-0.5,0.3-0.9,0.6-1.3l0.8,0.2c0.2-0.3,0.5-0.5,0.8-0.7L25.2,32c0.4-0.3,0.9-0.5,1.4-0.6L27,32c0.2,0,0.6,0,0.9,0
		c0-0.3,0-0.5,0-0.8C28,28.6,26.3,26,23.6,24.5z"/>
	<path class="st0" d="M18.3,42.4c-0.8,0-1.5,0.4-1.9,1l0,0c1.2,1,1.9,1.5,1.9,1.5c0,0,0.8-0.6,1.9-1.5l0,0
		C19.8,42.8,19.1,42.4,18.3,42.4z"/>
	<path class="st0" d="M15.9,41.6C15.9,41.7,15.9,41.7,15.9,41.6C15.9,41.7,15.9,41.7,15.9,41.6L15.9,41.6z"/>
	<path class="st0" d="M18.3,44.9L18.3,44.9L18.3,44.9z"/>
	<path class="st0" d="M25.8,35.4c0,0.5,0.2,0.9,0.5,1.2c0.6-1,1-2,1.3-3C26.6,33.6,25.8,34.4,25.8,35.4z"/>
	<path class="st1" d="M8.6,12.7c-0.1-0.4,0-0.8,0.3-1.1l-1.3-1.2c-0.5,0.6-0.8,1.3-0.8,2.1c0,0.8,0.3,1.5,0.8,2.1l1.3-1.2
		C8.7,13.2,8.6,12.9,8.6,12.7z"/>
	<path class="st1" d="M12.6,15l-1.3-1.2C11,13.9,10.8,14,10.6,14c-0.1,0-0.2,0-0.3,0c-0.4,0-0.7-0.1-0.9-0.3L8,15
		c0.6,0.5,1.4,0.8,2.3,0.8C11.2,15.8,12,15.5,12.6,15z"/>
	<path class="st1" d="M26.2,9.1c-1.1,0-2.1,0.5-2.7,1.2H29C28.3,9.6,27.3,9.1,26.2,9.1z"/>
	<path class="st1" d="M10,10.8c0.5-0.1,0.9,0,1.2,0.2l1.3-1.2c-0.6-0.5-1.4-0.8-2.3-0.8C9.5,9.1,8.7,9.3,8,9.8l1.3,1.2
		C9.6,11,9.8,10.9,10,10.8z"/>
	<path class="st1" d="M12,12.2c0.1,0.4,0,0.8-0.3,1.1l1.3,1.2c0.5-0.6,0.8-1.3,0.8-2.1c0-0.8-0.3-1.5-0.8-2.1l-1.3,1.2
		C11.9,11.7,12,11.9,12,12.2z"/>
	<path class="st1" d="M10.3,11.5c0,0-0.1,0-0.1,0c-0.6,0.1-0.9,0.6-0.9,1.1c0.1,0.5,0.6,0.9,1.2,0.8c0.3,0,0.5-0.2,0.7-0.4
		c0.1-0.2,0.2-0.5,0.2-0.7C11.3,11.8,10.8,11.5,10.3,11.5z"/>
	<path class="st1" d="M23,10.9c-0.2,0.4-0.3,0.7-0.4,1.2h7.2c0-0.4-0.2-0.8-0.4-1.2H23z"/>
	<path class="st1" d="M26.2,15.8c1.1,0,2.1-0.5,2.7-1.2h-5.5C24.1,15.3,25.2,15.8,26.2,15.8z"/>
	<path class="st2" d="M30,38.2c0.1-0.1,0.3-0.3,0.4-0.4C30.3,37.9,30.2,38,30,38.2L30,38.2z"/>
	<path class="st2" d="M30.4,37.8c0.1-0.1,0.2-0.2,0.3-0.4l0,0C30.6,37.5,30.5,37.7,30.4,37.8z"/>
	<path class="st1" d="M23,14h6.4c0.2-0.4,0.3-0.7,0.4-1.2h-7.2C22.7,13.2,22.8,13.6,23,14z"/>
	<path class="st1" d="M27.1,32l-0.4-0.6c-0.5,0.1-1,0.3-1.4,0.6l0.2,0.7c-0.3,0.2-0.5,0.4-0.8,0.7l-0.8-0.2
		c-0.3,0.4-0.5,0.9-0.6,1.3L24,35c0,0.3,0,0.7,0,1l-0.7,0.4c0.1,0.5,0.3,0.9,0.6,1.3l0.8-0.2c0.1,0.2,0.3,0.4,0.6,0.5
		c0.3-0.5,0.6-1,1-1.4c-0.3-0.3-0.5-0.7-0.5-1.2c0-1,0.8-1.7,1.8-1.8c0.1-0.5,0.3-1.1,0.3-1.6C27.7,31.9,27.3,31.9,27.1,32z"/>
	<path class="st2" d="M15.1,42.4L15.1,42.4L15.1,42.4L15.1,42.4z"/>
	<path class="st2" d="M15.9,41.6C15.9,41.7,15.6,41.8,15.9,41.6C15.9,41.7,15.9,41.7,15.9,41.6L15.9,41.6z"/>
	<path class="st2" d="M15.1,42.4L15.1,42.4C15.2,42.3,15.3,42.2,15.1,42.4z"/>
	<path class="st1" d="M20.7,41.7C20.7,41.7,21,41.9,20.7,41.7l0.4-1.5l-1.3-0.5L18.9,41c-0.4-0.1-0.8-0.1-1.2,0l-0.9-1.3l-1.3,0.5
		l0.4,1.5l0,0l0,0l0,0l0,0c-0.3,0.2-0.6,0.4-0.8,0.7l1.2,1c0.4-0.6,1.2-1,1.9-1c0.8,0,1.5,0.4,1.9,0.9l1.2-1
		C21.2,42.1,21,41.9,20.7,41.7z"/>
	<path class="st2" d="M22.2,44.2C22.3,44.5,22.2,44.2,22.2,44.2L22.2,44.2z"/>
	<path class="st1" d="M33.5,16.5c0.8-1.2,1.2-2.5,1.2-4c0,0,0,0,0-0.1c0-7.8,1.8-12.1,1.8-12.1h-0.4c-3.6,0-7.2,0.7-10.1,2
		C23.8,0.8,21.1,0,18.3,0c-2.8,0-5.4,0.8-7.7,2.3c-3-1.3-6.5-2-10.1-2H0.1c0,0,1.8,4.3,1.8,12.1c0,0,0,0,0,0.1c0,1.5,0.4,2.9,1.2,4
		c-7.5,8.8-0.3,20.8,11.2,27.9c0.6,0.4,1.2,0.7,1.8,1c0.7,0.4,1.5,0.8,2.2,1.1l0,0c0.8-0.4,1.5-0.8,2.2-1.2c0.6-0.3,1.2-0.7,1.7-1
		c2.4-1.5,4.6-3.2,6.5-5c0.4-0.4,0.8-0.8,1.2-1.2l0-0.1c0.1-0.1,0.3-0.2,0.4-0.3c0,0,0,0,0,0c0.1-0.1,0.2-0.2,0.3-0.4l0,0
		c0.4-0.4,0.8-0.9,1.1-1.3C36.9,29.8,38.5,22.4,33.5,16.5z M18.3,0.9c2.4,0,4.7,0.6,6.7,1.8c-0.2,0.1-0.4,0.2-0.5,0.3
		c-2.9,1.6-5.2,3.9-6.2,6.7c-1-2.8-3.3-5.1-6.2-6.7C12,3,11.8,2.9,11.7,2.8C13.6,1.6,15.9,0.9,18.3,0.9z M20.3,23.7
		c-0.3,0.4-0.7,0.7-1.1,0.9l0,0c-0.6,0.2-1.2,0.2-1.8,0l0,0c-0.6-0.2-1.1-0.7-1.4-1.3l0,0l0,0c0.7-0.1,1.5-0.2,2.2-0.2
		c0.8,0,1.5,0.1,2.3,0.2l0,0l0,0l0,0C20.5,23.5,20.4,23.6,20.3,23.7C20.3,23.7,20.3,23.8,20.3,23.7z M19.5,20.6
		c-0.6,0.6-1.3,1.1-1.3,1.1s-0.6-0.4-1.3-1.1c-0.7-0.7-1.4-1.6-1.4-2.5l0.4-0.4l2.3-2.6l2.3,2.6L21,18
		C20.9,18.9,20.2,19.9,19.5,20.6z M7.8,18.4l-0.6-0.2C7,18.1,6.9,17.8,7,17.7l0.3-0.5c0-0.1,0.1-0.1,0.1-0.1c-0.4-0.2-0.7-0.4-1-0.7
		c0,0.1-0.1,0.1-0.1,0.1l-0.5,0.4c-0.2,0.1-0.4,0.1-0.5,0l-0.4-0.5c-0.1-0.2-0.1-0.4,0-0.5l0.5-0.4c0,0,0.1-0.1,0.2-0.1
		c-0.2-0.3-0.4-0.7-0.6-1c0,0-0.1,0.1-0.1,0.1l-0.6,0.1c-0.2,0-0.4-0.1-0.5-0.3l-0.1-0.6c0-0.2,0.1-0.4,0.3-0.4l0.6-0.1
		c0.1,0,0.1,0,0.2,0c0-0.4-0.1-0.8,0-1.1c-0.1,0-0.1,0-0.2,0l-0.6-0.1c-0.2,0-0.4-0.2-0.3-0.4l0.1-0.6c0-0.2,0.3-0.3,0.5-0.3
		l0.6,0.1c0,0,0.1,0,0.1,0.1c0.1-0.3,0.3-0.6,0.5-1c0,0,0,0,0-0.1c0,0-0.1,0-0.1-0.1L4.7,9.3C4.5,9.2,4.5,8.9,4.6,8.8L5,8.3
		c0.1-0.2,0.4-0.2,0.5-0.1l0.5,0.4c0,0,0.1,0.1,0.1,0.1C6.5,8.5,6.8,8.2,7.1,8C7.1,8,7,8,7,7.9L6.8,7.4C6.6,7.2,6.8,7,6.9,6.9
		l0.6-0.3c0.2-0.1,0.4,0,0.5,0.2l0.3,0.5c0,0,0,0.1,0,0.1c0.4-0.1,0.8-0.2,1.2-0.3c0,0,0-0.1,0-0.1V6.5c0-0.2,0.2-0.4,0.4-0.4h0.7
		c0.2,0,0.4,0.2,0.4,0.4V7c0,0,0,0.1,0,0.1c0.3,0,0.5,0.1,0.8,0.1c0,0,0-0.1,0-0.1l0.3-0.5c0.1-0.2,0.3-0.3,0.5-0.2l0.6,0.2
		c0.2,0.1,0.3,0.3,0.2,0.5l-0.3,0.5c0,0,0,0.1-0.1,0.1c0,0,0.1,0,0.1,0c0.3,0.2,0.6,0.4,0.9,0.6c0,0,0-0.1,0.1-0.1l0.5-0.4
		c0.2-0.1,0.4-0.1,0.6,0l0.4,0.4c0.1,0.1,0.1,0.4,0,0.5l-0.5,0.4c0,0-0.1,0-0.1,0.1c0.3,0.3,0.4,0.6,0.6,1c0,0,0.1,0,0.1-0.1
		l0.6-0.2c0.2-0.1,0.4,0.1,0.5,0.3l0.2,0.6c0.1,0.2-0.1,0.4-0.3,0.5l-0.6,0.2c0,0-0.1,0-0.1,0c0.1,0.4,0.1,0.7,0.1,1.1
		c0,0,0.1,0,0.1,0l0.6,0.1c0.2,0,0.4,0.2,0.3,0.4L17,13.9c0,0.2-0.3,0.3-0.5,0.3l-0.6-0.1c0,0-0.1,0-0.1,0c-0.1,0.4-0.3,0.7-0.5,1
		c0,0,0.1,0,0.1,0.1l0.5,0.3c0.2,0.1,0.2,0.3,0.1,0.5l-0.4,0.5c-0.1,0.2-0.4,0.2-0.5,0.1l-0.5-0.3c0,0-0.1-0.1-0.1-0.1
		c-0.3,0.3-0.6,0.5-0.9,0.7c0,0,0.1,0.1,0.1,0.1l0.3,0.5c0.1,0.2,0,0.4-0.2,0.5l-0.6,0.3c-0.2,0.1-0.4,0-0.5-0.2l-0.3-0.5
		c0,0,0-0.1,0-0.1c-0.4,0.1-0.8,0.2-1.2,0.3c0,0,0,0.1,0,0.2l0,0.6c0,0.2-0.2,0.4-0.4,0.4l-0.6,0c-0.2,0-0.4-0.2-0.4-0.4l0-0.6
		c0-0.1,0-0.1,0-0.2c-0.4,0-0.8-0.1-1.2-0.2c0,0.1,0,0.1,0,0.2l-0.3,0.5C8.2,18.4,8,18.5,7.8,18.4z M22.2,44.2L22.2,44.2
		C22.2,44.2,22.3,44.5,22.2,44.2z M28,32c-0.1,0.6-0.2,1.1-0.3,1.6c-0.3,1-0.8,2-1.3,3c-0.3,0.5-0.6,1-1,1.4
		c-1.2,1.6-2.6,3.1-3.8,4.2l-0.1,0.1l-1.2,1l0,0c-1.2,1-1.9,1.5-1.9,1.5l0,0l0,0l0,0c0,0-0.8-0.6-1.9-1.5l0,0l-1.2-1l0,0
		c0,0,0,0,0,0l0,0l-0.1-0.1c-2.8-2.6-6.4-6.8-6.4-11.2c0-2.5,1.7-5.2,4.4-6.7c0.1,0.3,0.3,0.6,0.5,0.9l0,0l0,0l1-0.2
		c0.3,0.3,0.6,0.6,1,0.9L15.3,27l0,0l0,0c0,0,0.1,0.1,0.1,0.1c0.1,0.1,0.2,0.1,0.3,0.2c0,0,0,0,0.1,0c0.1,0.1,0.3,0.1,0.4,0.2l0,0
		l0,0c0.3,0.1,0.6,0.2,0.9,0.3l0.5-0.8c0.5,0.1,0.9,0.1,1.4,0l0.5,0.8c0.6-0.1,1.3-0.4,1.8-0.7l0,0l0,0L21.2,26
		c0.4-0.3,0.7-0.6,1-0.9l1,0.2l0,0l0,0c0,0,0.1-0.1,0.1-0.1c0.1-0.1,0.1-0.2,0.2-0.3c0,0,0,0,0-0.1c0.1-0.1,0.1-0.2,0.2-0.4l0,0l0,0
		l0,0c2.7,1.5,4.4,4.2,4.4,6.7C28,31.4,28,31.7,28,32z M33,13.8c0,0.2-0.3,0.3-0.5,0.3L31.9,14c0,0-0.1,0-0.1,0
		c-0.1,0.4-0.3,0.7-0.5,1c0,0,0.1,0,0.1,0.1l0.5,0.3c0.2,0.1,0.2,0.3,0.1,0.5l-0.4,0.5c-0.1,0.2-0.4,0.2-0.5,0.1l-0.5-0.3
		c0,0-0.1-0.1-0.1-0.1c-0.3,0.3-0.6,0.5-0.9,0.7c0,0,0.1,0.1,0.1,0.1l0.3,0.5c0.1,0.2,0,0.4-0.2,0.5l-0.6,0.3
		c-0.2,0.1-0.4,0-0.5-0.2l-0.3-0.5c0,0,0-0.1,0-0.1c-0.4,0.1-0.8,0.2-1.2,0.3c0,0,0,0.1,0,0.2l0,0.6c0,0.2-0.2,0.4-0.4,0.4l-0.6,0
		c-0.2,0-0.4-0.2-0.4-0.4l0-0.6c0-0.1,0-0.1,0-0.2c-0.4,0-0.8-0.1-1.2-0.2c0,0.1,0,0.1,0,0.2l-0.3,0.5c-0.1,0.2-0.3,0.3-0.5,0.2
		l-0.6-0.2c-0.2-0.1-0.3-0.3-0.2-0.5l0.3-0.5c0-0.1,0.1-0.1,0.1-0.1c-0.4-0.2-0.7-0.4-1-0.7c0,0.1-0.1,0.1-0.1,0.1l-0.5,0.4
		c-0.2,0.1-0.4,0.1-0.6,0l-0.4-0.4c-0.1-0.2-0.1-0.4,0-0.5l0.5-0.4c0,0,0.1-0.1,0.2-0.1c-0.2-0.3-0.4-0.7-0.6-1c0,0-0.1,0.1-0.1,0.1
		l-0.6,0.1c-0.2,0-0.4-0.1-0.5-0.3l-0.1-0.6c0-0.2,0.1-0.4,0.3-0.4l0.6-0.1c0.1,0,0.1,0,0.2,0c0-0.4-0.1-0.8,0-1.1
		c-0.1,0-0.1,0-0.2,0l-0.6-0.1c-0.2,0-0.4-0.2-0.3-0.4l0.1-0.6c0-0.2,0.3-0.3,0.5-0.3l0.6,0.1c0,0,0.1,0,0.1,0.1
		c0.1-0.3,0.3-0.6,0.5-1c0,0,0,0,0-0.1c0,0-0.1,0-0.1-0.1l-0.5-0.4c-0.2-0.1-0.2-0.4-0.1-0.5l0.4-0.5c0.1-0.2,0.4-0.2,0.5-0.1
		L22,8.7c0,0,0.1,0.1,0.1,0.1c0.3-0.3,0.6-0.5,0.9-0.7C23,8,23,8,23,8l-0.3-0.5c-0.1-0.2,0-0.4,0.2-0.5l0.6-0.3
		c0.2-0.1,0.4,0,0.5,0.2l0.3,0.5c0,0,0,0.1,0,0.1c0.4-0.1,0.8-0.2,1.2-0.3c0,0,0-0.1,0-0.1V6.5c0-0.2,0.2-0.4,0.4-0.4h0.6
		c0.2,0,0.4,0.2,0.4,0.4v0.6c0,0,0,0.1,0,0.1c0.3,0,0.5,0.1,0.8,0.1c0,0,0-0.1,0-0.1l0.3-0.5c0.1-0.2,0.3-0.3,0.5-0.2L29,6.7
		c0.2,0.1,0.3,0.3,0.2,0.5L29,7.7c0,0,0,0.1-0.1,0.1c0,0,0.1,0,0.1,0c0.3,0.2,0.6,0.4,0.9,0.6c0,0,0-0.1,0.1-0.1L30.5,8
		c0.1-0.1,0.4-0.1,0.6,0l0.4,0.4c0.1,0.1,0.1,0.4,0,0.5L31,9.3c0,0-0.1,0-0.1,0.1c0.3,0.3,0.4,0.6,0.6,1c0,0,0.1,0,0.1-0.1l0.6-0.2
		c0.2-0.1,0.4,0.1,0.5,0.3l0.2,0.6c0.1,0.2-0.1,0.4-0.3,0.4L32,11.6c0,0-0.1,0-0.1,0c0.1,0.4,0.1,0.7,0.1,1.1c0,0,0.1,0,0.1,0
		l0.6,0.1c0.2,0,0.4,0.2,0.3,0.4V13.8z"/>
</g>
</svg>
