<?xml version="1.0" standalone="no"?>
<!DOCTYPE svg PUBLIC "-//W3C//DTD SVG 1.1//EN" "http://www.w3.org/Graphics/SVG/1.1/DTD/svg11.dtd" >
<svg>
<metadata>
Created by FontForge 20090622 at Thu Feb  8 05:45:17 2018
 By deploy user
 Generated by Temuri Mdinaradze
</metadata>
<defs>
<font id="AGrigoliaL" horiz-adv-x="994" >
  <font-face 
    font-family="AGrigoliaL"
    font-weight="400"
    font-stretch="normal"
    units-per-em="2048"
    panose-1="0 0 0 0 0 0 0 0 0 0"
    ascent="1638"
    descent="-410"
    x-height="786"
    cap-height="1205"
    bbox="-19 -720 1836 1487"
    underline-thickness="25"
    underline-position="-28"
    unicode-range="U+0020-U+007E"
  />
<missing-glyph horiz-adv-x="1387" 
d="M86 0v1387h1215v-1387h-1215zM1215 86v1215h-1043v-1215h1043z" />
    <glyph glyph-name=".notdef" horiz-adv-x="1387" 
d="M86 0v1387h1215v-1387h-1215zM1215 86v1215h-1043v-1215h1043z" />
    <glyph glyph-name=".null" horiz-adv-x="0" 
 />
    <glyph glyph-name="nonmarkingreturn" horiz-adv-x="536" 
 />
    <glyph glyph-name="space" unicode=" " horiz-adv-x="536" 
 />
    <glyph glyph-name="exclam" unicode="!" horiz-adv-x="479" 
d="M264 -73q-32 35 -32 84q0 52 32 87q34 34 78 34q47 0 80 -34q31 -37 31 -87t-31 -84q-33 -34 -80 -34q-23 0 -41.5 7.5t-36.5 26.5zM363 315h-41l-19 186l-20 206l-37 380q-18 173 -18 200v8v4q0 18 1 26t7 25q8 29 22 50q27 44 84 44q58 0 86 -44q14 -24 21 -49
q4 -14 6 -25.5t2 -26.5v-4v-8q0 -34 -16 -200l-39 -380l-21 -206z" />
    <glyph glyph-name="quotedbl" unicode="&#x22;" horiz-adv-x="738" 
d="M260 804h-49l-22 154q-15 111 -31 189q-11 55 -17 100.5t-6 75.5q0 49 27 88q27 33 74 33q46 0 73 -35t27 -86q0 -72 -20 -176l-24 -142zM627 804h-49l-22 154q-15 111 -31 189q-11 55 -17 100.5t-6 75.5q0 51 26 87q27 34 74 34t74 -35t27 -86q0 -59 -21 -176l-16 -101z
" />
    <glyph glyph-name="numbersign" unicode="#" horiz-adv-x="2134" 
d="M332 212q0 -139 24.5 -191.5t168.5 -52.5v-41h-474v41q146 0 169.5 52.5t23.5 191.5v1007l-18 28l-21 22q-42 50 -92 79q-50 24 -130 24l-2 41h372l817 -1111h4v828q0 68 -4.5 106t-8.5 56t-10 31q-25 49 -170 49v41h705v-41q-274 0 -349 -50t-75 -192v-1221h-37
l-889 1190zM1424 376h301v-96h-301v96zM1577 971q85 0 141 -77q58 -73 58 -171q0 -101 -60 -175.5t-145 -74.5q-82 0 -135 73.5t-53 176.5q0 98 57 173t137 75zM1575 922q-45 0 -77.5 -50.5t-32.5 -148.5q0 -103 29 -157t77 -54q45 0 82 54t37 157q0 99 -34 149t-81 50z" />
    <glyph glyph-name="dollar" unicode="$" horiz-adv-x="912" 
d="M377 853q-45 53 -85 125t-40 152q0 133 84 223.5t203 90.5q98 0 175 -66.5t77 -178.5q0 -35 -21 -65q-20 -26 -57 -29q-33 0 -56.5 25t-23.5 61l2 26l6 24l4 28l2 28q0 48 -32 77q-35 26 -76 26q-35 0 -66.5 -13t-60.5 -42q-57 -54 -57 -131q0 -89 54 -155t130 -133
l37 -31l37 -31q93 -78 174.5 -175t81.5 -237q0 -114 -64 -214.5t-158 -157.5q23 -23 45 -56q10 -13 25 -37l16 -26q37 -65 37 -149q0 -138 -80.5 -229.5t-203.5 -91.5q-95 0 -172.5 69.5t-77.5 180.5q0 37 22 65.5t56 28.5q40 0 57 -29q16 -32 16 -67v-14q0 -7 -2 -19
l-6 -28l-4 -29l-4 -29q0 -30 25 -48q20 -17 53 -29l24 -4l21 -3h8h8q60 9 109 62t49 117q0 81 -51 152q-55 65 -127 131l-37 36l-41 33q-45 39 -91 85l-43 46t-42 48q-80 98 -80 231q0 119 63 218q33 52 71 90.5t87 67.5zM410 819q-33 -20 -59 -44q-24 -25 -48 -57
q-45 -59 -45 -146q0 -98 66 -179q24 -30 66 -74q18 -19 37 -37l40 -36l80 -68l36 -34l32 -32q59 36 105 98.5t46 136.5q0 111 -65 189q-35 41 -71 78.5t-77 72.5l-51 46l-23 19l-24 23l-23 22z" />
    <glyph glyph-name="percent" unicode="%" horiz-adv-x="1721" 
d="M1389 1444l-969 -1553h-90l969 1553h90zM1348 696q141 0 213 -119q36 -61 57 -128t21 -136v-11v-8v-5v-9q0 -40 -4 -69.5t-16 -66.5q-9 -33 -22.5 -63t-35.5 -64q-75 -121 -213 -121t-211 121q-35 57 -58 126q-10 34 -15 66.5t-5 70.5v9v5v8v11q0 69 19 136q10 32 24 64
t35 64q72 119 211 119zM1350 639q-60 0 -86.5 -56.5t-35.5 -120.5q-3 -31 -5 -55.5t-2 -45.5l-2 -69l2 -67q0 -41 6 -88q11 -71 37 -129t84 -58q60 0 88 61q12 25 21 59q5 17 7 29l7 42l6 84v67v4v70l-3 46l-5 40q-9 68 -35.5 127.5t-83.5 59.5zM359 1442q140 0 213 -119
q35 -59 55 -127.5t20 -136.5v-11v-8v-9v-9q0 -72 -18.5 -137t-56.5 -127q-75 -119 -213 -119q-139 0 -211 119q-35 59 -56.5 127t-21.5 137v9v9v8v11q0 70 19 136q10 32 24 64t35 64q70 119 211 119zM361 1384q-59 0 -87.5 -58t-37.5 -133l-4 -83l-2 -68v-4l2 -67
q0 -43 6 -88q10 -67 35 -127t84 -60q60 0 88 60.5t37 131.5l6 83v67v4v70v16q0 9 -2 19l-6 48q-3 24 -5.5 36t-8.5 30q-7 29 -21 64q-27 59 -84 59z" />
    <glyph glyph-name="ampersand" unicode="&#x26;" horiz-adv-x="1606" 
d="M1493 221l37 -31q-27 -130 -106 -213q-42 -42 -95.5 -63t-115.5 -21q-102 0 -191 67q-40 27 -80.5 64.5t-74.5 77.5l-29 -26l-29 -24q-84 -76 -175.5 -117.5t-207.5 -41.5h-6q-65 0 -123 20t-117 64q-108 81 -108 238q0 167 106 287.5t226 202.5l41 28l41 22
q-17 41 -30 77.5t-26 80.5q-24 81 -24 171q0 159 100 259.5t244 100.5q111 0 191.5 -69.5t80.5 -199.5q0 -125 -77 -207.5t-175 -140.5q-9 -6 -16.5 -10.5t-22.5 -12.5l-39 -23q58 -121 124 -236q40 -69 71.5 -117t71.5 -100l22 31l25 31l53 91q28 49 45 94l15 42l7 25l7 38
l2 34v13l-2 14q-7 39 -31.5 69t-58.5 30v41h417v-41q-74 0 -109.5 -27.5t-68.5 -81.5l-18 -35l-23 -37l-55 -100l-57 -98l-60 -100l-63 -97l4 -5v-4q15 -19 29.5 -35.5t32.5 -34.5l71 -64q73 -64 168 -64q66 0 118 44q48 45 64 120zM815 165q-89 117 -158 244l-85 166
l-52 106q-51 -30 -91 -64.5t-77 -83.5q-73 -93 -73 -216q0 -119 71 -207t179 -88q32 0 59 5t51 17q46 19 92 54l41 34zM660 853q93 45 169 127q38 43 57 92.5t19 111.5q0 73 -40 126.5t-109 53.5q-73 0 -126.5 -57.5t-53.5 -142.5q0 -71 22 -149t62 -162z" />
    <glyph glyph-name="quotesingle" unicode="'" horiz-adv-x="369" 
d="M158 801l-54 325q-23 138 -23 183q0 70 25.5 101.5t71.5 31.5q45 0 74.5 -32t29.5 -85q0 -21 -6 -67.5t-20 -132.5l-54 -324h-44z" />
    <glyph glyph-name="parenleft" unicode="(" horiz-adv-x="509" 
d="M485 1487v-35q-138 -84 -196 -247q-33 -94 -50 -165q-22 -94 -22 -176l-3 -77l-2 -76l1 -38l1 -35l3 -75q0 -86 20 -175q9 -42 20 -80t30 -90q54 -161 198 -248v-37q-201 119 -310 320t-109 458q0 252 108 453.5t311 322.5z" />
    <glyph glyph-name="parenright" unicode=")" horiz-adv-x="478" 
d="M36 -32q72 46 122.5 107.5t78.5 142.5q14 41 27.5 89t21.5 86t14 84.5t6 85.5l4 75v73l-1 76l-3 77q-8 90 -25.5 174t-46.5 166q-57 163 -198 248v35q203 -120 311.5 -323t108.5 -453q0 -255 -108 -457t-312 -321v35z" />
    <glyph glyph-name="asterisk" unicode="*" horiz-adv-x="924" 
d="M475 1031q-8 7 -22 13l-31 15l-69 15l-15 5l-14 2q-64 12 -121 42q-55 24 -55 92q0 34 23.5 57t51.5 23q48 0 88.5 -39t73.5 -80l4 -3l4 -5l50 -56q26 -27 53 -41q0 45 -10 84l-21 74l-22 72q-5 16 -8 32t-3 33v4q0 23 5.5 41.5t17.5 40.5q18 33 59 33q40 0 62 -33
q20 -42 20 -80v-6q0 -32 -10 -65l-21 -72l-22 -74q-4 -18 -7 -40.5t-3 -43.5q12 7 26 17t27 24l49 56l4 5l4 3l36 42l38 40q19 17 41.5 27t46.5 10q28 0 52 -24q24 -21 24 -56q0 -66 -56 -93q-27 -13 -54.5 -22t-65.5 -19l-15 -2l-14 -5l-70 -15q-32 -12 -53 -28l23 -14
l30 -12l70 -17l14 -2l15 -4q65 -15 120.5 -40.5t55.5 -94.5q0 -33 -23.5 -56t-52.5 -23q-26 0 -46.5 8t-41.5 29l-38 39l-36 41l-4 5l-4 3l-49 57q-20 23 -53 40q0 -44 10 -80l22 -76l21 -71q4 -14 7 -32.5t3 -34.5v-6q0 -39 -20 -76t-62 -37q-39 0 -59 36q-5 7 -10.5 18.5
t-8 21t-3.5 15.5t-1 22v4l3 33q1 9 3 18t5 18l22 71l21 76q10 43 10 80q-27 -11 -53 -40l-50 -57l-4 -3l-4 -5l-36 -42t-37 -37q-38 -38 -89 -38q-27 0 -52 22q-23 23 -23 57q0 67 54 91q30 15 56.5 25t65.5 19l14 4l15 2l37 7l36 10q14 5 27 11.5t22 14.5z" />
    <glyph glyph-name="plus" unicode="+" horiz-adv-x="1172" 
d="M537 78v546h-496v90h496v546h82v-546h497v-90h-497v-546h-82z" />
    <glyph glyph-name="comma" unicode="," horiz-adv-x="430" 
d="M158 -369q83 27 149 105t66 178v7l-2 6l-6 21q-7 7 -19 7q-6 0 -14 -5l-19 -11l-22 -12l-31 -4q-45 0 -73 35q-29 32 -29 81q0 58 39 97t90 39q70 0 111 -58t53 -128l4 -24v-23q0 -138 -89.5 -228t-207.5 -128v45z" />
    <glyph glyph-name="hyphen" unicode="-" horiz-adv-x="631" 
d="M84 512h518v-172h-518v172z" />
    <glyph glyph-name="period" unicode="." horiz-adv-x="387" 
d="M193 -45q-33 32 -33 81q0 48 33 87q33 34 78 34t79 -34q15 -18 23 -38.5t8 -48.5q0 -49 -32 -84q-33 -31 -78 -31q-22 0 -41.5 7.5t-36.5 26.5z" />
    <glyph glyph-name="slash" unicode="/" horiz-adv-x="596" 
d="M570 1483l-490 -1590h-80l492 1590h78z" />
    <glyph glyph-name="zero" unicode="0" horiz-adv-x="1000" 
d="M514 1442h21q6 0 13 -0.5t25.5 -5t47.5 -17.5q124 -51 228 -237t104 -516q0 -332 -103 -514q-50 -86 -107.5 -147.5t-121.5 -87.5q-15 -7 -25.5 -10.5t-25.5 -6.5t-29 -5t-27 -2q-10 0 -23.5 1.5t-30 5t-22.5 4t-10 2.5l-20 11q-123 48 -227.5 233.5t-104.5 515.5
q0 332 103 515.5t229 237.5l25 12l28 7zM514 1374q-119 0 -180 -201.5t-61 -579.5l2 -64l2 -62v-30t4 -43l15 -96q8 -56 27.5 -120t43.5 -111q48 -109 147 -109q120 0 181 204t61 579l-2 64l-2 62q0 18 -1 35t-4 35q0 14 -1.5 26.5t-10.5 62.5q-18 135 -67.5 241.5
t-153.5 106.5z" />
    <glyph glyph-name="one" unicode="1" horiz-adv-x="813" 
d="M242 1265l330 177h34v-1227q0 -136 21 -194t149 -58v-40h-510v40q116 0 148 37q27 32 27 157v896q0 118 -17 163q-16 49 -63 49q-21 0 -35 -5l-35 -13q-12 -2 -18 -8l-17 -8z" />
    <glyph glyph-name="two" unicode="2" horiz-adv-x="985" 
d="M940 206l-94 -283h-801v40q11 11 108 118l96 106l85 98l105 127l81 106q66 93 105.5 179t52.5 161l4 47l2 45q0 132 -70 229t-190 97q-106 0 -189.5 -71.5t-111.5 -182.5h-37q24 173 117 296.5t270 123.5q149 0 267 -109t118 -282q0 -145 -75 -286.5t-164 -252.5l-29 -37
l-29 -35l-301 -352h422l45 2q35 0 72 18q29 12 59 34q29 24 45 64h37z" />
    <glyph glyph-name="three" unicode="3" horiz-adv-x="897" 
d="M314 661v31q118 19 213.5 108.5t95.5 237.5q0 110 -63 182t-167 72q-82 0 -147 -55q-17 -14 -32 -28t-29 -31q-25 -28 -48 -68l-30 18q45 129 134.5 221.5t227.5 92.5q120 0 191 -53q64 -54 98 -122q14 -31 25 -70q6 -35 6 -61v-13l-2 -15q-9 -80 -54.5 -150t-97.5 -122
l-16 -17l-17 -15q121 -50 187 -151q33 -50 50 -110.5t17 -133.5v-31l-4 -38q-18 -166 -148 -306.5t-390 -140.5l-46 3l-55 6q-42 8 -85.5 32.5t-43.5 73.5q0 37 26 60.5t58 23.5q20 0 28 -1.5t22 -6.5t25 -10.5t23 -14.5l17 -7l14 -13l70 -33q36 -15 90 -15q111 0 180.5 94
t69.5 209l-4 64q-6 53 -41 121t-116 125t-232 57z" />
    <glyph glyph-name="four" unicode="4" horiz-adv-x="1002" 
d="M955 470v-157h-183v-390h-166v390h-573v141l631 988h108v-972h183zM606 470v735h-4l-471 -735h475z" />
    <glyph glyph-name="five" unicode="5" horiz-adv-x="934" 
d="M891 1411l-74 -180h-407l-94 -207h6l6 -2q204 -29 372.5 -176.5t168.5 -393.5q0 -234 -165.5 -396.5t-373.5 -162.5l-43 3l-27 3l-22 5q-50 14 -94 46q-43 28 -43 87q0 36 23 60q26 24 56 24l25 -3q11 -2 14.5 -3t12.5 -6t18.5 -11t20.5 -15l14 -9l12 -9l28 -20
q18 -12 34 -21q8 -5 15.5 -7.5t19.5 -5.5t20.5 -4t26.5 -1q121 0 211 99q44 50 66 106.5t22 125.5q0 211 -162 355q-167 140 -432 140l260 579h485z" />
    <glyph glyph-name="six" unicode="6" 
d="M920 1442v-39q-115 0 -214 -54q-95 -49 -177 -152q-156 -195 -211 -431v-6l-2 -7q63 53 138.5 81t147.5 28q162 0 252 -135q44 -66 68 -142.5t24 -158.5v-6v-7q0 -194 -118 -357t-306 -163q-179 0 -283 145t-136 323l-9 77l-4 72q0 356 233 644t554 288h43zM768 308v47
l-4 31l-3 43l-9 43q-6 32 -12.5 56.5t-15.5 47.5t-22 49.5t-28 49.5q-59 93 -166 93q-10 0 -21.5 -0.5t-31.5 -7.5q-25 -4 -54 -21q-56 -31 -100 -68l-4 -39l-6 -36l-6 -68l-2 -82q0 -38 6 -89.5t18 -110.5q23 -105 80 -196.5t152 -91.5q105 0 157 82t66 185l6 42v41z" />
    <glyph glyph-name="seven" unicode="7" horiz-adv-x="979" 
d="M207 1411h727v-41l-450 -1479h-113l405 1340h-385q-100 0 -167 -39q-31 -21 -60 -56.5t-57 -89.5l-29 13z" />
    <glyph glyph-name="eight" unicode="8" horiz-adv-x="953" 
d="M396 671l-3 4h-4l-16 19q-12 6 -18 16q-77 70 -144 159.5t-67 221.5q0 167 113 259t251 92q171 0 265 -93q47 -46 73 -97t31 -109l2 -11v-13q0 -104 -64 -183q-26 -33 -68 -73q-30 -29 -75 -64l-37 -26l-37 -25l33 -28l33 -28q42 -37 86 -84q40 -43 81 -97
q77 -101 77 -235q0 -176 -119.5 -279.5t-274.5 -103.5q-69 0 -127 14q-27 8 -51 19.5t-45 28.5q-80 59 -121 135q-9 19 -17.5 41t-17.5 51l-7 39l-3 32q0 126 71.5 220t160.5 168l20 18zM441 630q-73 -58 -117.5 -158t-44.5 -205q0 -128 63 -218.5t189 -90.5q88 0 160.5 59
t72.5 165v26l-6 27q-12 75 -88 169q-32 39 -91 97t-138 129zM551 789l35 36l33 33q50 53 83 117.5t33 158.5q0 114 -59 177t-164 63h-4h-8q-41 0 -75 -14q-18 -8 -36 -19.5t-34 -26.5q-68 -56 -68 -150q0 -95 54 -166q28 -36 56.5 -66t65.5 -62l16 -17l17 -13l29 -27l14 -12
z" />
    <glyph glyph-name="nine" unicode="9" horiz-adv-x="983" 
d="M111 -109v38q234 0 384 193.5t212 426.5l4 10q0 10 2 13q-32 -21 -65.5 -40t-71.5 -36q-71 -31 -150 -31q-160 0 -250 135q-43 64 -68.5 142t-25.5 153v10v5v10v10q0 96 29.5 181t91.5 171q114 160 303 160q182 0 286 -149q51 -72 84.5 -154.5t49.5 -173.5l10 -75l2 -71
v-59l-5 -42q-1 -10 -1 -20q-3 -9 -4 -13l-10 -55q-57 -277 -263.5 -507t-510.5 -230zM729 659l6 35l5 37l6 73l2 77q0 37 -6 93t-19 108q-24 111 -80.5 201.5t-152.5 90.5q-107 0 -159.5 -85.5t-66.5 -191.5l-2 -38l-2 -41v-32l4 -54q2 -19 5.5 -40t9.5 -48q20 -110 74 -195
t155 -85h26l17 4l47 11q15 5 33 13t36 18q32 20 62 49z" />
    <glyph glyph-name="colon" unicode=":" horiz-adv-x="416" 
d="M269 -79q-45 0 -78 37q-33 32 -33 81q0 48 33 89q32 33 78 33q44 0 79 -33q31 -36 31 -89q0 -48 -32 -83q-30 -35 -78 -35zM269 544q-45 0 -78 36t-33 86t33 89q34 34 78 34q45 0 79 -34q31 -36 31 -89q0 -48 -30.5 -85t-79.5 -37z" />
    <glyph glyph-name="semicolon" unicode=";" horiz-adv-x="459" 
d="M158 -362q83 27 149 105t66 178v6l-2 8l-6 20q-5 6 -19 6q-8 0 -14 -3l-19 -13l-22 -10l-31 -6q-44 0 -73 34t-29 84q0 56 39 95.5t90 39.5q69 0 111.5 -59t52.5 -128l4 -23v-24q0 -136 -89.5 -226.5t-207.5 -128.5v45zM269 544q-45 0 -78 36t-33 86t33 89q34 34 78 34
q45 0 79 -34q31 -36 31 -89q0 -48 -30.5 -85t-79.5 -37z" />
    <glyph glyph-name="less" unicode="&#x3c;" horiz-adv-x="1172" 
d="M41 696l1075 516v-98l-925 -445l925 -444v-97l-1075 515v53z" />
    <glyph glyph-name="equal" unicode="=" horiz-adv-x="1172" 
d="M41 536h1075v-90h-1075v90zM41 891h1075v-90h-1075v90z" />
    <glyph glyph-name="greater" unicode="&#x3e;" horiz-adv-x="1172" 
d="M1116 643l-1075 -515v97l926 444l-926 445v98l1075 -516v-53z" />
    <glyph glyph-name="question" unicode="?" horiz-adv-x="867" 
d="M355 -73q-33 35 -33 84q0 51 33 87q34 34 77 34q47 0 80 -34q31 -37 31 -87t-31 -84q-33 -34 -80 -34q-19 0 -38.5 7.5t-38.5 26.5zM451 272h-41q0 137 35 238q39 110 80 195l24 50l23 49q25 58 49 132q18 65 18 141v4q0 113 -58 208t-171 95l-31 -2l-35 -8
q-45 -12 -85 -43.5t-40 -89.5q0 -27 11 -50q4 -16 8 -26t12 -22l8 -15l6 -14l13 -30l4 -31q0 -33 -23 -64t-57 -31q-41 0 -69 38t-35 81q-3 7 -5 25l-2 26v24l4 19l3 17l6 24q23 87 107.5 159.5t246.5 72.5q146 0 221 -58t111 -130q23 -49 30 -90l7 -69q0 -114 -50 -198
q-44 -81 -112 -168l-12 -15l-13 -18q-69 -84 -128.5 -185.5t-59.5 -240.5z" />
    <glyph glyph-name="at" unicode="@" horiz-adv-x="1886" 
d="M1408 972l-117 -438l-51.5 -198l-27.5 -113q-14 -68 -14 -106q0 -34 21 -60q23 -23 54 -23q37 0 80 19.5t95 60.5q101 79 175 260t74 375q0 188 -82 346.5t-234 244.5q-74 41 -158 63t-174 22q-233 0 -429.5 -134t-312.5 -387.5t-116 -524.5q0 -255 101.5 -459.5
t286 -310.5t395.5 -106q263 0 475 155t329 452h58q-89 -300 -327 -489q-119 -92 -254 -138.5t-286 -46.5q-121 0 -229.5 30t-212.5 94q-202 119 -316 347t-114 501q0 289 124 540t346.5 391.5t475.5 140.5q104 0 197.5 -23.5t175.5 -70.5q165 -91 253 -272t88 -385
q0 -201 -82 -397.5t-207.5 -286.5t-262.5 -90q-74 0 -115 39q-38 41 -38 111q0 62 18 161q-145 -193 -237 -254q-88 -58 -157 -58q-70 0 -125.5 69.5t-55.5 185.5q0 159 94.5 356.5t250.5 322.5q114 90 206 90q36 0 61.5 -8t49.5 -30q45 -38 61 -113l33 121zM1057 927
q-75 0 -152 -87q-112 -126 -193 -344q-29 -77 -44 -141t-15 -112q0 -71 34.5 -113.5t80.5 -42.5q29 0 59.5 11.5t62.5 36.5q64 49 133.5 149t102.5 201q56 176 56 284q0 74 -37 116t-88 42z" />
    <glyph glyph-name="A" unicode="A" 
d="M748 300q0 99 -53 161q-41 41 -71 67q-17 15 -48 38l-15 9l-14 8q-27 19 -52.5 41.5t-49.5 47.5q-43 48 -43 119q0 20 2 28q0 20 3 34.5t12.5 35t27.5 43.5q31 41 102 76l-8 -26l-6 -28q-6 -27 -6 -49q0 -63 31 -99t89 -69q137 -74 217 -174.5t80 -262.5q0 -78 -24 -150
q-26 -67 -74 -121q-34 -38 -83.5 -60t-104.5 -34l-56 -11l-55 -3h-24l-27 3l-25 1l-30 10q-28 6 -52 13.5t-49 20.5q-48 24 -90 60l-2 5h-4q-15 15 -27 31t-24 40q-25 39 -37 90l-4 28l-2 23v23l2 20q6 45 34.5 82.5t112.5 37.5q52 0 75.5 -31.5t23.5 -72.5v-7v-9
q0 -27 -17 -58q-10 -25 -33 -41v-53q0 -75 58 -117q15 -11 28.5 -19t32.5 -17q14 -5 27.5 -8.5t36.5 -3.5h8h8q75 0 137 43.5t62 121.5v163z" />
    <glyph glyph-name="B" unicode="B" horiz-adv-x="998" 
d="M619 781q138 -29 235 -148t97 -277q0 -178 -115.5 -305.5t-280.5 -127.5q-161 0 -278 126t-117 307q0 161 98 282t240 143v288q0 41 -24 55q-10 5 -25 9.5t-37 9.5l-58 11q-16 2 -27 6.5t-38 16.5q-34 18 -64 60q-28 44 -28 91q0 31 15 60t48 54v-29v-27q0 -35 10 -55
q12 -17 56 -30l20 -4l25 -8l33 -7l32 -6q71 -18 127 -60t56 -147v-288zM746 192v326q0 89 -57.5 154t-139.5 65q-80 0 -140 -63q-29 -30 -44 -68t-15 -86v-328q0 -87 58.5 -152.5t140.5 -65.5q81 0 139 65t58 153z" />
    <glyph glyph-name="C" unicode="C" horiz-adv-x="996" 
d="M158 1061v30l4 21l1 18l7 34q28 108 107 192t227 84q126 0 211.5 -74.5t85.5 -197.5q0 -135 -82 -204q-41 -37 -84.5 -60t-95.5 -37q-43 -11 -94 -18t-88 -7v-135q35 39 94 59q22 6 33 8.5t27 4.5q28 7 57 7l30 3h29h36l27 -5q25 -4 39.5 -8t34.5 -13q68 -22 126 -92
t58 -208v-217q0 -114 -80 -197q-39 -41 -81 -68.5t-95 -45.5l-45 -11l-45 -3l4 2l3 1q26 21 50 48.5t47 63.5q46 72 46 210v270q0 138 -60 178.5t-133 40.5h-6h-33l-16 -2q-12 -2 -18 -6q-48 -10 -88.5 -39.5t-40.5 -87.5v-679h-199v1140zM357 1168v-298q24 0 53 7
q18 2 27 4t28 9q70 26 128.5 81.5t58.5 142.5v20v7v10v17q0 120 -46 169q-22 22 -48.5 34.5t-53.5 12.5h-12l-15 -2q-44 -12 -82 -60.5t-38 -153.5z" />
    <glyph glyph-name="D" unicode="D" horiz-adv-x="1377" 
d="M355 409q0 -127 10.5 -189t73.5 -115q12 -11 22.5 -19t26.5 -17l36 -22l27 -15q61 -34 129 -67l123 -59q133 -70 235 -132t199 -168q28 -31 44.5 -63t21 -69t6.5 -82.5t2 -109.5q-152 250 -334 359q-88 54 -195.5 99t-230.5 81l-78 18l-82 13l-43 8l-75 11l-115 5v48
l61 10l43 4l33 -4l27 -2l2 -3l24 -2l31 -3q-11 16 -45 41q-9 7 -28 25.5t-31 31.5q-39 39 -78 104t-39 148v230l2 8l2 8l10 52q6 23 19 46q6 14 10.5 21t11.5 14q2 2 9 12q13 17 22 27q35 36 80 56q13 6 23.5 10t17.5 6q21 8 53 15l43 5l41 2q57 0 111 -18q12 -6 24.5 -11.5
t24.5 -14.5q11 -6 24 -17l25 -22l12 -11l12 -13q55 59 115.5 83t116.5 24h20l19 -2q16 0 32.5 -2.5t26.5 -4.5q29 -7 66 -22q60 -25 106 -76q54 -60 66 -122l6 -60l2 -62q0 -60 -31 -118.5t-66 -97t-95 -59.5t-152 -21h-18l-27 4l-49 14q-38 10 -82 38q-34 20 -70 51
q-35 38 -53 91l-15 52l-4 53v12v9v135q0 55 -32 87q-31 28 -76 42l-19 6h-20h-18l-21 -6q-39 -11 -73.5 -41.5t-34.5 -87.5v-189zM967 733q-31 0 -54.5 -7t-48.5 -25q-45 -30 -45 -103v-298q0 -29 28 -57q14 -12 29 -22t32 -15l17 -5l15 -3l27 -6q4 0 10.5 0.5t18.5 5.5
q14 0 30 8q30 9 62 37q26 23 26 57v298q0 70 -43 103q-46 32 -104 32z" />
    <glyph glyph-name="E" unicode="E" 
d="M946 -280q0 -53 -6 -99.5t-20 -89.5q-29 -86 -76 -136q-50 -56 -127 -82.5t-158 -26.5q-44 0 -87 7t-85 22q-41 13 -74.5 33t-58.5 48q-48 51 -72 121t-24 149q0 21 6 51.5t21 64.5q25 56 76.5 101.5t140.5 45.5l-6 -5l-9 -3q-9 -9 -23 -37q-11 -27 -11 -59v-324
q0 -78 62 -121q32 -20 64 -30t70 -10h4q34 0 66.5 9.5t68.5 32.5q60 42 60 121v1069q0 77 -54 121q-56 42 -118 42h-6q-59 0 -113.5 -42.5t-54.5 -120.5v-105q27 -21 38 -38.5t11 -35.5q0 -28 -19 -48q-11 -12 -19.5 -18.5t-21.5 -11.5l-20 -10l-18 -3h-27l-21 3l-18 10
q-11 2 -29 13.5t-29 28.5l-16 38q-6 26 -6 49l-2 23q0 147 97 235q49 44 111 66.5t136 22.5q162 0 279.5 -92t117.5 -340v-639z" />
    <glyph glyph-name="F" unicode="F" horiz-adv-x="1227" 
d="M856 735h-12l-12 -2q-33 -7 -60 -30q-26 -26 -26 -77v-161q0 -113 -20 -157q-18 -45 -44 -73l-4 -4l-4 -5q-24 -28 -82.5 -55.5t-126.5 -27.5q-38 0 -73.5 6t-70.5 20q-66 23 -95 55t-48 74q-20 48 -20 169q0 122 22 170l22 39q12 18 26 34q24 30 92 54q33 11 69.5 18
t75.5 7q75 0 124 -22q44 -19 71 -60q27 40 78 61q27 10 59.5 15.5t71.5 5.5q181 0 241 -87t60 -239q0 -118 -47.5 -198t-151.5 -104q87 -17 141 -85q27 -33 42.5 -70t15.5 -74v-5v-4v-212q0 -109 -27 -187.5t-71.5 -130t-120.5 -78.5q-9 -3 -27 -8t-52 -12q-14 -3 -35.5 -6
t-43.5 -3h-4h-8q-91 0 -172 28q-85 23 -132 76q-55 56 -78 126q-10 33 -16 70t-6 73q0 20 6 51t21 64q12 26 31.5 53.5t45.5 49.5q55 46 144 46l-8 -4q-3 -1 -6 -3t-7 -7l-20 -31q-4 -11 -7 -24t-3 -29v-326q0 -76 59 -117q20 -12 32 -18t29.5 -11.5t31 -8t36.5 -4.5h4
q77 0 139 40.5t62 120.5v535q0 50 -19 70q-19 23 -43 31l-16 4h-14l-105 2v55h99h18l16 2q24 4 44 26.5t20 78.5v321q0 61 -31 86q-34 23 -80 23zM574 305v321q0 59 -27 86q-28 23 -82 23q-44 0 -77 -23t-33 -86v-321q0 -59 33 -92q32 -29 77 -29q42 0 75.5 30t33.5 91z" />
    <glyph glyph-name="G" unicode="G" horiz-adv-x="1065" 
d="M647 143v483q0 61 -28 86q-31 23 -68 23q-35 0 -68 -24q-30 -24 -30 -85v-106q21 -6 33.5 -31t15.5 -58v-5v-6q0 -40 -34 -80q-29 -35 -89 -35l-25 2l-17 4l-17 10q-21 14 -42.5 53t-21.5 119q0 63 18.5 120t54.5 93q36 40 94 61q30 10 61 16t67 6q67 0 130 -26
q58 -22 89 -56l6 -4l5 -7q24 -31 47 -78q8 -21 12 -43.5t4 -54.5v-377q147 -38 220 -151.5t73 -244.5q0 -32 -4 -64.5t-13 -62.5q-16 -60 -55 -115q-23 -34 -51 -63.5t-62 -52.5q-63 -45 -137 -68q-43 -14 -86 -24q-42 -6 -82 -6q-34 0 -71 5.5t-51 9t-39 12.5
q-124 39 -226 138.5t-102 263.5q0 191 125 307t317 116q-122 -36 -182 -123q-28 -41 -45.5 -89t-17.5 -92v-4v-7v-218q0 -106 54.5 -163.5t117.5 -80.5q11 -5 26.5 -9t27.5 -6l40 -6l26 -2q13 0 25 2t33 9q13 2 30 9.5t33 16.5q63 37 118.5 100t55.5 132v215v6
q0 114 -84 212t-211 98z" />
    <glyph glyph-name="H" unicode="H" horiz-adv-x="996" 
d="M652 924h-148v80h148q50 0 76 29.5t26 65.5q0 44 -29 82q-28 32 -73 38h-7l-8 3h-6h-8h-17l-16 -3l-31 -2l-32 -2q-21 0 -36 3.5t-31 12.5q-28 15 -54 72l-4 16l-4 14v9v4q3 30 25.5 58t45.5 32l6 2h4l-12 -35q-6 -17 -6 -31q0 -9 4 -20l12 -23q18 -16 30 -20l36 -3
q16 0 22 2l23 1l25 2h24l33 -2l31 -6l43 -14l51 -24q23 -12 45 -28.5t42 -37.5q42 -38 42 -87q0 -79 -42 -108t-132 -39q92 -21 133 -58t41 -118q0 -60 -40 -106.5t-134 -72.5q91 -35 144.5 -96t53.5 -245l-1 -32q0 -8 -3 -20t-5 -19q-6 -31 -31 -75q-19 -37 -51 -71
q-28 -34 -74 -69q-86 -62 -230 -62q-121 0 -219.5 51t-150.5 165l-11 26l-6 25l-6 45l-2 41q0 54 40 88q37 36 87 45l12 2h8q51 0 72.5 -30t26.5 -71v-6v-6q0 -39 -16 -71.5t-33 -32.5v-55q0 -74 41 -108q34 -31 88 -45l36 -7l33 -3l35 3l21 3l16 4q46 11 85.5 46t39.5 107
v270v4q0 31 -3 58t-10 51q-12 50 -85 50h-148v81h148q49 0 75 41q14 20 21.5 43.5t7.5 45.5v5q0 53 -25 97q-26 41 -79 41z" />
    <glyph glyph-name="I" unicode="I" horiz-adv-x="676" 
d="M573 1205l-102 -128v-1051l133 -116h-512l103 107v1071l-123 117h501z" />
    <glyph glyph-name="J" unicode="J" horiz-adv-x="983" 
d="M547 359q0 -52 -12 -94q-15 -46 -36.5 -68.5t-53.5 -37.5l-32 -10l-36 -6l-12 -2h-15h-170v57h123h4q15 0 29 14q11 14 14 31v329h197q40 0 76 14q8 2 15.5 4.5t15.5 7.5l30 15l15 11l16 8l6 7l4 4q13 7 33 28l27 32l41 60l16 26h96v-1074v-77q0 -26 -4 -43
q-2 -16 -3.5 -22t-4.5 -17q-6 -39 -28 -80q-11 -21 -24 -40.5t-32 -38.5q-38 -41 -111 -76q-17 -9 -34 -14t-49 -12q-18 -3 -42 -6t-59 -3q-113 0 -185 34.5t-110.5 75t-64.5 93.5q-31 54 -31 174q0 19 6 48l5 26l9 24l9 24q3 6 5.5 11.5t8.5 12.5q11 25 29 43
q37 38 75 56.5t97 18.5q-17 -17 -27 -34.5t-14 -40.5q-9 -38 -9 -80v-271l7 -31q6 -28 36 -67l5 -2l2 -4l4 -2l2 -5q9 -9 21.5 -16t36.5 -18q21 -8 40 -12t43 -4q42 0 81 15q25 11 34 16q14 8 26 19l4 5l3 2q23 23 34 42q4 7 6 11t7 18l2 18v17v1069l-19 -6l-51 -19l-29 -11
l-33 -8l-32 -8l-33 -2v-159z" />
    <glyph glyph-name="K" unicode="K" horiz-adv-x="887" 
d="M109 -371l8 7l8 5q27 18 51.5 38t50.5 46q48 48 48 130v12l-2 13q0 15 -10 26q-8 12 -25 15l-15 -2l-18 -5l-16 -8l-21 -2q-42 0 -73 32q-16 18 -23.5 37t-7.5 42q0 64 41 96t94 32q69 0 114 -58t54 -133l2 -12v-16q0 -121 -77 -217t-183 -129v51zM586 -371l8 7l8 5
q27 18 51.5 38t50.5 46q48 48 48 130v12l-2 13q-2 16 -10 29q-8 9 -25 12l-14 -2l-19 -5l-16 -8l-21 -2q-42 0 -73 32q-16 17 -23.5 36t-7.5 43q0 64 41 96t94 32q69 0 114 -58t54 -133l2 -12v-16q0 -121 -77 -217t-183 -129v51z" />
    <glyph glyph-name="L" unicode="L" horiz-adv-x="887" 
d="M324 1444v-51l-8 -4l-9 -7l-53 -41q-13 -10 -25 -21q-16 -16 -24 -23q-47 -49 -47 -129v-11l2 -14q0 -8 4 -17l6 -12q8 -14 25 -14q8 0 16 5l17 5l20 8l16 1q42 0 74 -35q16 -17 23.5 -36t7.5 -44q0 -62 -41 -94.5t-94 -32.5q-35 0 -63.5 14t-51.5 45q-19 25 -34 59.5
t-19 71.5l-2 14v12q0 128 77.5 222.5t182.5 128.5zM801 1444v-51l-8 -4l-8 -7l-54 -42t-50 -45t-34.5 -54.5t-11.5 -72.5v-11l2 -14q0 -13 9.5 -28t25.5 -15q8 0 16 5l17 5l20 8l17 1q42 0 73 -35q16 -17 23.5 -36t7.5 -44q0 -64 -41 -95.5t-94 -31.5q-35 0 -63.5 14
t-51.5 45q-19 25 -34 59.5t-19 71.5l-2 14v12q0 127 77 222t183 129z" />
    <glyph glyph-name="M" unicode="M" 
d="M357 1166q16 -6 28 -25q11 -13 15 -33l6 -27v-25q0 -42 -28.5 -75t-70.5 -33h-4h-4q-71 0 -102 38q-35 37 -35 96v9l2 6v8v5q12 105 109 199q23 23 46.5 40.5t51 33.5t54.5 26t57 17l36 8l35 2q163 0 278 -128t115 -304v-652q0 -173 -114 -302t-279 -129q-161 0 -278 126
t-117 305t117 306.5t278 127.5q53 0 105 -13q48 -15 92 -40v433q0 85 -59.5 149t-137.5 64q-81 0 -138.5 -62.5t-57.5 -150.5zM750 190v324q0 89 -59 154t-138 65q-81 0 -138.5 -63.5t-57.5 -153.5v-326q0 -88 57 -152t139 -64q79 0 138 63.5t59 152.5z" />
    <glyph glyph-name="N" unicode="N" 
d="M355 1278v-543q18 12 42.5 23t47.5 19q28 7 53 10.5t51 3.5h21l18 -2q36 0 69 -9q32 -5 74 -22q66 -20 113 -72.5t71 -125.5q21 -67 29 -147l2 -30v-27q0 -96 -21 -180.5t-79 -146.5q-40 -40 -102 -68q-28 -13 -56 -21t-67 -16l-35 -1l-37 -2h-8h-8q-40 0 -76 6t-76 21
q-75 20 -127 81q-38 41 -61 107q-10 30 -18 63t-13 68l-4 46l-2 43v758q0 64 27.5 118t70.5 99q34 37 87 63.5t112 37.5l49 6l47 2h31h18q11 -3 16 -4l37 -5l17 -7l18 -5l13 -6l18 -9l16 -1q12 -4 19 -5t16 -1q15 0 21 3h18l51 11l45 13l25 10q11 2 18 6q0 -14 -8 -29
q-6 -18 -22 -39l-23 -27l-26 -24l-13 -10l-12 -5q-27 -16 -51 -24l-43 -4q-34 0 -60 4t-53 15q-51 15 -86 34l-65 39q-14 8 -29.5 12t-28.5 4q-35 0 -53 -33.5t-18 -74.5zM355 139q0 -81 57.5 -121.5t136.5 -40.5q85 0 142 40t57 122v433q0 83 -57 123t-142 40
q-79 0 -136.5 -40t-57.5 -123v-433z" />
    <glyph glyph-name="O" unicode="O" horiz-adv-x="1512" 
d="M500 32q0 -43 -25 -71q-12 -12 -25.5 -19.5t-31.5 -14.5l-20 -3l-21 -1h-8l-8 1q-15 3 -29.5 9.5t-29.5 18t-24 20.5l-22 23l-14 18l-12 19l-4 7l-7 10q-13 21 -21.5 40.5t-22.5 58.5q-9 30 -14 81.5t-5 128.5q0 157 30.5 221.5t67.5 103.5l4 4l2 3q40 35 112 67
q35 15 82 23.5t97 8.5q56 0 95.5 -5t75.5 -15q64 -18 102 -62q34 42 97 62q30 9 76 14.5t97 5.5l45 -3q35 0 94 -18l32 -10q15 -5 28 -12q28 -14 49 -39l12 -13l12 -13q45 -60 59.5 -129t14.5 -194q0 -191 -91.5 -313t-205.5 -122l14 17l31 28l4 4l2 2l11 16l16 32l8 27
l6 34l6 29v27v431q0 66 -51 117q-56 48 -121 48q-64 0 -118 -41.5t-54 -123.5v-324h-149v324q0 28 -15 60q-4 9 -6 12q-6 7 -9 11l-19 28q-7 7 -13 11q-16 11 -40 21q-34 16 -78 22h-9h-8h-4h-6q-38 0 -82 -19q-38 -13 -57 -35q-10 -13 -17.5 -24t-15.5 -27q-14 -28 -14 -60
v-327q0 -55 4 -68q3 -17 12 -29l4 -3l2 -4h21l20 -4q28 -7 56 -35q26 -24 26 -68z" />
    <glyph glyph-name="P" unicode="P" 
d="M750 570q0 95 -27 128q-26 29 -61 35h-4h-6h-101v53h101q26 0 44 5t31 15q23 20 23 61v134q0 69 -33 96q-34 23 -88 42l-92 29q-24 6 -50.5 19t-58.5 32q-11 7 -22.5 17.5t-19.5 23.5q-15 24 -23 57l-2 16l-2 17q0 36 16.5 61t52.5 25q0 -61 24 -88q21 -24 100 -47
q70 -18 141 -46.5t130 -61.5q123 -69 123 -192v-21l-5 -32q-2 -15 -6 -27t-6 -19t-9 -19l-26 -39q-7 -9 -14.5 -16.5t-19.5 -16.5q-38 -33 -110 -53q88 -35 142 -98t54 -144v-164q0 -98 -23.5 -183t-72.5 -140q-34 -37 -83.5 -60t-104.5 -37l-56 -8l-53 -3h-24l-27 3l-25 1
l-26 10q-29 6 -52 13.5t-50 21.5q-49 23 -91 59l-2 5h-4q-11 10 -25.5 29.5t-27.5 41.5q-25 41 -37 95l-2 23l-2 22v22l2 20q6 46 35 83t110 37q52 0 75.5 -31.5t23.5 -73.5v-6v-9q0 -27 -17 -58q-11 -26 -32 -41v-53q0 -73 57 -115q15 -12 28 -19.5t32 -16.5
q14 -5 27.5 -8.5t35.5 -3.5h8h4h4q37 0 70.5 10t65.5 32q63 44 63 123v433z" />
    <glyph glyph-name="Q" unicode="Q" horiz-adv-x="989" 
d="M400 -71q-8 -7 -16 -18q-3 -5 -12 -18q-9 -16 -14 -47.5t-5 -73.5v-269l6 -28q3 -30 30 -66l7 -6l4 -6q20 -20 57 -37l40 -12q23 -5 40 -5h6h4q44 0 88 15q22 8 36.5 16.5t25.5 22.5l17 19q5 4 14 17.5t14 30.5l4 18v23v1074q0 60 -39 101q-40 37 -86 53l-25 6h-22
l-25 -2l-24 -4q-43 -13 -86 -52q-39 -41 -39 -102v-56q14 -14 19 -20q12 -15 17 -22q15 -26 15 -65q0 -38 -21 -76q-23 -32 -77 -32q-66 0 -97 34q-26 34 -41 82q-8 34 -8 57l-2 42v9v4q0 40 11 79t63 97q24 30 61 48q7 4 16.5 7.5t16.5 6.5l42 11l38 9l33 2h61
q26 0 54.5 -4t56.5 -13q52 -17 88 -40v541l-99 -53v81l101 52l20 14l23 17l12 12l8 8l19 17l14 14h98v-1724q0 -75 -12 -157t-86 -164l-2 -2l-4 -5q-37 -36 -110.5 -70t-180.5 -34q-101 0 -172 32q-20 8 -33.5 14.5t-28.5 16.5q-13 7 -31 20l-18 13l-6 8l-6 5q-35 38 -65 96
q-31 53 -31 175q0 18 6 48l5 28l9 25l23 45q13 25 29 43l10 12l10 9q32 26 70 43q21 5 38.5 7.5t43.5 2.5z" />
    <glyph glyph-name="R" unicode="R" horiz-adv-x="1370" 
d="M817 598v-240h-172v240q0 57 -32 89q-36 33 -76 40l-19 6h-18h-18l-21 -6q-39 -11 -73.5 -41.5t-34.5 -87.5v-187q0 -126 9 -189.5t77 -116.5l24 -17l25 -14l61 -38q66 -36 129 -66l121 -58q114 -58 227.5 -129t206.5 -173q51 -56 63 -130l8 -82l3 -110
q-151 250 -331 358q-87 52 -193 96.5t-234 82.5l-74 16l-77 14l-121 18l-119 5v49l61 11l43 2l33 -2l25 -3l2 -3l24 -3l31 -2q-6 8 -16 17.5l-27 24.5q-28 22 -61 58q-45 45 -78 108q-37 60 -37 141v230l2 8l2 6l10 50l6 20l11 26l22 35q5 8 12.5 17l20.5 24q34 36 80 58
q22 9 48.5 17.5t47.5 11.5l41 5l39 2q49 0 99 -16.5t91 -53.5l21 -15l20 -22q56 59 115.5 83t118.5 24h26l27 -2q29 -4 57 -11.5t56 -19.5q59 -26 102 -74q11 -12 23 -28.5t21 -31.5q15 -28 22 -62l6 -60l2 -59q0 -60 -31 -117.5t-67 -97.5q-29 -32 -72 -58
q-44 -22 -125 -22l12 14l13 12l26 33l23 31l18 36q6 20 6 33v296q0 66 -43 100q-51 35 -96 35h-6h-17l-16 -2q-43 -8 -79 -38t-36 -95z" />
    <glyph glyph-name="S" unicode="S" horiz-adv-x="1098" 
d="M676 1112h-147v164q0 58 -19 78q-16 20 -45 28l-10 2h-12h-11q-9 0 -12 -2q-23 -5 -43 -28t-20 -78v-110v-40q0 -22 2 -33l3 -22l9 -23l14 -19l21 -25q-109 0 -176 63q-72 62 -72 138v4v5v8q10 80 87 148t198 68h49l13 -1q9 0 24 -9q15 -3 32 -15l41 -29q10 7 28 18
q24 14 42 22l22 5l29 7l21 2h20h32t38 -3.5t57 -17.5q24 -10 44 -25t38 -36l22 -26l17 -24l11 -26l12 -28l5 -22l5 -31l2 -60v-800q0 -95 -20 -173.5t-83 -136.5q-30 -31 -86 -59q-50 -24 -104 -38l-51 -8l-51 -3l-46 2l-49 6q-62 11 -114 34t-95 66q-57 57 -73 146
q-3 13 -6 30.5t-7.5 55.5t-5 58.5t-0.5 32.5q0 95 19 180q15 86 73 147q20 20 42 35q26 18 53 30q51 20 114 33l49 7l46 2q50 0 104 -13q49 -15 94 -40v543q0 47 -16 69.5t-35 30.5l-18 8h-17h-14l-15 -5q-21 -8 -41 -30q-18 -23 -18 -73v-164zM850 137v433q0 39 -12 60
q-4 7 -11.5 15.5t-17.5 17.5l-6 10l-8 6q-6 5 -16.5 12t-20.5 12t-30 12.5t-27 9.5l-25 4l-24 4l-29 -2l-33 -8l-22 -7q-11 -2 -27 -11q-6 -3 -20 -11t-23 -15q-23 -19 -35 -45q-10 -28 -10 -70v-429q0 -38 11 -64q11 -22 34 -42q23 -18 70 -38q41 -19 84 -19q47 0 81 14
q17 7 31 16.5t31 26.5l8 7l4 7l31 40q12 21 12 54z" />
    <glyph glyph-name="T" unicode="T" horiz-adv-x="1518" 
d="M850 685l4 5l2 2q29 32 86 71q52 33 158 33l45 -2q38 0 96 -19l28 -11l30 -14q28 -14 49 -38l14 -16l12 -15q45 -59 60 -128q12 -69 12 -195q0 -192 -92 -314.5t-203 -122.5l15 19l32 34q12 14 27 46q3 7 8 25.5t8 32.5l4 32l2 29v436q0 75 -51 123q-12 11 -27 20
t-28.5 15t-22.5 8q-19 5 -43 5h-8h-6q-51 -6 -91.5 -33.5t-70.5 -84.5l25 -58l12 -47l2 -9v-10l10 -66l3 -80q0 -155 -29.5 -217.5t-65.5 -103.5l-6 -5l-2 -3l-4 -5q-36 -38 -115 -69q-19 -9 -40 -15q-11 -3 -44 -11q-18 -4 -43 -6t-51 -2q-109 0 -180 34q-34 13 -64 31.5
t-51 37.5l-2 5l-4 3l-4 4l-33 43l-14.5 26.5t-15.5 31.5q-29 63 -29 221q0 162 30.5 225.5t69 103.5t113.5 73q15 8 34 13.5t43.5 11t52.5 8.5t54 3q113 0 188.5 -29t110.5 -82zM752 139v436q0 30 -14 62l-35 48q-23 21 -64 37.5t-88 16.5q-44 0 -86 -16q-22 -8 -36.5 -17
t-23.5 -19.5t-17 -21.5t-19 -28q-14 -31 -14 -62v-436q0 -41 14 -63q12 -22 35 -44q15 -21 61 -39q21 -9 42 -14t44 -5q46 0 90 19q41 15 62 39l4 5l4 6q14 16 28 37q13 24 13 59z" />
    <glyph glyph-name="U" unicode="U" horiz-adv-x="1190" 
d="M598 -73q-16 -16 -29 -37q-5 -11 -7 -15t-7 -25l-4 -38l-2 -40v-271l6 -31q4 -28 37 -67l4 -2l2 -4q20 -20 61.5 -37t84.5 -17h6h4q26 0 50 6l30 11q41 16 57 37l33 40l7 14l7 15l2 16v21v1067q0 83 -20 122q-24 41 -78 41q-43 0 -62 -29.5t-30 -73.5l-4 -30l-2 -30v-212
h-146v212q0 100 -18 133q-18 30 -55 30q-18 0 -50 -26l-67 -56l-35 -27l-17 -12l-19 -12l-21 -12l-21 -9q-9 -3 -20.5 -6t-18.5 -3q-42 0 -63 18q-18 20 -29 49l-4 29l-2 26q0 37 18 65.5t56 28.5q26 0 43.5 -17.5t17.5 -50.5q0 -22 -18.5 -37.5t-38.5 -19.5h-6l-13 2l-10 1
q0 -16 12 -27q10 -13 37 -13q35 0 66 25q18 13 31 24q5 4 30 28l4 2l2 2l24 22q22 19 42 33q34 26 70 26h24l21 -2q15 0 43 -14q8 -3 24 -14l33 -23l25 15l24 10q13 6 34 13t52 13l62 2q158 0 213 -90q26 -44 40.5 -103t14.5 -128v-750q0 -77 -12 -157t-86 -161
q-35 -38 -109 -74q-33 -15 -83 -26q-18 -3 -42 -6t-59 -3q-104 0 -176.5 32.5t-110.5 67.5l-2 3l-4 4q-35 37 -66 94q-15 26 -23.5 72t-8.5 102q0 20 6 46q2 17 4 24.5t10 27.5l8 23l15 24q10 21 30 42l6 7l4 5q35 34 72 50q39 15 90 15z" />
    <glyph glyph-name="V" unicode="V" horiz-adv-x="1479" 
d="M1280 1198v-38q-73 -12 -109 -47q-51 -51 -94 -158l-401 -1076h-37l-406 1093q-38 90 -55 114q-12 16 -26 27.5t-33.5 22.5t-42 16t-58.5 8v38h553v-38q-94 -9 -120 -34q-29 -23 -29 -60q0 -28 11 -68.5t36 -96.5l242 -701l247 692q48 124 48 168q0 30 -29 58.5t-98 38.5
q-3 0 -7 0.5t-10 2.5v38h418z" />
    <glyph glyph-name="W" unicode="W" horiz-adv-x="1004" 
d="M477 1247l-63 -14q-29 -6 -53 -6l-21 2h-20l-29 8q-16 2 -33 10q-54 20 -76 65t-22 124q14 -16 37.5 -38t40.5 -36q34 -31 65 -41l15.5 -3.5t21.5 -6.5l37 -3q20 0 37.5 1t38.5 5l98 15l8 2h6h7h6q67 0 118.5 -49.5t51.5 -142.5v-564l98 135q11 11 23 17l22 8
q21 0 33 -15q6 -6 6 -13q0 -11 -10 -24l-172 -243l172 -187l8 -12l2 -15q0 -16 -12 -34q-16 -14 -33 -14q-9 0 -18 6q-11 4 -21 16l-98 135v-298q74 -18 123 -77t49 -133v-217v-6v-9q0 -53 -20 -109t-54 -91q-41 -43 -98.5 -68t-124.5 -36l-35 -3l-37 -2l-29 2l-28 3
q-61 9 -124 35.5t-112 68.5q-36 24 -62 78q-21 44 -32 101l-2 19l-2 17v5v5v6v20q0 13 2 17q6 54 25 104.5t47 84.5q18 21 41 37l51 28l41 7q18 5 37 5l-34 -62q-11 -28 -11 -46l-2 -23v-26v-271v-5v-7q3 -27 14 -50.5t33 -43.5q17 -12 25 -16q14 -8 32 -16q35 -16 64 -20
l14 -3h12l19 3h16q35 6 59 21q17 6 29.5 13t24.5 18q16 11 30 39t19 55v7v7v322q0 118 -36 151t-110 51l-24 7l-27 3v216q-7 -5 -26 -12q-4 -2 -13 -5.5t-17 -5.5l-30 -7l-33 -4l-14 -4h-16q-23 0 -48 5q-8 1 -21 4t-24 7q-23 8 -42 20.5t-33 28.5l-4 5l-7 4v5h-4
q-20 20 -40 53q-19 35 -19 120q0 102 23.5 148t50.5 68q38 31 84 46q23 8 46.5 12.5t45.5 4.5q25 0 36.5 -1.5t42 -9t62.5 -25.5v456v19q0 11 -2 23q0 11 -6 25q-11 19 -33 19l-14 2zM551 308v348q-22 14 -45 19q-10 4 -21.5 6t-21.5 2h-8q-34 0 -67 -21q-31 -22 -31 -60
v-241q0 -36 31.5 -52.5t70.5 -16.5h16l15 2l32 6q16 0 29 8z" />
    <glyph glyph-name="X" unicode="X" horiz-adv-x="1235" 
d="M1192 -160h-526v66h18h14h17h20q17 2 23 3.5t10 9.5q8 12 14.5 23t10.5 19l-7 31q-2 15 -4 22t-10 21l-194 379l-269 -398l-16 -26l-6 -21q0 -22 18 -37l60 -24l26 -2h37v-66h-428v64l59 13l21 10t22 14l48 36l47 66l315 471l-303 515q-8 16 -16 28q-12 16 -17 22l-29 28
l-34 12l-33 2h-12h-9h-10h-22v70h548v-70h-26h-12q-27 0 -44 -1.5t-28 -6.5q-22 -6 -33 -36l2 -15l8 -23l183 -347l254 368l16 26l4 14l-8 4q-6 8 -17 15l-116 2v70h416v-70h-31h-17h-8q-30 0 -59 -19l-33 -32l-51 -55l-285 -411l301 -546l4 -9l33 -47l45 -53l45 -30
q11 -7 29.5 -10t44.5 -3v-66z" />
    <glyph glyph-name="Y" unicode="Y" 
d="M748 789h198v-1080q0 -54 -6 -100t-20 -86q-27 -86 -76 -136q-47 -52 -119 -78q-34 -12 -75.5 -20.5t-75.5 -8.5h-6h-9q-49 0 -90 6.5t-85 21.5q-81 27 -131 80.5t-73.5 122.5t-23.5 148q0 20 6 51t21 64q25 59 77.5 104.5t141.5 45.5l-9 -3l-8 -7l-20 -37
q-10 -27 -10 -58v-325q0 -80 62 -120q32 -20 64 -30t70 -10q74 0 135.5 39.5t61.5 122.5v696l-25 -10l-24 -9q-51 -18 -88 -24l-58 -8l-47 -2h-12q-76 0 -139.5 24.5t-110.5 71.5q-57 59 -72 105l-11 47l-5 46v17v13q0 124 67.5 225t178.5 101l-6 -10q-6 -4 -17 -24
q-9 -12 -16 -35l-6 -19l-2 -20v-322q0 -34 11 -62q5 -12 15 -25t21 -24l8 -3l8 -10q8 -5 24.5 -14.5t31.5 -15t23 -7.5q22 -6 44 -6h6q16 0 33.5 3.5t36.5 10.5t31 13l28 16l12 10l11 3l4 5l4 2q8 7 14.5 15t13.5 23q13 28 13 63v433z" />
    <glyph glyph-name="Z" unicode="Z" 
d="M549 1440q163 0 280 -129t117 -307v-648q0 -177 -116 -306t-281 -129q-162 0 -277.5 129t-115.5 306t115.5 306t277.5 129q51 0 107 -14q46 -14 92 -42v436q0 87 -57.5 151t-141.5 64v54zM748 192v324q0 93 -58 156t-141 63q-77 0 -135.5 -63.5t-58.5 -153.5v-326
q0 -90 57 -154t137 -64q84 0 141.5 65t57.5 153z" />
    <glyph glyph-name="bracketleft" unicode="[" horiz-adv-x="484" 
d="M463 -37h-336v1494h336v-73h-214v-1346h214v-75z" />
    <glyph glyph-name="backslash" unicode="\" horiz-adv-x="596" 
d="M80 1483l490 -1590h-80l-490 1590h80z" />
    <glyph glyph-name="bracketright" unicode="]" horiz-adv-x="409" 
d="M56 1457h334v-1494h-334v75h214v1346h-214v73z" />
    <glyph glyph-name="asciicircum" unicode="^" horiz-adv-x="961" 
d="M498 1439l425 -787h-92l-350 644l-350 -644h-94l431 787h30z" />
    <glyph glyph-name="underscore" unicode="_" horiz-adv-x="1207" 
d="M1149 431h-1149v139h1149v-139z" />
    <glyph glyph-name="grave" unicode="`" horiz-adv-x="887" 
d="M109 -371l8 7l8 5q27 18 51.5 38t50.5 46q48 48 48 130v12l-2 13q0 15 -10 26q-8 12 -25 15l-15 -2l-18 -5l-16 -8l-21 -2q-42 0 -73 32q-16 18 -23.5 37t-7.5 42q0 64 41 96t94 32q69 0 114 -58t54 -133l2 -12v-16q0 -121 -77 -217t-183 -129v51zM586 -371l8 7l8 5
q27 18 51.5 38t50.5 46q48 48 48 130v12l-2 13q-2 16 -10 29q-8 9 -25 12l-14 -2l-19 -5l-16 -8l-21 -2q-42 0 -73 32q-16 17 -23.5 36t-7.5 43q0 64 41 96t94 32q69 0 114 -58t54 -133l2 -12v-16q0 -121 -77 -217t-183 -129v51z" />
    <glyph glyph-name="a" unicode="a" 
d="M748 300q0 99 -53 161q-41 41 -71 67q-17 15 -48 38l-15 9l-14 8q-27 19 -52.5 41.5t-49.5 47.5q-43 48 -43 119q0 20 2 28q0 20 3 34.5t12.5 35t27.5 43.5q31 41 102 76l-8 -26l-6 -28q-6 -27 -6 -49q0 -63 31 -99t89 -69q137 -74 217 -174.5t80 -262.5q0 -78 -24 -150
q-26 -67 -74 -121q-34 -38 -83.5 -60t-104.5 -34l-56 -11l-55 -3h-24l-27 3l-25 1l-30 10q-28 6 -52 13.5t-49 20.5q-48 24 -90 60l-2 5h-4q-15 15 -27 31t-24 40q-25 39 -37 90l-4 28l-2 23v23l2 20q6 45 34.5 82.5t112.5 37.5q52 0 75.5 -31.5t23.5 -72.5v-7v-9
q0 -27 -17 -58q-10 -25 -33 -41v-53q0 -75 58 -117q15 -11 28.5 -19t32.5 -17q14 -5 27.5 -8.5t36.5 -3.5h8h8q75 0 137 43.5t62 121.5v163z" />
    <glyph glyph-name="b" unicode="b" horiz-adv-x="998" 
d="M619 781q138 -29 235 -148t97 -277q0 -178 -115.5 -305.5t-280.5 -127.5q-161 0 -278 126t-117 307q0 161 98 282t240 143v288q0 41 -24 55q-10 5 -25 9.5t-37 9.5l-58 11q-16 2 -27 6.5t-38 16.5q-34 18 -64 60q-28 44 -28 91q0 31 15 60t48 54v-29v-27q0 -35 10 -55
q12 -17 56 -30l20 -4l25 -8l33 -7l32 -6q71 -18 127 -60t56 -147v-288zM746 192v326q0 89 -57.5 154t-139.5 65q-80 0 -140 -63q-29 -30 -44 -68t-15 -86v-328q0 -87 58.5 -152.5t140.5 -65.5q81 0 139 65t58 153z" />
    <glyph glyph-name="c" unicode="c" horiz-adv-x="1080" 
d="M158 135q0 204 41.5 378t247.5 273l-27 -40l-24 -39q-22 -37 -34 -75t-12 -85v-890q0 -119 46 -215q42 -99 198 -99q144 0 193 96q22 46 35.5 102.5t13.5 111.5v4v266q0 95 -15.5 153.5t-82.5 58.5h-72v53h72q61 0 97 46.5t36 112.5q0 42 -21 69l-23 22l-28 23l-8 6
l-10 6q-19 16 -33 29q-17 16 -30 32q-28 36 -28 105t29 102q14 14 37.5 21.5t54.5 7.5q12 0 15 -2l4 -10l-4 -9q-3 -3 -15 -3h-10l-10 -5q-16 -5 -25 -14.5t-12 -28.5q0 -11 12 -35q13 -22 45 -50l47 -38l41 -28q19 -16 33 -33t27 -39q22 -38 22 -128q0 -47 -33 -89
q-16 -18 -34.5 -35t-40.5 -33l-31 -17l-31 -12h4l2 -2q115 -49 163 -119t48 -234q0 -226 -90.5 -372t-343.5 -146q-245 0 -340.5 143.5t-95.5 374.5v329z" />
    <glyph glyph-name="d" unicode="d" horiz-adv-x="1377" 
d="M355 409q0 -127 10.5 -189t73.5 -115q12 -11 22.5 -19t26.5 -17l36 -22l27 -15q61 -34 129 -67l123 -59q133 -70 235 -132t199 -168q28 -31 44.5 -63t21 -69t6.5 -82.5t2 -109.5q-152 250 -334 359q-88 54 -195.5 99t-230.5 81l-78 18l-82 13l-43 8l-75 11l-115 5v48
l61 10l43 4l33 -4l27 -2l2 -3l24 -2l31 -3q-11 16 -45 41q-9 7 -28 25.5t-31 31.5q-39 39 -78 104t-39 148v230l2 8l2 8l10 52q6 23 19 46q6 14 10.5 21t11.5 14q2 2 9 12q13 17 22 27q35 36 80 56q13 6 23.5 10t17.5 6q21 8 53 15l43 5l41 2q57 0 111 -18q12 -6 24.5 -11.5
t24.5 -14.5q11 -6 24 -17l25 -22l12 -11l12 -13q55 59 115.5 83t116.5 24h20l19 -2q16 0 32.5 -2.5t26.5 -4.5q29 -7 66 -22q60 -25 106 -76q54 -60 66 -122l6 -60l2 -62q0 -60 -31 -118.5t-66 -97t-95 -59.5t-152 -21h-18l-27 4l-49 14q-38 10 -82 38q-34 20 -70 51
q-35 38 -53 91l-15 52l-4 53v12v9v135q0 55 -32 87q-31 28 -76 42l-19 6h-20h-18l-21 -6q-39 -11 -73.5 -41.5t-34.5 -87.5v-189zM967 733q-31 0 -54.5 -7t-48.5 -25q-45 -30 -45 -103v-298q0 -29 28 -57q14 -12 29 -22t32 -15l17 -5l15 -3l27 -6q4 0 10.5 0.5t18.5 5.5
q14 0 30 8q30 9 62 37q26 23 26 57v298q0 70 -43 103q-46 32 -104 32z" />
    <glyph glyph-name="e" unicode="e" 
d="M946 -280q0 -53 -6 -99.5t-20 -89.5q-29 -86 -76 -136q-50 -56 -127 -82.5t-158 -26.5q-44 0 -87 7t-85 22q-41 13 -74.5 33t-58.5 48q-48 51 -72 121t-24 149q0 21 6 51.5t21 64.5q25 56 76.5 101.5t140.5 45.5l-6 -5l-9 -3q-9 -9 -23 -37q-11 -27 -11 -59v-324
q0 -78 62 -121q32 -20 64 -30t70 -10h4q34 0 66.5 9.5t68.5 32.5q60 42 60 121v1069q0 77 -54 121q-56 42 -118 42h-6q-59 0 -113.5 -42.5t-54.5 -120.5v-105q27 -21 38 -38.5t11 -35.5q0 -28 -19 -48q-11 -12 -19.5 -18.5t-21.5 -11.5l-20 -10l-18 -3h-27l-21 3l-18 10
q-11 2 -29 13.5t-29 28.5l-16 38q-6 26 -6 49l-2 23q0 147 97 235q49 44 111 66.5t136 22.5q162 0 279.5 -92t117.5 -340v-639z" />
    <glyph glyph-name="f" unicode="f" horiz-adv-x="1227" 
d="M856 735h-12l-12 -2q-33 -7 -60 -30q-26 -26 -26 -77v-161q0 -113 -20 -157q-18 -45 -44 -73l-4 -4l-4 -5q-24 -28 -82.5 -55.5t-126.5 -27.5q-38 0 -73.5 6t-70.5 20q-66 23 -95 55t-48 74q-20 48 -20 169q0 122 22 170l22 39q12 18 26 34q24 30 92 54q33 11 69.5 18
t75.5 7q75 0 124 -22q44 -19 71 -60q27 40 78 61q27 10 59.5 15.5t71.5 5.5q181 0 241 -87t60 -239q0 -118 -47.5 -198t-151.5 -104q87 -17 141 -85q27 -33 42.5 -70t15.5 -74v-5v-4v-212q0 -109 -27 -187.5t-71.5 -130t-120.5 -78.5q-9 -3 -27 -8t-52 -12q-14 -3 -35.5 -6
t-43.5 -3h-4h-8q-91 0 -172 28q-85 23 -132 76q-55 56 -78 126q-10 33 -16 70t-6 73q0 20 6 51t21 64q12 26 31.5 53.5t45.5 49.5q55 46 144 46l-8 -4q-3 -1 -6 -3t-7 -7l-20 -31q-4 -11 -7 -24t-3 -29v-326q0 -76 59 -117q20 -12 32 -18t29.5 -11.5t31 -8t36.5 -4.5h4
q77 0 139 40.5t62 120.5v535q0 50 -19 70q-19 23 -43 31l-16 4h-14l-105 2v55h99h18l16 2q24 4 44 26.5t20 78.5v321q0 61 -31 86q-34 23 -80 23zM574 305v321q0 59 -27 86q-28 23 -82 23q-44 0 -77 -23t-33 -86v-321q0 -59 33 -92q32 -29 77 -29q42 0 75.5 30t33.5 91z" />
    <glyph glyph-name="g" unicode="g" horiz-adv-x="1065" 
d="M647 143v483q0 61 -28 86q-31 23 -68 23q-35 0 -68 -24q-30 -24 -30 -85v-106q21 -6 33.5 -31t15.5 -58v-5v-6q0 -40 -34 -80q-29 -35 -89 -35l-25 2l-17 4l-17 10q-21 14 -42.5 53t-21.5 119q0 63 18.5 120t54.5 93q36 40 94 61q30 10 61 16t67 6q67 0 130 -26
q58 -22 89 -56l6 -4l5 -7q24 -31 47 -78q8 -21 12 -43.5t4 -54.5v-377q147 -38 220 -151.5t73 -244.5q0 -32 -4 -64.5t-13 -62.5q-16 -60 -55 -115q-23 -34 -51 -63.5t-62 -52.5q-63 -45 -137 -68q-43 -14 -86 -24q-42 -6 -82 -6q-34 0 -71 5.5t-51 9t-39 12.5
q-124 39 -226 138.5t-102 263.5q0 191 125 307t317 116q-122 -36 -182 -123q-28 -41 -45.5 -89t-17.5 -92v-4v-7v-218q0 -106 54.5 -163.5t117.5 -80.5q11 -5 26.5 -9t27.5 -6l40 -6l26 -2q13 0 25 2t33 9q13 2 30 9.5t33 16.5q63 37 118.5 100t55.5 132v215v6
q0 114 -84 212t-211 98z" />
    <glyph glyph-name="h" unicode="h" horiz-adv-x="996" 
d="M652 924h-148v80h148q50 0 76 29.5t26 65.5q0 44 -29 82q-28 32 -73 38h-7l-8 3h-6h-8h-17l-16 -3l-31 -2l-32 -2q-21 0 -36 3.5t-31 12.5q-28 15 -54 72l-4 16l-4 14v9v4q3 30 25.5 58t45.5 32l6 2h4l-12 -35q-6 -17 -6 -31q0 -9 4 -20l12 -23q18 -16 30 -20l36 -3
q16 0 22 2l23 1l25 2h24l33 -2l31 -6l43 -14l51 -24q23 -12 45 -28.5t42 -37.5q42 -38 42 -87q0 -79 -42 -108t-132 -39q92 -21 133 -58t41 -118q0 -60 -40 -106.5t-134 -72.5q91 -35 144.5 -96t53.5 -245l-1 -32q0 -8 -3 -20t-5 -19q-6 -31 -31 -75q-19 -37 -51 -71
q-28 -34 -74 -69q-86 -62 -230 -62q-121 0 -219.5 51t-150.5 165l-11 26l-6 25l-6 45l-2 41q0 54 40 88q37 36 87 45l12 2h8q51 0 72.5 -30t26.5 -71v-6v-6q0 -39 -16 -71.5t-33 -32.5v-55q0 -74 41 -108q34 -31 88 -45l36 -7l33 -3l35 3l21 3l16 4q46 11 85.5 46t39.5 107
v270v4q0 31 -3 58t-10 51q-12 50 -85 50h-148v81h148q49 0 75 41q14 20 21.5 43.5t7.5 45.5v5q0 53 -25 97q-26 41 -79 41z" />
    <glyph glyph-name="i" unicode="i" horiz-adv-x="991" 
d="M402 -77q-97 0 -150 78.5t-76 178.5q-10 39 -16 87l-4 89q0 34 6 85t27 106q32 89 115 165q41 38 103 57.5t142 19.5q161 0 243.5 -74.5t119.5 -167.5q9 -27 15.5 -52.5t11.5 -63.5t5 -73l-1 -48l-1 -34v-13v-10q-2 -7 -2 -9l-12 -58q-20 -101 -83 -182t-198 -81l12 16
l17 15q4 5 10 10.5t11 14.5q16 22 33.5 64t17.5 96v431q0 79 -63.5 122t-133.5 43h-6q-35 0 -67 -10t-64 -32q-61 -43 -61 -123v-324q0 -38 6 -72.5t45 -34.5t61.5 -30t26.5 -70v-5q0 -43 -23 -77t-67 -34z" />
    <glyph glyph-name="j" unicode="j" horiz-adv-x="1413" 
d="M158 -5l135 70l117 61q55 25 107 58q40 25 63.5 41l42.5 30l31 23l28 24l-264 396q-11 15 -31 27t-47 12q-38 0 -60.5 -17t-27.5 -37v-4l2 -8l2 -5l4 -5l68 -106l-115 -39l-6 10l-6 4q-6 6 -12.5 14.5t-16.5 25.5q-14 20 -14 40q0 75 64 124.5t192 49.5h20l19 -3
q29 -4 58.5 -12.5t57.5 -21.5t49.5 -30t35.5 -36l188 -259l61 50l56 44l32 31q17 11 32 28l29 31l36 41q27 31 71 97h-98l37 40h207q-27 -48 -56 -88.5t-65 -79.5q-73 -83 -137 -144l-72 -65l-72 -67l203 -318l17 -17q4 -2 11 -6.5t15 -7.5q7 -7 18 -10l17 -2q30 0 50 20.5
t28 45.5q0 10 2 12v10h84q-10 -59 -75.5 -99.5t-149.5 -40.5l-33 2l-37 6l-29.5 6.5t-26 7t-18.5 6.5q-18 7 -37 17q-52 28 -75 62l-123 189q-91 -64 -209 -133q-60 -34 -125.5 -64.5t-140.5 -57.5q142 -44 248 -121.5t106 -195.5q0 -172 -137.5 -267.5t-327.5 -95.5v52
q97 0 172 70q69 64 90 146l4 28l2 26v18v13l-2 16l-10 47q-20 82 -84.5 152.5t-171.5 70.5v68z" />
    <glyph glyph-name="k" unicode="k" 
d="M555 735v49h21q184 0 277 -84.5t93 -236.5q0 -123 -46 -199.5t-152 -100.5q87 -17 141 -85q15 -20 24.5 -35t17.5 -36q15 -33 15 -72v-6v-5v-213q0 -105 -24 -188q-27 -80 -75 -132.5t-122 -78.5q-34 -14 -75 -21q-39 -9 -76 -9h-6h-9q-92 0 -174.5 27t-132.5 82t-73 123
t-23 145q0 20 6 51t21 64q24 61 76.5 105.5t142.5 44.5l-9 -3l-8 -7l-20 -38q-10 -27 -10 -57v-325q0 -76 59 -116q18 -12 31 -18t31 -12q36 -13 67 -13h4q76 0 138.5 39.5t62.5 121.5v536q0 48 -19 68q-17 23 -45 32l-16 7h-19h-98v51h98h19l16 2q24 6 44 28.5t20 79.5v270
q0 79 -56 122q-25 17 -56.5 30t-63.5 13h-7h-4h-6z" />
    <glyph glyph-name="l" unicode="l" horiz-adv-x="1815" 
d="M944 789l29 -3l27 -5q23 -5 45 -15.5t46 -26.5q43 -24 75 -58q14 14 33.5 30t40.5 28q21 14 45 24t51 18l24 8h25q62 0 128 -18q35 -10 63 -25t54 -39q42 -36 70.5 -85t28.5 -157l-2 -36l-6 -41q-21 -92 -94 -168.5t-193 -76.5l26 22l25 23q9 9 19.5 23.5t15.5 23.5
q12 26 12 67v270v11q0 10 -2 13q-6 50 -46.5 94.5t-98.5 44.5h-13l-12 -2q-21 -6 -38.5 -17.5t-36.5 -33.5q-33 -41 -44 -86v-13l-2 -11v-214h-147v214v11l-2 13q-6 50 -51 96q-46 43 -95 43h-8l-12 -2q-43 -11 -79.5 -50.5t-45.5 -86.5v-13l-2 -11v-214h-170v214v24l-6 20
q-11 46 -41 81q-30 38 -76 38q-75 0 -104 -41q-16 -21 -25.5 -43t-13.5 -47l-2 -45l-2 -41v-160q0 -120 86.5 -197t195.5 -122l8 -2l5 -1l43 -16l36 -12l29 -6l27 -9l106 -28l150 -38q47 -11 95 -26.5t95 -35.5q47 -24 84.5 -45t73.5 -46l79 -56q36 -30 58 -55l35 -37
l37 -48q31 -37 61 -88q27 -43 47 -100l8 -19l9 -34l4 -51q-56 62 -78 92l-47 54l-4 10l-8 6l-25 25l-35 30l-63 49q-23 16 -27 19q-23 15 -49 29q-42 26 -110 59q-32 15 -64.5 28.5t-77.5 27.5l-96 32l-125 39l-148 39l-73 14l-84 16l-80 14l-80 9l-84 6l-62 2h-26h-33
l-90 -8v49l86 7l59 4h29h33l88 -11l-107 68q-41 25 -65 48l-25 26l-22 29l-13 20l-14 25l-17 41l-13 45l-9 45l-6 51l-2 48l-2 47v24v21v8q0 167 96 241q51 37 111 56q34 9 65 14t72 5l35 -3l39 -11q15 -3 30 -13q7 -2 17 -6.5t19 -10.5l28 -17l25 -18l12 -9l10 -11
q7 4 12 11l13 9q19 15 37.5 26.5t47 25.5t57 20.5t58.5 6.5z" />
    <glyph glyph-name="m" unicode="m" 
d="M357 1166q16 -6 28 -25q11 -13 15 -33l6 -27v-25q0 -42 -28.5 -75t-70.5 -33h-4h-4q-71 0 -102 38q-35 37 -35 96v9l2 6v8v5q12 105 109 199q23 23 46.5 40.5t51 33.5t54.5 26t57 17l36 8l35 2q163 0 278 -128t115 -304v-652q0 -173 -114 -302t-279 -129q-161 0 -278 126
t-117 305t117 306.5t278 127.5q53 0 105 -13q48 -15 92 -40v433q0 85 -59.5 149t-137.5 64q-81 0 -138.5 -62.5t-57.5 -150.5zM750 190v324q0 89 -59 154t-138 65q-81 0 -138.5 -63.5t-57.5 -153.5v-326q0 -88 57 -152t139 -64q79 0 138 63.5t59 152.5z" />
    <glyph glyph-name="n" unicode="n" 
d="M355 1278v-543q18 12 42.5 23t47.5 19q28 7 53 10.5t51 3.5h21l18 -2q36 0 69 -9q32 -5 74 -22q66 -20 113 -72.5t71 -125.5q21 -67 29 -147l2 -30v-27q0 -96 -21 -180.5t-79 -146.5q-40 -40 -102 -68q-28 -13 -56 -21t-67 -16l-35 -1l-37 -2h-8h-8q-40 0 -76 6t-76 21
q-75 20 -127 81q-38 41 -61 107q-10 30 -18 63t-13 68l-4 46l-2 43v758q0 64 27.5 118t70.5 99q34 37 87 63.5t112 37.5l49 6l47 2h31h18q11 -3 16 -4l37 -5l17 -7l18 -5l13 -6l18 -9l16 -1q12 -4 19 -5t16 -1q15 0 21 3h18l51 11l45 13l25 10q11 2 18 6q0 -14 -8 -29
q-6 -18 -22 -39l-23 -27l-26 -24l-13 -10l-12 -5q-27 -16 -51 -24l-43 -4q-34 0 -60 4t-53 15q-51 15 -86 34l-65 39q-14 8 -29.5 12t-28.5 4q-35 0 -53 -33.5t-18 -74.5zM355 139q0 -81 57.5 -121.5t136.5 -40.5q85 0 142 40t57 122v433q0 83 -57 123t-142 40
q-79 0 -136.5 -40t-57.5 -123v-433z" />
    <glyph glyph-name="o" unicode="o" horiz-adv-x="1512" 
d="M500 32q0 -43 -25 -71q-12 -12 -25.5 -19.5t-31.5 -14.5l-20 -3l-21 -1h-8l-8 1q-15 3 -29.5 9.5t-29.5 18t-24 20.5l-22 23l-14 18l-12 19l-4 7l-7 10q-13 21 -21.5 40.5t-22.5 58.5q-9 30 -14 81.5t-5 128.5q0 157 30.5 221.5t67.5 103.5l4 4l2 3q40 35 112 67
q35 15 82 23.5t97 8.5q56 0 95.5 -5t75.5 -15q64 -18 102 -62q34 42 97 62q30 9 76 14.5t97 5.5l45 -3q35 0 94 -18l32 -10q15 -5 28 -12q28 -14 49 -39l12 -13l12 -13q45 -60 59.5 -129t14.5 -194q0 -191 -91.5 -313t-205.5 -122l14 17l31 28l4 4l2 2l11 16l16 32l8 27
l6 34l6 29v27v431q0 66 -51 117q-56 48 -121 48q-64 0 -118 -41.5t-54 -123.5v-324h-149v324q0 28 -15 60q-4 9 -6 12q-6 7 -9 11l-19 28q-7 7 -13 11q-16 11 -40 21q-34 16 -78 22h-9h-8h-4h-6q-38 0 -82 -19q-38 -13 -57 -35q-10 -13 -17.5 -24t-15.5 -27q-14 -28 -14 -60
v-327q0 -55 4 -68q3 -17 12 -29l4 -3l2 -4h21l20 -4q28 -7 56 -35q26 -24 26 -68z" />
    <glyph glyph-name="p" unicode="p" 
d="M750 570q0 95 -27 128q-26 29 -61 35h-4h-6h-101v53h101q26 0 44 5t31 15q23 20 23 61v134q0 69 -33 96q-34 23 -88 42l-92 29q-24 6 -50.5 19t-58.5 32q-11 7 -22.5 17.5t-19.5 23.5q-15 24 -23 57l-2 16l-2 17q0 36 16.5 61t52.5 25q0 -61 24 -88q21 -24 100 -47
q70 -18 141 -46.5t130 -61.5q123 -69 123 -192v-21l-5 -32q-2 -15 -6 -27t-6 -19t-9 -19l-26 -39q-7 -9 -14.5 -16.5t-19.5 -16.5q-38 -33 -110 -53q88 -35 142 -98t54 -144v-164q0 -98 -23.5 -183t-72.5 -140q-34 -37 -83.5 -60t-104.5 -37l-56 -8l-53 -3h-24l-27 3l-25 1
l-26 10q-29 6 -52 13.5t-50 21.5q-49 23 -91 59l-2 5h-4q-11 10 -25.5 29.5t-27.5 41.5q-25 41 -37 95l-2 23l-2 22v22l2 20q6 46 35 83t110 37q52 0 75.5 -31.5t23.5 -73.5v-6v-9q0 -27 -17 -58q-11 -26 -32 -41v-53q0 -73 57 -115q15 -12 28 -19.5t32 -16.5
q14 -5 27.5 -8.5t35.5 -3.5h8h4h4q37 0 70.5 10t65.5 32q63 44 63 123v433z" />
    <glyph glyph-name="q" unicode="q" horiz-adv-x="989" 
d="M400 -71q-8 -7 -16 -18q-3 -5 -12 -18q-9 -16 -14 -47.5t-5 -73.5v-269l6 -28q3 -30 30 -66l7 -6l4 -6q20 -20 57 -37l40 -12q23 -5 40 -5h6h4q44 0 88 15q22 8 36.5 16.5t25.5 22.5l17 19q5 4 14 17.5t14 30.5l4 18v23v1074q0 60 -39 101q-40 37 -86 53l-25 6h-22
l-25 -2l-24 -4q-43 -13 -86 -52q-39 -41 -39 -102v-56q14 -14 19 -20q12 -15 17 -22q15 -26 15 -65q0 -38 -21 -76q-23 -32 -77 -32q-66 0 -97 34q-26 34 -41 82q-8 34 -8 57l-2 42v9v4q0 40 11 79t63 97q24 30 61 48q7 4 16.5 7.5t16.5 6.5l42 11l38 9l33 2h61
q26 0 54.5 -4t56.5 -13q52 -17 88 -40v541l-99 -53v81l101 52l20 14l23 17l12 12l8 8l19 17l14 14h98v-1724q0 -75 -12 -157t-86 -164l-2 -2l-4 -5q-37 -36 -110.5 -70t-180.5 -34q-101 0 -172 32q-20 8 -33.5 14.5t-28.5 16.5q-13 7 -31 20l-18 13l-6 8l-6 5q-35 38 -65 96
q-31 53 -31 175q0 18 6 48l5 28l9 25l23 45q13 25 29 43l10 12l10 9q32 26 70 43q21 5 38.5 7.5t43.5 2.5z" />
    <glyph glyph-name="r" unicode="r" horiz-adv-x="1516" 
d="M256 639l23 25l33 32q42 34 103 62t136 28q111 0 173 -19.5t102 -65.5q32 39 102 65q29 9 77 14q44 6 101 6l43 -2q11 0 25 -3t24 -4.5t20.5 -5.5t24.5 -11q13 -2 19 -4.5t10 -3.5q17 -7 26 -13q5 -2 12.5 -7.5t12.5 -9.5q11 -8 23 -21l12 -15l10 -13q22 -28 37.5 -59
t24.5 -67q14 -76 14 -200q0 -190 -92 -304q-46 -59 -98 -92q-52 -30 -105 -30h-6l16 11l33 29l4 2l2 2l11 16l16 32q9 26 16 61l4 31l2 27v434q0 66 -56.5 116.5t-121.5 50.5q-59 0 -115.5 -41t-56.5 -122v-325h-149v325q0 29 -15 56q-7 15 -14 25.5t-18 21.5l-4 6
q-5 4 -7 6q-18 14 -51 27l-29 10l-36 9l-11 2h-12q-43 0 -79 -16q-37 -14 -58 -32l-4 -6l-6 -6q-8 -9 -12 -15t-13 -21l-20 -46l-2 -16l-2 -18v-312q0 -52 6 -72q3 -20 14 -32l4 -2l21 -2l20 -6q30 -8 56 -36t26 -73q0 -43 -25 -67l-27 -19l-30 -12l-20 -1l-21 -2h-8l-8 2
q-28 3 -60 27q-15 10 -28 21q-7 6 -23 22l-10 15l-10 14l-4 10l-7 7q-23 41 -44 100q-19 63 -19 208v62v50v52l4 74q4 49 18 105l15 49l15 40l19 39l27 49l10 18l11 14l18 27l21 22q12 13 32 27.5t45.5 29t62.5 32.5l95 45l299 135l86 37l68 24l28 14l29 11l41 20.5t44 27.5
q44 29 101 83q-54 -169 -126 -254.5t-146 -126.5l-63 -29l-62 -25l-297 -108q-15 -3 -33 -11l-28 -11l-53 -22q-27 -12 -45 -21q-10 -5 -41.5 -23.5t-53.5 -44.5q-43 -45 -43 -115v-4z" />
    <glyph glyph-name="s" unicode="s" horiz-adv-x="996" 
d="M854 791q-33 -33 -45 -68l-12 -33l-4 -31q0 -46 24 -93l26 -49l28 -45l24 -37l23 -40l12 -24l10 -26q8 -29 8 -53q0 -90 -10 -131q-8 -39 -37 -78l-8 -12l-12 -14l-27 -28q-38 -41 -100 -68q-28 -13 -56 -21t-69 -16l-37 -1l-37 -2l-35 2l-36 1q-36 7 -65 14.5t-60 21.5
q-57 23 -101 69q-19 20 -33.5 44t-27.5 59q-20 62 -31 132l-4 46l-2 46v1006l-100 -29v41l174 58l28 6l23 2h4q36 0 51 -29q13 -41 13 -90v-1189q0 -74 54 -112q50 -35 124 -46h12h12l31 3l29 5q65 17 120 67q56 45 56 120q0 20 -1.5 29.5t-6.5 30.5q-9 27 -33 63l-22 38
l-21 43l-18 38l-16 48q-7 21 -13 64q-6 32 -6 63q0 87 47 146t153 59z" />
    <glyph glyph-name="t" unicode="t" horiz-adv-x="1192" 
d="M647 -18q48 0 74 22q12 12 18.5 26t6.5 32v52q0 14 9 23q6 5 21 9q4 0 10 -2t13 -5q8 -10 8 -25v-52v-5v-5q-6 -47 -52 -87q-48 -38 -108 -38q-106 0 -163 64q-28 32 -42 68t-14 82q0 88 39 142q19 25 48 43.5t73 31.5q-82 20 -121 56.5t-39 157.5q0 112 64 163
q29 20 67 38q18 5 36 9t36 4h8h8q43 0 77.5 -10t68.5 -35q63 -47 63 -169v-30v-21q-2 -13 -2 -18q0 -26 -8 -50q-10 -39 -72 -74l-22 -8l-27 -13q237 -51 324.5 -173t87.5 -360v-46l-4 -27q-3 -24 -7 -34l-10 -40q-39 -147 -157 -269.5t-312 -122.5q-219 0 -325.5 113
t-143.5 252l-8 42l-6 48q-6 42 -6 84l3 133q0 27 2.5 51t8.5 58q15 102 97 181q9 11 22 22q5 5 26 22l44 36q20 14 37 22t30 8l-4 -8l-6 -8q-47 -66 -56 -141q0 -28 -3.5 -86t-3.5 -79v-430q0 -106 55 -162q25 -26 56 -47.5t63 -32.5q17 -8 29 -11.5t34 -7.5l55 -5
q18 0 58 10l18 4t16 5l29 13q67 28 120.5 85t53.5 138v441q0 99 -46 158t-101 91q-20 12 -50 23q-7 3 -21.5 7t-26.5 8l-50 7q-19 -8 -30.5 -14.5t-24.5 -17.5q-7 -6 -16.5 -18.5l-12.5 -16.5q-7 -16 -10 -34l-2 -34v-105q0 -57 29.5 -82.5t66.5 -25.5zM647 733
q-48 0 -72 -25q-24 -23 -24 -82v-108q0 -65 22.5 -100t73.5 -35q54 0 76.5 34.5t22.5 100.5v108q0 49 -18.5 78t-80.5 29z" />
    <glyph glyph-name="u" unicode="u" horiz-adv-x="1190" 
d="M598 -73q-16 -16 -29 -37q-5 -11 -7 -15t-7 -25l-4 -38l-2 -40v-271l6 -31q4 -28 37 -67l4 -2l2 -4q20 -20 61.5 -37t84.5 -17h6h4q26 0 50 6l30 11q41 16 57 37l33 40l7 14l7 15l2 16v21v1067q0 83 -20 122q-24 41 -78 41q-43 0 -62 -29.5t-30 -73.5l-4 -30l-2 -30v-212
h-146v212q0 100 -18 133q-18 30 -55 30q-18 0 -50 -26l-67 -56l-35 -27l-17 -12l-19 -12l-21 -12l-21 -9q-9 -3 -20.5 -6t-18.5 -3q-42 0 -63 18q-18 20 -29 49l-4 29l-2 26q0 37 18 65.5t56 28.5q26 0 43.5 -17.5t17.5 -50.5q0 -22 -18.5 -37.5t-38.5 -19.5h-6l-13 2l-10 1
q0 -16 12 -27q10 -13 37 -13q35 0 66 25q18 13 31 24q5 4 30 28l4 2l2 2l24 22q22 19 42 33q34 26 70 26h24l21 -2q15 0 43 -14q8 -3 24 -14l33 -23l25 15l24 10q13 6 34 13t52 13l62 2q158 0 213 -90q26 -44 40.5 -103t14.5 -128v-750q0 -77 -12 -157t-86 -161
q-35 -38 -109 -74q-33 -15 -83 -26q-18 -3 -42 -6t-59 -3q-104 0 -176.5 32.5t-110.5 67.5l-2 3l-4 4q-35 37 -66 94q-15 26 -23.5 72t-8.5 102q0 20 6 46q2 17 4 24.5t10 27.5l8 23l15 24q10 21 30 42l6 7l4 5q35 34 72 50q39 15 90 15z" />
    <glyph glyph-name="v" unicode="v" 
d="M946 -286q0 -107 -28 -187t-76.5 -135t-126.5 -81.5t-158 -26.5q-93 0 -174 29q-85 26 -132 82q-49 53 -72 123q-11 33 -17 69t-6 76q0 20 6 51.5t21 64.5q24 56 76 102t141 46l-9 -4l-10 -11q-11 -14 -18 -34q-10 -25 -10 -51v-331q0 -75 62 -116q32 -20 64 -30t70 -10
h4q72 0 134 39q61 43 61 120v537q0 46 -18 67t-46 32l-18 6h-19h-100v57h100l19 2l18 2q25 6 44.5 29.5t19.5 78.5v258q0 82 -57 123.5t-119 41.5q-60 0 -116 -40.5t-56 -120.5v-107q25 -16 38 -36q5 -9 7.5 -17t3.5 -19q0 -28 -19 -48q-11 -12 -19.5 -18.5t-21.5 -11.5
l-20 -10l-19 -3h-26l-21 3l-8 3l-10 7l-33 13q-7 4 -11 7q-8 7 -13 21q-9 13 -16 39.5t-7 46.5l-2 23q0 150 97.5 237t246.5 87q98 0 172 -21.5t124 -64.5q99 -87 99 -238q0 -123 -46 -198t-150 -97q75 -15 129 -78q50 -58 67 -129l4 -20v-22v-207z" />
    <glyph glyph-name="w" unicode="w" horiz-adv-x="1192" 
d="M844 1004q53 39 78 80q10 21 15 40t5 42v108q0 49 -34 80q-18 14 -36 21t-40 7h-13l-12 -3q-18 -5 -32 -12.5t-28 -22.5q-26 -26 -26 -70v-270h-147v270q0 38 -33 74q-36 34 -88 34q-44 0 -75 -29q-30 -24 -30 -82l2 -24l5 -28l98 -482h538l-368 -1451h-49l-416 1828v105
q0 13 6 39l6 28l8 20l25 40q8 14 16 22l13 14q46 38 90 44l72 8l59 2q71 0 116 -21q44 -18 78 -61l38 36q8 7 17 12t25 13q45 21 105 21l57 -2q24 0 31 -2q7 0 41 -8l55 -16q24 -9 49 -26l31 -28l20 -25q15 -25 19 -51l2 -59q0 -77 -67.5 -146t-225.5 -69zM465 669l195 -954
l196 954h-391z" />
    <glyph glyph-name="x" unicode="x" horiz-adv-x="998" 
d="M654 773q141 -40 219 -146t78 -271q0 -182 -115.5 -308.5t-278.5 -126.5t-280 126t-117 309v1000l-98 -25v53l198 56q49 0 72 -30t27 -66v-4v-9v-598q41 29 96 42.5t102 13.5l97 216h98zM359 190q0 -91 59 -153q57 -65 139 -65q81 0 139 64t58 154v328q0 87 -57 153
q-60 62 -140 62t-139 -64t-59 -153v-326z" />
    <glyph glyph-name="y" unicode="y" 
d="M748 789h198v-1080q0 -54 -6 -100t-20 -86q-27 -86 -76 -136q-47 -52 -119 -78q-34 -12 -75.5 -20.5t-75.5 -8.5h-6h-9q-49 0 -90 6.5t-85 21.5q-81 27 -131 80.5t-73.5 122.5t-23.5 148q0 20 6 51t21 64q25 59 77.5 104.5t141.5 45.5l-9 -3l-8 -7l-20 -37
q-10 -27 -10 -58v-325q0 -80 62 -120q32 -20 64 -30t70 -10q74 0 135.5 39.5t61.5 122.5v696l-25 -10l-24 -9q-51 -18 -88 -24l-58 -8l-47 -2h-12q-76 0 -139.5 24.5t-110.5 71.5q-57 59 -72 105l-11 47l-5 46v17v13q0 124 67.5 225t178.5 101l-6 -10q-6 -4 -17 -24
q-9 -12 -16 -35l-6 -19l-2 -20v-322q0 -34 11 -62q5 -12 15 -25t21 -24l8 -3l8 -10q8 -5 24.5 -14.5t31.5 -15t23 -7.5q22 -6 44 -6h6q16 0 33.5 3.5t36.5 10.5t31 13l28 16l12 10l11 3l4 5l4 2q8 7 14.5 15t13.5 23q13 28 13 63v433z" />
    <glyph glyph-name="z" unicode="z" horiz-adv-x="996" 
d="M504 950v-55q-168 0 -257 61.5t-89 182.5q0 128 69 193t150 90q2 1 26 6t42 8l59 2l47 -2q16 0 21 -2q9 0 26 -8q47 -10 90 -31t83 -56q79 -70 79 -200v-31v-25l-2 -21q-3 -32 -18 -65q-21 -45 -76 -91q-50 -43 -176 -120l55 -2l28 -6q17 -2 29 -8q25 -6 46 -14t42 -20
q45 -25 72 -57l12 -13l9 -10q30 -38 55 -81q22 -42 22 -112v-218q0 -57 -18 -101q-18 -40 -45 -75l-16 -22l-19 -20q-51 -56 -134 -84q-76 -22 -163 -22l-37 2l-41 1q-37 7 -63.5 14.5t-54.5 21.5q-59 21 -101 67l-2 5l-4 2q-13 15 -30.5 39l-32.5 46q-29 47 -29 126v218
q0 71 27 116q14 27 26.5 45t32.5 39l8 8l8 10q20 20 53 41q32 17 76 36l27 12l11 5q10 2 16 6q74 34 141.5 85t67.5 138v246q0 70 -39 102q-37 24 -88 32h-11h-10h-8h-12q-11 0 -22 -2.5t-22 -7.5q-12 -3 -22 -8.5t-20 -13.5q-41 -30 -41 -102v-166q0 -55 27 -96
q29 -38 120 -38zM553 733l-39 -2q-12 -2 -24.5 -6t-26.5 -11q-20 -7 -38 -18.5t-35 -30.5q-33 -32 -33 -95v-433q0 -59 31 -94q31 -32 75 -52q20 -9 51 -14l39 -5h22l23 7l20 3q14 2 27 9q21 7 38 19t36 33q33 33 33 94v433q0 59 -33 94q-36 35 -74 50l-28 9l-23 8z" />
    <glyph glyph-name="braceleft" unicode="{" horiz-adv-x="614" 
d="M161 691v38q68 8 120 51.5t52 126.5l-3 66l-11 63l-12 67l-5 31l-1 33q0 120 87.5 220t196.5 100v-31q-36 0 -66 -18q-17 -9 -31.5 -20.5t-28.5 -28.5q-52 -58 -52 -142l3 -65l6 -39l6 -27l3 -8v-10l9 -53l4 -26l1 -25q0 -108 -62.5 -181.5t-152.5 -101.5
q91 -31 153 -105t62 -180v-24q-3 -18 -4 -27l-10 -53v-6l-3 -11l-11 -61q-4 -32 -4 -70q0 -82 53.5 -141t124.5 -68v-32q-57 0 -104 26q-50 24 -93 76q-87 98 -87 221v15l1 16l5 31q0 15 6 33l6 34l5 20l3 21l5 45l1 41q0 80 -51.5 124.5t-120.5 54.5z" />
    <glyph glyph-name="bar" unicode="|" horiz-adv-x="418" 
d="M254 1309v-1343h-98v1343h98z" />
    <glyph glyph-name="braceright" unicode="}" horiz-adv-x="614" 
d="M585 729v-38q-64 -7 -117.5 -52t-53.5 -127q0 -12 0.5 -22.5t4.5 -41.5l8 -63l16 -65q1 -7 2 -24t1 -40q0 -123 -86.5 -223t-198.5 -100v30q73 10 127 69q24 29 40 68q13 37 13 74v42l-3 28q-3 20 -5.5 33t-7.5 25l-1 12l-2 8l-9 53q-4 23 -4 51q0 107 61 180t152 103
q-45 16 -82 41t-70 63q-61 75 -61 181v20.5t4 30.5l9 53l2 9l1 7q3 11 7 34l6 34l3 65q0 84 -52 143t-128 66v31q109 0 197 -99t88 -221v-12v-20l-5 -32l-5 -33l-9 -34l-2 -21l-5 -21l-4 -43l-2 -44q0 -79 52.5 -124t118.5 -54z" />
    <glyph glyph-name="asciitilde" unicode="~" horiz-adv-x="887" 
d="M324 1444v-51l-8 -4l-9 -7l-53 -41q-13 -10 -25 -21q-16 -16 -24 -23q-47 -49 -47 -129v-11l2 -14q0 -8 4 -17l6 -12q8 -14 25 -14q8 0 16 5l17 5l20 8l16 1q42 0 74 -35q16 -17 23.5 -36t7.5 -44q0 -62 -41 -94.5t-94 -32.5q-35 0 -63.5 14t-51.5 45q-19 25 -34 59.5
t-19 71.5l-2 14v12q0 128 77.5 222.5t182.5 128.5zM801 1444v-51l-8 -4l-8 -7l-54 -42t-50 -45t-34.5 -54.5t-11.5 -72.5v-11l2 -14q0 -13 9.5 -28t25.5 -15q8 0 16 5l17 5l20 8l17 1q42 0 73 -35q16 -17 23.5 -36t7.5 -44q0 -64 -41 -95.5t-94 -31.5q-35 0 -63.5 14
t-51.5 45q-19 25 -34 59.5t-19 71.5l-2 14v12q0 127 77 222t183 129z" />
    </font>
</defs>
</svg>
