<?xml version="1.0" standalone="no"?>
<!DOCTYPE svg PUBLIC "-//W3C//DTD SVG 1.1//EN" "http://www.w3.org/Graphics/SVG/1.1/DTD/svg11.dtd" >
<svg>
<metadata>
Created by FontForge 20090622 at Sat Feb 17 02:52:53 2018
 By deploy user
Copyright (c) BPG-InfoTech, 2005. All rights reserved.
</metadata>
<defs>
<font id="BPGRioniVera" horiz-adv-x="500" >
  <font-face 
    font-family="BPG Rioni Vera"
    font-weight="400"
    font-stretch="normal"
    units-per-em="1000"
    panose-1="2 11 6 3 3 8 4 2 2 4"
    ascent="760"
    descent="-240"
    x-height="547"
    cap-height="729"
    bbox="-183 -236 1287 928"
    underline-thickness="70"
    underline-position="-69"
    unicode-range="U+0020-U+FB02"
  />
<missing-glyph horiz-adv-x="600" 
d="M50 -177h500v882h-500v-882zM106 -121v770h388v-770h-388z" />
    <glyph glyph-name=".notdef" horiz-adv-x="600" 
d="M50 -177h500v882h-500v-882zM106 -121v770h388v-770h-388z" />
    <glyph glyph-name=".null" horiz-adv-x="0" 
 />
    <glyph glyph-name="nonmarkingreturn" horiz-adv-x="333" 
 />
    <glyph glyph-name="space" unicode=" " horiz-adv-x="318" 
 />
    <glyph glyph-name="exclam" unicode="!" horiz-adv-x="401" 
d="M151 124v-124h99v124h-99zM151 729v-320l10 -174h79l10 174v320h-99z" />
    <glyph glyph-name="quotedbl" unicode="&#x22;" horiz-adv-x="460" 
d="M179 729h-83v-271h83v271zM364 729h-83v-271h83v271z" />
    <glyph glyph-name="numbersign" unicode="#" horiz-adv-x="838" 
d="M511 440l-40 -163h-143l41 163h142zM438 718h-79l-50 -203h-176v-75h157l-41 -163h-172v-75h154l-51 -202h79l50 202h143l-50 -202h78l51 202h174v75h-155l40 163h171v75h-152l50 203h-78l-51 -203h-143z" />
    <glyph glyph-name="dollar" unicode="$" horiz-adv-x="636" 
d="M338 -147v148q104 7 159.5 55t55.5 130q0 76 -52 120t-163 61v209q88 -4 171 -45v85q-93 29 -171 30v114h-49v-115q-100 -7 -153 -53t-53 -125q0 -73 49 -115t157 -60v-223q-104 1 -206 64v-88q104 -44 206 -45v-147h49zM289 376q-61 10 -88.5 33.5t-27.5 65.5
q0 43 29.5 69t86.5 32v-200zM338 282q65 -11 95 -36.5t30 -68.5q0 -89 -125 -106v211z" />
    <glyph glyph-name="percent" unicode="%" horiz-adv-x="950" 
d="M727 321q42 0 66 -36.5t24 -100.5q0 -63 -24 -99.5t-66 -36.5t-66.5 36.5t-24.5 99.5q0 65 24.5 101t66.5 36zM727 383q-78 0 -123.5 -53.5t-45.5 -145.5q0 -91 45.5 -144.5t123.5 -53.5q77 0 122.5 53.5t45.5 144.5t-45.5 145t-122.5 54zM223 680q42 0 66.5 -36.5
t24.5 -99.5q0 -65 -24 -101t-67 -36q-42 0 -66 36t-24 101q0 63 24 99.5t66 36.5zM664 742l-456 -756h78l456 756h-78zM223 742q-77 0 -122.5 -53.5t-45.5 -144.5q0 -92 45.5 -145.5t122.5 -53.5q78 0 123.5 53.5t45.5 145.5q0 91 -46 144.5t-123 53.5z" />
    <glyph glyph-name="ampersand" unicode="&#x26;" horiz-adv-x="780" 
d="M243 392l259 -265q-73 -62 -163 -62q-77 0 -130 47q-52 48 -52 119q0 85 86 161zM312 447q-43 45 -58 70t-15 51q0 43 32 70t83 27q67 0 153 -47v89q-82 35 -163 35q-90 0 -144 -48t-54 -127q0 -60 48 -121q-131 -97 -131 -221q0 -104 74 -172q74 -67 193 -67
q127 0 226 86l70 -72h123l-136 139q90 125 102 252h-91q-6 -113 -64 -198z" />
    <glyph glyph-name="quotesingle" unicode="'" horiz-adv-x="275" 
d="M179 729h-83v-271h83v271z" />
    <glyph glyph-name="parenleft" unicode="(" horiz-adv-x="390" 
d="M310 759h-78q-146 -226 -146 -445q0 -216 146 -446h78q-129 221 -129 446q0 221 129 445z" />
    <glyph glyph-name="parenright" unicode=")" horiz-adv-x="390" 
d="M80 759q129 -224 129 -445q0 -225 -129 -446h78q146 230 146 446q0 215 -146 445h-78z" />
    <glyph glyph-name="asterisk" unicode="*" 
d="M470 609l-28 48l-164 -99v184h-56v-184l-164 99l-28 -48l175 -95l-175 -95l28 -48l164 99v-184h56v184l164 -99l28 48l-175 95z" />
    <glyph glyph-name="plus" unicode="+" horiz-adv-x="838" 
d="M460 627h-82v-272h-272v-83h272v-272h82v272h272v83h-272v272z" />
    <glyph glyph-name="comma" unicode="," horiz-adv-x="318" 
d="M117 124v-84l-40 -156h63l80 156v84h-103z" />
    <glyph glyph-name="hyphen" unicode="-" horiz-adv-x="361" 
d="M49 314v-80h263v80h-263z" />
    <glyph glyph-name="period" unicode="." horiz-adv-x="318" 
d="M107 124v-124h103v124h-103z" />
    <glyph glyph-name="slash" unicode="/" horiz-adv-x="337" 
d="M254 729l-254 -822h83l254 822h-83z" />
    <glyph glyph-name="zero" unicode="0" horiz-adv-x="636" 
d="M318 664q153 0 153 -300t-153 -300t-153 300t153 300zM318 742q-123 0 -187.5 -97t-64.5 -281t64.5 -281t187.5 -97q122 0 187 97t65 281t-65 281t-187 97z" />
    <glyph glyph-name="one" unicode="1" horiz-adv-x="636" 
d="M124 83v-83h420v83h-161v646h-99l-174 -35v-90l175 35v-556h-161z" />
    <glyph glyph-name="two" unicode="2" horiz-adv-x="636" 
d="M192 83q247 253 262 271q44 54 61 94t17 86q0 95 -68 151q-68 57 -180 57q-86 0 -206 -48v-100q117 65 208 65q66 0 106.5 -36.5t40.5 -94.5q0 -37 -19 -74t-66 -89q-34 -38 -122 -126l-153 -156v-83h463v83h-344z" />
    <glyph glyph-name="three" unicode="3" horiz-adv-x="636" 
d="M406 393q64 16 98.5 58t34.5 102q0 87 -65.5 138t-177.5 51q-87 0 -198 -31v-88q108 36 189 36q74 0 114 -30t40 -86q0 -55 -38.5 -84t-111.5 -29h-89v-81h85q81 0 126 -36.5t45 -100.5q0 -70 -48.5 -106.5t-141.5 -36.5q-109 0 -192 48v-95q104 -36 195 -36
q137 0 211 59t74 167q0 70 -39.5 118t-110.5 63z" />
    <glyph glyph-name="four" unicode="4" horiz-adv-x="636" 
d="M378 643v-389h-249zM352 729l-303 -462v-95h329v-172h98v172h104v82h-104v475h-124z" />
    <glyph glyph-name="five" unicode="5" horiz-adv-x="636" 
d="M108 729v-366q82 36 159 36q85 0 134 -44.5t49 -120.5t-49 -120.5t-134 -44.5q-103 0 -190 47v-99q100 -31 192 -31q133 0 206.5 65t73.5 183q0 114 -72 181q-70 67 -193 67q-46 0 -86 -15v179h297v83h-387z" />
    <glyph glyph-name="six" unicode="6" horiz-adv-x="636" 
d="M330 404q66 0 105 -45.5t39 -124.5t-39 -124.5t-105 -45.5t-105 45.5t-39 124.5t39 124.5t105 45.5zM526 713q-80 29 -154 29q-138 0 -220 -103q-82 -101 -82 -275q0 -184 67 -281t193 -97q110 0 176 68q67 67 67 180q0 115 -63.5 181.5t-173.5 66.5q-108 0 -168 -88
q13 265 208 265q76 0 150 -36v90z" />
    <glyph glyph-name="seven" unicode="7" horiz-adv-x="636" 
d="M82 729v-83h350l-249 -646h103l265 687v42h-469z" />
    <glyph glyph-name="eight" unicode="8" horiz-adv-x="636" 
d="M318 346q71 0 111 -37.5t40 -103.5q0 -65 -40.5 -103t-110.5 -38t-110.5 37.5t-40.5 103.5t40.5 103.5t110.5 37.5zM219 388q-71 -16 -111 -64.5t-40 -118.5q0 -106 64.5 -162.5t185.5 -56.5q120 0 185 56.5t65 162.5q0 70 -40 118.5t-111 64.5q63 16 98.5 59.5
t35.5 105.5q0 88 -62 138.5t-171 50.5t-171 -50.5t-62 -138.5q0 -62 35.5 -105.5t98.5 -59.5zM183 544q0 57 35.5 88.5t99.5 31.5q63 0 99 -31.5t36 -88.5t-36 -88.5t-99 -31.5q-64 0 -99.5 31.5t-35.5 88.5z" />
    <glyph glyph-name="nine" unicode="9" horiz-adv-x="636" 
d="M110 15q80 -29 154 -29q138 0 220 102q82 103 82 276q0 184 -66.5 281t-193.5 97q-109 0 -177 -68q-66 -68 -66 -180q0 -115 63.5 -181t173.5 -66q107 0 168 87q-16 -265 -208 -265q-76 0 -150 36v-90zM306 324q-66 0 -105 45.5t-39 124.5t39 124.5t105 45.5
q67 0 105.5 -45.5t38.5 -124.5t-38.5 -124.5t-105.5 -45.5z" />
    <glyph glyph-name="colon" unicode=":" horiz-adv-x="337" 
d="M117 124v-124h103v124h-103zM117 517v-124h103v124h-103z" />
    <glyph glyph-name="semicolon" unicode=";" horiz-adv-x="337" 
d="M117 517v-124h103v124h-103zM117 124v-84l-40 -156h63l80 156v84h-103z" />
    <glyph glyph-name="less" unicode="&#x3c;" horiz-adv-x="838" 
d="M732 492v89l-626 -227v-81l626 -227v89l-504 178z" />
    <glyph glyph-name="equal" unicode="=" horiz-adv-x="838" 
d="M106 454v-82h626v82h-626zM106 255v-83h626v83h-626z" />
    <glyph glyph-name="greater" unicode="&#x3e;" horiz-adv-x="838" 
d="M106 492l503 -179l-503 -178v-89l626 227v81l-626 227v-89z" />
    <glyph glyph-name="question" unicode="?" horiz-adv-x="531" 
d="M191 124v-124h99v124h-99zM287 196v60q0 46 6 65q7 22 46 61l43 42q43 41 61 74.5t18 71.5q0 78 -55 124q-54 48 -144 48q-99 0 -190 -55v-92q96 67 173 67q53 0 85 -27t32 -70q0 -46 -53 -96l-44 -43q-45 -43 -58 -74q-13 -30 -13 -81v-75h93z" />
    <glyph glyph-name="at" unicode="@" horiz-adv-x="1000" 
d="M372 262q0 69 35 109t94 40q60 0 95 -40t35 -109t-34.5 -109t-94.5 -40q-61 0 -95.5 39.5t-34.5 109.5zM638 116v-75q137 3 214.5 77t77.5 203q0 122 -75 220q-60 78 -148.5 120.5t-192.5 42.5q-190 0 -320 -128q-128 -125 -128 -311q0 -191 128 -314q128 -125 313 -125
q155 0 279 98l-44 54q-105 -82 -235 -82q-159 0 -263 104q-109 106 -109 265q0 94 43 175t120 131q97 63 217 63q177 0 283 -132q62 -79 62 -183q0 -87 -40 -141t-112 -65v359h-70v-64q-59 74 -155 74q-85 0 -137 -61t-52 -159q0 -97 52 -158t137 -61q97 0 155 73z" />
    <glyph glyph-name="A" unicode="A" horiz-adv-x="684" 
d="M342 632l134 -363h-268zM286 729l-278 -729h104l66 187h329l66 -187h103l-278 729h-112z" />
    <glyph glyph-name="B" unicode="B" horiz-adv-x="686" 
d="M197 348h158q80 0 118 -32.5t38 -100.5t-38 -101t-118 -33h-158v267zM197 648h146q143 0 143 -110t-143 -110h-146v220zM98 729v-729h262q122 0 188.5 53t66.5 151q0 74 -40 123.5t-113 65.5q123 20 123 156q0 86 -61 133t-174 47h-252z" />
    <glyph glyph-name="C" unicode="C" horiz-adv-x="698" 
d="M644 673q-100 69 -232 69q-165 0 -261 -101q-95 -101 -95 -277t95 -277q96 -101 261 -101q129 0 232 70v103q-101 -92 -226 -92t-191.5 76.5t-66.5 220.5t66.5 220.5t191.5 76.5t226 -92v104z" />
    <glyph glyph-name="D" unicode="D" horiz-adv-x="770" 
d="M197 648h119q151 0 221 -68t70 -215t-70 -215.5t-221 -68.5h-119v567zM98 729v-729h203q211 0 310.5 88.5t99.5 276.5t-99 276t-311 88h-203z" />
    <glyph glyph-name="E" unicode="E" horiz-adv-x="632" 
d="M98 729v-729h470v83h-371v264h347v83h-347v216h362v83h-461z" />
    <glyph glyph-name="F" unicode="F" horiz-adv-x="575" 
d="M98 729v-729h99v348h289v83h-289v215h320v83h-419z" />
    <glyph glyph-name="G" unicode="G" horiz-adv-x="775" 
d="M595 104q-65 -37 -167 -37q-268 0 -268 297t268 297q135 0 246 -93v105q-110 69 -254 69q-171 0 -268 -100q-96 -100 -96 -278q0 -177 96 -278q97 -100 268 -100q160 0 273 82v313h-259v-81h161v-196z" />
    <glyph glyph-name="H" unicode="H" horiz-adv-x="752" 
d="M98 729v-729h99v347h358v-347h99v729h-99v-299h-358v299h-99z" />
    <glyph glyph-name="I" unicode="I" horiz-adv-x="295" 
d="M98 729v-729h99v729h-99z" />
    <glyph glyph-name="J" unicode="J" horiz-adv-x="295" 
d="M98 729v-678q0 -94 -26.5 -131t-92.5 -37h-31v-83h38q111 0 161 59.5t50 191.5v678h-99z" />
    <glyph glyph-name="K" unicode="K" horiz-adv-x="656" 
d="M98 729v-729h99v351l350 -351h130l-388 389l362 340h-127l-327 -308v308h-99z" />
    <glyph glyph-name="L" unicode="L" horiz-adv-x="557" 
d="M98 729v-729h454v83h-355v646h-99z" />
    <glyph glyph-name="M" unicode="M" horiz-adv-x="863" 
d="M98 729v-729h96v640l188 -500h99l188 500v-640h96v729h-147l-187 -496l-186 496h-147z" />
    <glyph glyph-name="N" unicode="N" horiz-adv-x="748" 
d="M98 729v-729h96v610l323 -610h133v729h-96v-610l-323 610h-133z" />
    <glyph glyph-name="O" unicode="O" horiz-adv-x="787" 
d="M394 662q107 0 170 -80t63 -218t-63 -218t-170 -80q-106 0 -171 80q-63 80 -63 218t63 218q65 80 171 80zM394 742q-155 0 -246 -103q-92 -103 -92 -275t92 -276q92 -102 246 -102t245 102q92 104 92 276t-92 275q-91 103 -245 103z" />
    <glyph glyph-name="P" unicode="P" horiz-adv-x="603" 
d="M197 648h124q69 0 106.5 -35.5t37.5 -101.5t-37.5 -101.5t-106.5 -35.5h-124v274zM98 729v-729h99v293h124q248 0 248 218q0 107 -63 162.5t-185 55.5h-223z" />
    <glyph glyph-name="Q" unicode="Q" horiz-adv-x="787" 
d="M394 662q107 0 170 -80t63 -218t-63 -218t-170 -80q-106 0 -171 80q-63 80 -63 218t63 218q65 80 171 80zM532 13q97 43 148 133.5t51 217.5q0 172 -92 275q-91 103 -245 103q-155 0 -246 -103q-92 -103 -92 -275t92 -276q92 -102 246 -102q5 0 10 0.5t14 1t17 0.5
l108 -117h119z" />
    <glyph glyph-name="R" unicode="R" horiz-adv-x="695" 
d="M444 342q61 17 93 62.5t32 114.5q0 210 -248 210h-223v-729h99v308h107q58 0 93 -24q34 -24 70 -97l93 -187h106l-100 199q-58 121 -122 143zM197 648h124q144 0 144 -129q0 -130 -144 -130h-124v259z" />
    <glyph glyph-name="S" unicode="S" horiz-adv-x="635" 
d="M535 705q-111 37 -213 37q-120 0 -188 -55.5t-68 -152.5q0 -83 49.5 -130t159.5 -69l60 -12q75 -15 108 -45t33 -84q0 -62 -46 -95t-130 -33q-110 0 -231 68v-102q123 -46 231 -46q137 0 208 54.5t71 160.5q0 89 -52.5 142t-162.5 74l-60 12q-80 15 -109.5 39.5
t-29.5 73.5q0 58 43.5 89t124.5 31q92 0 202 -53v96z" />
    <glyph glyph-name="T" unicode="T" horiz-adv-x="611" 
d="M-3 729v-83h259v-646h99v646h259v83h-617z" />
    <glyph glyph-name="U" unicode="U" horiz-adv-x="732" 
d="M87 729v-455q0 -288 279 -288t279 288v455h-99v-443q0 -117 -42.5 -168.5t-137.5 -51.5t-137.5 51.5t-42.5 168.5v443h-99z" />
    <glyph glyph-name="V" unicode="V" horiz-adv-x="684" 
d="M286 0h112l278 729h-103l-231 -614l-231 614h-103z" />
    <glyph glyph-name="W" unicode="W" horiz-adv-x="989" 
d="M33 729l183 -729h124l155 633l154 -633h124l183 729h-100l-153 -616l-153 616h-111l-153 -616l-153 616h-100z" />
    <glyph glyph-name="X" unicode="X" horiz-adv-x="685" 
d="M63 729l227 -340l-260 -389h106l207 310l205 -310h106l-250 379l234 350h-106l-182 -271l-181 271h-106z" />
    <glyph glyph-name="Y" unicode="Y" horiz-adv-x="611" 
d="M-2 729l258 -382v-347h99v347l258 382h-106l-201 -300l-202 300h-106z" />
    <glyph glyph-name="Z" unicode="Z" horiz-adv-x="685" 
d="M56 729v-83h450l-461 -571v-75h595v83h-472l461 571v75h-573z" />
    <glyph glyph-name="bracketleft" unicode="[" horiz-adv-x="390" 
d="M86 760v-892h207v70h-117v752h117v70h-207z" />
    <glyph glyph-name="backslash" unicode="\" horiz-adv-x="337" 
d="M83 729h-83l254 -822h83z" />
    <glyph glyph-name="bracketright" unicode="]" horiz-adv-x="390" 
d="M304 760h-207v-70h117v-752h-117v-70h207v892z" />
    <glyph glyph-name="asciicircum" unicode="^" horiz-adv-x="838" 
d="M467 729h-96l-265 -272h98l215 193l215 -193h98z" />
    <glyph glyph-name="underscore" unicode="_" 
d="M510 -166h-520v-70h520v70z" />
    <glyph glyph-name="grave" unicode="`" 
d="M179 800h-96l159 -183h75z" />
    <glyph glyph-name="a" unicode="a" horiz-adv-x="613" 
d="M343 275h89v-20q0 -88 -45 -141t-120 -53q-54 0 -85.5 28t-31.5 76q0 59 42 85q41 25 151 25zM522 312q0 248 -236 248q-87 0 -186 -38v-83q85 45 177 45q74 0 114.5 -34t40.5 -96v-9h-126q-246 0 -246 -186q0 -79 49.5 -126t133.5 -47q130 0 189 97v-83h90v312z" />
    <glyph glyph-name="b" unicode="b" horiz-adv-x="635" 
d="M487 273q0 -99 -41 -155.5t-112 -56.5t-112 56.5t-41 155.5t41 155.5t112 56.5t112 -56.5t41 -155.5zM181 464v296h-90v-760h90v82q55 -96 175 -96q101 0 162 79q62 80 62 208t-62 208q-61 79 -162 79q-120 0 -175 -96z" />
    <glyph glyph-name="c" unicode="c" horiz-adv-x="550" 
d="M488 526q-72 34 -158 34q-128 0 -202 -77q-73 -76 -73 -210q0 -133 73 -210q74 -77 196 -77q90 0 164 35v83q-77 -42 -154 -42q-87 0 -135.5 55.5t-48.5 155.5t48.5 155.5t135.5 55.5q77 0 154 -42v84z" />
    <glyph glyph-name="d" unicode="d" horiz-adv-x="635" 
d="M454 464q-55 96 -175 96q-99 0 -162 -79q-62 -80 -62 -208t62 -208q63 -79 162 -79q120 0 175 96v-82h90v760h-90v-296zM148 273q0 99 40.5 155.5t112.5 56.5q71 0 112 -56.5t41 -155.5t-41 -155.5t-112 -56.5q-72 0 -112.5 56.5t-40.5 155.5z" />
    <glyph glyph-name="e" unicode="e" horiz-adv-x="615" 
d="M562 296q0 123 -64 193q-65 71 -175 71q-123 0 -196 -79q-72 -79 -72 -213q0 -130 76 -206t208 -76q106 0 202 42v85q-93 -51 -197 -51q-89 0 -139 48.5t-56 141.5h413v44zM472 322h-320q7 77 52 119.5t120 42.5q67 0 107 -44t41 -118z" />
    <glyph glyph-name="f" unicode="f" horiz-adv-x="352" 
d="M371 760h-85q-92 0 -134.5 -42t-42.5 -133v-38h-86v-70h86v-477h90v477h148v70h-148v48q0 51 19 70.5t67 19.5h86v75z" />
    <glyph glyph-name="g" unicode="g" horiz-adv-x="635" 
d="M454 280q0 -97 -40 -151t-113 -54q-72 0 -112.5 54t-40.5 151t40.5 151t112.5 54q73 0 113 -54t40 -151zM544 68v479h-90v-83q-55 96 -175 96q-101 0 -163 -77q-61 -76 -61 -203q0 -128 61 -204t163 -76q119 0 175 96v-44q0 -186 -176 -186q-78 0 -157 42v-87
q77 -29 171 -29q128 0 190 68t62 208z" />
    <glyph glyph-name="h" unicode="h" horiz-adv-x="634" 
d="M549 330q0 113 -48.5 171.5t-142.5 58.5q-112 0 -177 -98v298h-90v-760h90v309q0 80 42 126.5t115 46.5q121 0 121 -155v-327h90v330z" />
    <glyph glyph-name="i" unicode="i" horiz-adv-x="278" 
d="M94 547v-547h90v547h-90zM94 760v-114h90v114h-90z" />
    <glyph glyph-name="j" unicode="j" horiz-adv-x="278" 
d="M94 547v-557q0 -75 -19 -98q-18 -24 -69 -24h-24v-76h34q88 0 128 47t40 151v557h-90zM94 760v-114h90v114h-90z" />
    <glyph glyph-name="k" unicode="k" horiz-adv-x="579" 
d="M91 760v-760h90v267l278 -267h117l-302 291l290 256h-115l-268 -236v449h-90z" />
    <glyph glyph-name="l" unicode="l" horiz-adv-x="278" 
d="M94 760v-760h90v760h-90z" />
    <glyph glyph-name="m" unicode="m" horiz-adv-x="974" 
d="M520 442q-41 118 -163 118q-116 0 -176 -98v85h-90v-547h90v309q0 80 40.5 126.5t109.5 46.5q114 0 114 -155v-327h90v309q0 80 40.5 126.5t110.5 46.5q113 0 113 -155v-327h90v330q0 110 -46.5 170t-131.5 60q-125 0 -191 -118z" />
    <glyph glyph-name="n" unicode="n" horiz-adv-x="634" 
d="M549 330q0 113 -48.5 171.5t-142.5 58.5q-112 0 -177 -98v85h-90v-547h90v309q0 80 42 126.5t115 46.5q121 0 121 -155v-327h90v330z" />
    <glyph glyph-name="o" unicode="o" horiz-adv-x="612" 
d="M306 484q72 0 114 -57t42 -154q0 -98 -42 -154.5t-114 -56.5q-73 0 -114.5 56.5t-41.5 154.5t42 154.5t114 56.5zM306 560q-118 0 -184.5 -76t-66.5 -211q0 -134 66.5 -210.5t184.5 -76.5q117 0 184 76.5t67 210.5q0 135 -67 211t-184 76z" />
    <glyph glyph-name="p" unicode="p" horiz-adv-x="635" 
d="M181 82q55 -96 175 -96q101 0 162 79q62 80 62 208t-62 208q-61 79 -162 79q-120 0 -175 -96v83h-90v-755h90v290zM487 273q0 -99 -41 -155.5t-112 -56.5t-112 56.5t-41 155.5t41 155.5t112 56.5t112 -56.5t41 -155.5z" />
    <glyph glyph-name="q" unicode="q" horiz-adv-x="635" 
d="M148 273q0 99 40.5 155.5t112.5 56.5q71 0 112 -56.5t41 -155.5t-41 -155.5t-112 -56.5q-72 0 -112.5 56.5t-40.5 155.5zM454 82v-290h90v755h-90v-83q-55 96 -175 96q-99 0 -162 -79q-62 -80 -62 -208t62 -208q63 -79 162 -79q120 0 175 96z" />
    <glyph glyph-name="r" unicode="r" horiz-adv-x="411" 
d="M411 463v92q-24 5 -46 5q-130 0 -184 -98v85h-90v-547h90v288q0 93 41 142.5t117 49.5q44 0 72 -17z" />
    <glyph glyph-name="s" unicode="s" horiz-adv-x="521" 
d="M443 531q-75 29 -175 29q-101 0 -155.5 -42t-54.5 -119q0 -64 37 -100t121 -54l31 -7q83 -18 108 -38q25 -19 25 -56q0 -40 -34 -61.5t-98 -21.5q-94 0 -194 52v-93q105 -34 192 -34q105 0 165.5 44.5t60.5 120.5q0 67 -40 104t-136 58l-31 7q-70 15 -95 33t-25 50
q0 82 134 82q84 0 164 -39v85z" />
    <glyph glyph-name="t" unicode="t" horiz-adv-x="392" 
d="M183 702h-90v-155h-66v-70h66v-297q0 -102 39 -141q40 -39 144 -39h92v75h-92q-56 0 -75 19q-18 19 -18 86v297h185v70h-185v155z" />
    <glyph glyph-name="u" unicode="u" horiz-adv-x="634" 
d="M85 216q0 -113 49 -171.5t143 -58.5q112 0 176 98v-84h90v547h-90v-310q0 -80 -42 -126.5t-115 -46.5q-121 0 -121 155v328h-90v-331z" />
    <glyph glyph-name="v" unicode="v" horiz-adv-x="592" 
d="M30 547l205 -547h122l205 547h-95l-171 -459l-171 459h-95z" />
    <glyph glyph-name="w" unicode="w" horiz-adv-x="818" 
d="M42 547l143 -547h106l118 448l118 -448h106l143 547h-90l-112 -427l-112 427h-106l-112 -427l-112 427h-90z" />
    <glyph glyph-name="x" unicode="x" horiz-adv-x="592" 
d="M549 547h-106l-145 -195l-145 195h-106l194 -261l-212 -286h106l159 215l159 -215h106l-208 281z" />
    <glyph glyph-name="y" unicode="y" horiz-adv-x="592" 
d="M322 -51l240 598h-95l-171 -428l-171 428h-95l221 -538l-16 -41q-26 -67 -46 -83q-19 -18 -57 -18h-53v-75h72q60 0 96 30q38 30 75 127z" />
    <glyph glyph-name="z" unicode="z" horiz-adv-x="525" 
d="M55 547v-72h326l-338 -393v-82h439v72h-338l338 393v82h-427z" />
    <glyph glyph-name="braceleft" unicode="{" horiz-adv-x="636" 
d="M511 -93h-33q-69 0 -90 22q-21 21 -21 90v121q0 76 -22 111t-76 48q54 12 76 46.5t22 111.5v121q0 69 21 90q21 22 90 22h33v70h-30q-123 0 -163 -36q-41 -36 -41 -144v-117q0 -73 -26.5 -101t-95.5 -28h-30v-70h30q69 0 95.5 -28t26.5 -102v-117q0 -108 41 -144
q40 -36 163 -36h30v70z" />
    <glyph glyph-name="bar" unicode="|" horiz-adv-x="337" 
d="M210 764h-83v-1000h83v1000z" />
    <glyph glyph-name="braceright" unicode="}" horiz-adv-x="636" 
d="M125 -93v-70h31q122 0 162 36q41 36 41 144v117q0 74 26.5 102t95.5 28h30v70h-30q-69 0 -95.5 28t-26.5 101v117q0 108 -41 144q-40 36 -162 36h-31v-70h34q70 0 89 -22q21 -21 21 -90v-121q0 -77 22 -111.5t76 -46.5q-54 -13 -76 -48t-22 -111v-121q0 -70 -21 -91
q-20 -21 -89 -21h-34z" />
    <glyph glyph-name="asciitilde" unicode="~" horiz-adv-x="838" 
d="M732 399q-95 -78 -175 -78q-46 0 -121 30q-5 2 -11 4q-2 1 -8 3q-72 29 -125 29q-92 0 -186 -72v-87q91 78 175 78q46 0 121 -30q2 -1 6 -2.5t5 -1.5q2 -1 8 -3q72 -29 125 -29q92 0 186 72v87z" />
    <glyph glyph-name="nbspace" unicode="&#xa0;" horiz-adv-x="636" 
 />
    <glyph glyph-name="exclamdown" unicode="&#xa1;" horiz-adv-x="401" 
d="M250 605v124h-99v-124h99zM250 0v320l-10 174h-79l-10 -174v-320h99z" />
    <glyph glyph-name="cent" unicode="&#xa2;" horiz-adv-x="636" 
d="M331 64q-72 8 -112 63.5t-40 145.5t40 145t112 64v-418zM517 526q-62 28 -136 33v140h-50v-140q-118 -11 -182.5 -85.5t-64.5 -200.5t64.5 -200.5t182.5 -84.5v-141h50v139q74 6 136 35v83q-71 -38 -136 -42v422q70 -5 136 -42v84z" />
    <glyph glyph-name="sterling" unicode="&#xa3;" horiz-adv-x="636" 
d="M538 713q-78 29 -142 29q-113 0 -165.5 -59t-52.5 -187v-116h-97v-70h97v-227h-115v-83h485v83h-272v227h191v70h-191v105q0 104 28 141q29 38 101 38q60 0 133 -40v89z" />
    <glyph glyph-name="currency" unicode="&#xa4;" horiz-adv-x="636" 
d="M435 485q-60 36 -116 36q-62 0 -115 -37l-101 101l-56 -56l101 -101q-37 -53 -37 -115q0 -56 36 -116l-101 -101l55 -56l101 101q60 -36 117 -36q56 0 115 38l101 -101l56 55l-102 101q38 56 38 115t-36 117l101 101l-56 56zM450 314q0 -54 -38 -94q-38 -38 -93 -38
q-54 0 -94 38q-38 38 -38 94q0 54 38 92q40 38 94 38q55 0 93 -38t38 -92z" />
    <glyph glyph-name="yen" unicode="&#xa5;" horiz-adv-x="636" 
d="M569 222v60h-203v25l41 76h162v60h-129l155 286h-93l-184 -342l-185 342h-93l155 -286h-129v-60h162l41 -76v-25h-203v-60h203v-222h98v222h202z" />
    <glyph glyph-name="brokenbar" unicode="&#xa6;" horiz-adv-x="337" 
d="M210 199h-83v-370h83v370zM210 699h-83v-370h83v370z" />
    <glyph glyph-name="section" unicode="&#xa7;" 
d="M185 457q120 -64 155 -98q35 -33 35 -70q0 -46 -61 -89q-120 65 -156 98q-34 33 -34 70q0 46 61 89zM405 714q-77 28 -149 28q-81 0 -130 -38.5t-49 -102.5q0 -67 58 -110q-90 -48 -90 -138q0 -50 31 -87q32 -38 136 -96l12 -7q108 -60 108 -110q0 -37 -27.5 -57.5
t-77.5 -20.5q-58 0 -143 38v-80q84 -28 154 -28q84 0 134 41t50 110q0 62 -58 110q90 52 90 138q0 49 -32 87q-32 37 -135 96q-1 1 -7.5 4.5t-11.5 6.5q-101 56 -101 100q0 35 26.5 54.5t73.5 19.5q54 0 138 -38v80z" />
    <glyph glyph-name="dieresis" unicode="&#xa8;" 
d="M296 758v-99h99v99h-99zM105 758v-99h99v99h-99z" />
    <glyph glyph-name="copyright" unicode="&#xa9;" horiz-adv-x="1000" 
d="M500 725q-149 0 -256 -107q-106 -106 -106 -256q0 -149 106 -255q107 -107 256 -107t256 107q106 106 106 255q0 150 -106 256q-107 107 -256 107zM500 675q129 0 221 -92q91 -91 91 -221t-91 -220q-92 -92 -221 -92q-128 0 -220 92q-93 93 -93 220q0 128 93 221
q92 92 220 92zM646 555q-68 27 -134 27q-105 0 -166.5 -59t-61.5 -161t61.5 -161.5t166.5 -59.5q69 0 134 28v62q-60 -32 -123 -32q-76 0 -117.5 42.5t-41.5 120.5q0 76 40.5 119t113.5 43q62 0 128 -32v63z" />
    <glyph glyph-name="ordfeminine" unicode="&#xaa;" horiz-adv-x="471" 
d="M68 289v-60h336v60h-336zM403 569q0 173 -177 173q-72 0 -140 -27v-62q69 33 130 33q114 0 114 -89v-2h-89q-185 0 -185 -133q0 -55 37 -88t100 -33q93 0 137 64v-55h73v219zM268 539h62v-14q0 -56 -31.5 -91t-82.5 -35q-40 0 -64 19t-24 50q0 39 31 55t109 16z" />
    <glyph glyph-name="guillemotleft" unicode="&#xab;" horiz-adv-x="612" 
d="M518 517l-229 -204v-40l229 -204v93l-147 131l147 131v93zM306 517l-229 -204v-40l229 -204v93l-147 131l147 131v93z" />
    <glyph glyph-name="logicalnot" unicode="&#xac;" horiz-adv-x="838" 
d="M106 421v-83h544v-198h82v281h-626z" />
    <glyph glyph-name="sfthyphen" unicode="&#xad;" horiz-adv-x="361" 
d="M49 314v-80h263v80h-263z" />
    <glyph glyph-name="registered" unicode="&#xae;" horiz-adv-x="1000" 
d="M500 675q129 0 221 -92q91 -91 91 -221t-91 -220q-92 -92 -221 -92q-128 0 -220 92q-93 93 -93 220q0 128 93 221q92 92 220 92zM500 725q-149 0 -256 -107q-106 -106 -106 -256q0 -149 106 -255q107 -107 256 -107t256 107q106 106 106 255q0 150 -106 256
q-107 107 -256 107zM487 523q53 0 74.5 -15.5t21.5 -52.5t-21 -52t-75 -15h-60v135h60zM490 573h-139v-408h76v174h32q27 0 44 -13q18 -12 47 -59l63 -102h84l-67 109q-45 70 -67 77q47 8 72.5 35.5t25.5 69.5q0 117 -171 117z" />
    <glyph glyph-name="overscore" unicode="&#xaf;" 
d="M104 745v-72h292v72h-292z" />
    <glyph glyph-name="degree" unicode="&#xb0;" 
d="M250 679q39 0 66 -27t27 -66t-27 -65.5t-66 -26.5t-66 26.5t-27 65.5t27 66t66 27zM250 742q-65 0 -110 -46q-45 -45 -45 -110q0 -66 44 -110t110 -44q64 0 110 44q46 45 46 110t-45 110q-44 46 -110 46z" />
    <glyph glyph-name="plusminus" unicode="&#xb1;" horiz-adv-x="838" 
d="M460 627h-82v-189h-272v-83h272v-189h82v189h272v83h-272v189zM106 83v-83h626v83h-626z" />
    <glyph glyph-name="twosuperior" unicode="&#xb2;" horiz-adv-x="401" 
d="M131 382l42 36q162 140 162 207q0 53 -42.5 85t-113.5 32q-60 0 -130 -27v-60q69 34 120 34q41 0 66.5 -20t25.5 -52q0 -47 -168 -195l-47 -42v-54h292v56h-207z" />
    <glyph glyph-name="threesuperior" unicode="&#xb3;" horiz-adv-x="401" 
d="M256 547q40 9 62 32.5t22 56.5q0 49 -41.5 77.5t-111.5 28.5q-51 0 -125 -17v-56q71 20 109 20q95 0 95 -58q0 -60 -93 -60h-46v-53h42q107 0 107 -73q0 -34 -29.5 -53.5t-82.5 -19.5q-66 0 -116 26v-59q69 -20 123 -20q86 0 132.5 32.5t46.5 93.5q0 40 -24.5 66.5
t-69.5 35.5z" />
    <glyph glyph-name="acute" unicode="&#xb4;" 
d="M318 800l-137 -184h75l159 184h-97z" />
    <glyph glyph-name="mu" unicode="&#xb5;" horiz-adv-x="636" 
d="M85 -208h90v270q40 -76 140 -76q96 0 143 77q13 -77 81 -77q33 0 73 22v72q-26 -11 -34 -11q-35 0 -35 57v421h-90v-319q0 -164 -145 -164q-133 0 -133 143v340h-90v-755z" />
    <glyph glyph-name="paragraph" unicode="&#xb6;" horiz-adv-x="636" 
d="M309 729q-105 0 -169 -57q-63 -56 -63 -149q0 -90 57.5 -144t162.5 -62v-413h69v765h93v-765h69v825h-219z" />
    <glyph glyph-name="middot" unicode="&#xb7;" horiz-adv-x="318" 
d="M107 409v-124h103v124h-103z" />
    <glyph glyph-name="cedilla" unicode="&#xb8;" 
d="M291 0h-58q43 -59 43 -87q0 -46 -58 -46q-43 0 -76 16v-64q42 -12 86 -12q116 0 116 88q0 46 -53 105z" />
    <glyph glyph-name="onesuperior" unicode="&#xb9;" horiz-adv-x="401" 
d="M76 380v-54h270v54h-100v354h-67l-112 -19v-57l109 20v-298h-100z" />
    <glyph glyph-name="ordmasculine" unicode="&#xba;" horiz-adv-x="471" 
d="M68 289v-60h336v60h-336zM236 742q-88 0 -138.5 -54t-50.5 -147t50.5 -146.5t138.5 -53.5q87 0 137.5 53.5t50.5 146.5t-50.5 147t-137.5 54zM236 686q52 0 82 -39t30 -106q0 -65 -30.5 -104t-81.5 -39t-82 39t-31 104q0 66 31 105.5t82 39.5z" />
    <glyph glyph-name="guillemotright" unicode="&#xbb;" horiz-adv-x="612" 
d="M94 517v-93l147 -131l-147 -131v-93l229 204v40zM306 517v-93l147 -131l-147 -131v-93l229 204v40z" />
    <glyph glyph-name="onequarter" unicode="&#xbc;" horiz-adv-x="969" 
d="M76 380v-54h270v54h-100v354h-67l-112 -19v-57l109 20v-298h-100zM673 742l-455 -756h78l455 756h-78zM801 349v-205h-151zM790 408l-191 -258v-59h202v-91h70v91h66v53h-66v264h-81z" />
    <glyph glyph-name="onehalf" unicode="&#xbd;" horiz-adv-x="969" 
d="M76 380v-54h270v54h-100v354h-67l-112 -19v-57l109 20v-298h-100zM673 742l-455 -756h78l455 756h-78zM699 56l42 36q162 140 162 207q0 53 -42.5 85t-113.5 32q-60 0 -130 -27v-60q69 34 120 34q41 0 66.5 -20t25.5 -52q0 -47 -168 -195l-47 -42v-54h292v56h-207z" />
    <glyph glyph-name="threequarters" unicode="&#xbe;" horiz-adv-x="969" 
d="M256 547q40 9 62 32.5t22 56.5q0 49 -41.5 77.5t-111.5 28.5q-51 0 -125 -17v-56q71 20 109 20q95 0 95 -58q0 -60 -93 -60h-46v-53h42q107 0 107 -73q0 -34 -29.5 -53.5t-82.5 -19.5q-66 0 -116 26v-59q69 -20 123 -20q86 0 132.5 32.5t46.5 93.5q0 40 -24.5 66.5
t-69.5 35.5zM673 742l-455 -756h78l455 756h-78zM801 349v-205h-151zM790 408l-191 -258v-59h202v-91h70v91h66v53h-66v264h-81z" />
    <glyph glyph-name="questiondown" unicode="&#xbf;" horiz-adv-x="531" 
d="M244 533v-60q0 -47 -6 -66q-7 -22 -46 -61l-43 -42q-43 -41 -61 -74.5t-18 -71.5q0 -77 54 -125q56 -47 145 -47q99 0 190 55v92q-96 -67 -173 -67q-53 0 -85 27t-32 70q0 46 53 96l44 43q43 42 57 74q14 33 14 81v76h-93zM340 605v124h-99v-124h99z" />
    <glyph glyph-name="Agrave" unicode="&#xc0;" horiz-adv-x="684" 
d="M342 632l134 -363h-268zM286 729l-278 -729h104l66 187h329l66 -187h103l-278 729h-112zM314 927h-91l112 -129h75z" />
    <glyph glyph-name="Aacute" unicode="&#xc1;" horiz-adv-x="684" 
d="M342 632l134 -363h-268zM286 729l-278 -729h104l66 187h329l66 -187h103l-278 729h-112zM369 927l-96 -129h75l111 129h-90z" />
    <glyph glyph-name="Acircumflex" unicode="&#xc2;" horiz-adv-x="684" 
d="M342 632l134 -363h-268zM286 729l-278 -729h104l66 187h329l66 -187h103l-278 729h-112zM296 928l-103 -130h68l81 87l81 -87h68l-103 130h-92z" />
    <glyph glyph-name="Atilde" unicode="&#xc3;" horiz-adv-x="684" 
d="M342 632l134 -363h-268zM286 729l-278 -729h104l66 187h329l66 -187h103l-278 729h-112zM340 835q41 -21 71 -21q41 0 66 29t26 78h-61v-3q0 -20 -9.5 -32.5t-25.5 -12.5q-13 0 -35 12l-28 15q-38 21 -71 21q-42 0 -67 -29t-25 -78h61v3q0 46 37 46q12 0 33 -12z" />
    <glyph glyph-name="Adieresis" unicode="&#xc4;" horiz-adv-x="684" 
d="M342 632l134 -363h-268zM286 729l-278 -729h104l66 187h329l66 -187h103l-278 729h-112zM388 913v-99h99v99h-99zM197 913v-99h99v99h-99z" />
    <glyph glyph-name="Aring" unicode="&#xc5;" horiz-adv-x="684" 
d="M416 794q0 -31 -21.5 -52.5t-52.5 -21.5t-52.5 21.5t-21.5 52.5q0 32 21.5 53t52.5 21t52.5 -21.5t21.5 -52.5zM342 632l133 -363h-266zM268 682l-260 -682h104l66 187h329l66 -187h103l-260 682q60 42 60 112q0 56 -40 95q-39 39 -94 39q-56 0 -95 -39t-39 -95
q0 -72 60 -112z" />
    <glyph glyph-name="AE" unicode="&#xc6;" horiz-adv-x="974" 
d="M901 729h-592l-305 -729h100l78 187h258v-187h470v83h-371v264h347v83h-347v216h362v83zM377 652h63v-383h-224z" />
    <glyph glyph-name="Ccedilla" unicode="&#xc7;" horiz-adv-x="698" 
d="M644 673q-100 69 -232 69q-165 0 -261 -101q-95 -101 -95 -277t95 -277q96 -101 261 -101q129 0 232 70v103q-101 -92 -226 -92t-191.5 76.5t-66.5 220.5t66.5 220.5t191.5 76.5t226 -92v104zM438 0h-58q43 -59 43 -87q0 -46 -58 -46q-43 0 -76 16v-64q42 -12 86 -12
q116 0 116 88q0 46 -53 105z" />
    <glyph glyph-name="Egrave" unicode="&#xc8;" horiz-adv-x="632" 
d="M98 729v-729h470v83h-371v264h347v83h-347v216h362v83h-461zM299 927h-91l112 -129h75z" />
    <glyph glyph-name="Eacute" unicode="&#xc9;" horiz-adv-x="632" 
d="M98 729v-729h470v83h-371v264h347v83h-347v216h362v83h-461zM354 927l-96 -129h75l111 129h-90z" />
    <glyph glyph-name="Ecircumflex" unicode="&#xca;" horiz-adv-x="632" 
d="M98 729v-729h470v83h-371v264h347v83h-347v216h362v83h-461zM281 928l-103 -130h68l81 87l81 -87h68l-103 130h-92z" />
    <glyph glyph-name="Edieresis" unicode="&#xcb;" horiz-adv-x="632" 
d="M98 729v-729h470v83h-371v264h347v83h-347v216h362v83h-461zM373 913v-99h99v99h-99zM182 913v-99h99v99h-99z" />
    <glyph glyph-name="Igrave" unicode="&#xcc;" horiz-adv-x="295" 
d="M98 729v-729h99v729h-99zM120 927h-91l112 -129h75z" />
    <glyph glyph-name="Iacute" unicode="&#xcd;" horiz-adv-x="295" 
d="M98 729v-729h99v729h-99zM175 927l-96 -129h75l111 129h-90z" />
    <glyph glyph-name="Icircumflex" unicode="&#xce;" horiz-adv-x="295" 
d="M98 729v-729h99v729h-99zM102 928l-103 -130h68l81 87l81 -87h68l-103 130h-92z" />
    <glyph glyph-name="Idieresis" unicode="&#xcf;" horiz-adv-x="295" 
d="M98 729v-729h99v729h-99zM194 913v-99h99v99h-99zM3 913v-99h99v99h-99z" />
    <glyph glyph-name="Eth" unicode="&#xd0;" horiz-adv-x="775" 
d="M103 729v-317h-98v-70h98v-342h203q211 0 310.5 88.5t99.5 276.5t-99 276t-311 88h-203zM202 648h119q151 0 221 -68t70 -215t-70 -215.5t-221 -68.5h-119v261h164v70h-164v236z" />
    <glyph glyph-name="Ntilde" unicode="&#xd1;" horiz-adv-x="748" 
d="M98 729v-729h96v610l323 -610h133v729h-96v-610l-323 610h-133zM372 835q41 -21 71 -21q41 0 66 29t26 78h-61v-3q0 -20 -9.5 -32.5t-25.5 -12.5q-13 0 -35 12l-28 15q-38 21 -71 21q-42 0 -67 -29t-25 -78h61v3q0 46 37 46q12 0 33 -12z" />
    <glyph glyph-name="Ograve" unicode="&#xd2;" horiz-adv-x="787" 
d="M394 662q107 0 170 -80t63 -218t-63 -218t-170 -80q-106 0 -171 80q-63 80 -63 218t63 218q65 80 171 80zM394 742q-155 0 -246 -103q-92 -103 -92 -275t92 -276q92 -102 246 -102t245 102q92 104 92 276t-92 275q-91 103 -245 103zM366 927h-91l112 -129h75z" />
    <glyph glyph-name="Oacute" unicode="&#xd3;" horiz-adv-x="787" 
d="M394 662q107 0 170 -80t63 -218t-63 -218t-170 -80q-106 0 -171 80q-63 80 -63 218t63 218q65 80 171 80zM394 742q-155 0 -246 -103q-92 -103 -92 -275t92 -276q92 -102 246 -102t245 102q92 104 92 276t-92 275q-91 103 -245 103zM421 927l-96 -129h75l111 129h-90z
" />
    <glyph glyph-name="Ocircumflex" unicode="&#xd4;" horiz-adv-x="787" 
d="M394 662q107 0 170 -80t63 -218t-63 -218t-170 -80q-106 0 -171 80q-63 80 -63 218t63 218q65 80 171 80zM394 742q-155 0 -246 -103q-92 -103 -92 -275t92 -276q92 -102 246 -102t245 102q92 104 92 276t-92 275q-91 103 -245 103zM348 928l-103 -130h68l81 87l81 -87
h68l-103 130h-92z" />
    <glyph glyph-name="Otilde" unicode="&#xd5;" horiz-adv-x="787" 
d="M394 662q107 0 170 -80t63 -218t-63 -218t-170 -80q-106 0 -171 80q-63 80 -63 218t63 218q65 80 171 80zM394 742q-155 0 -246 -103q-92 -103 -92 -275t92 -276q92 -102 246 -102t245 102q92 104 92 276t-92 275q-91 103 -245 103zM392 835q41 -21 71 -21q41 0 66 29
t26 78h-61v-3q0 -20 -9.5 -32.5t-25.5 -12.5q-13 0 -35 12l-28 15q-38 21 -71 21q-42 0 -67 -29t-25 -78h61v3q0 46 37 46q12 0 33 -12z" />
    <glyph glyph-name="Odieresis" unicode="&#xd6;" horiz-adv-x="787" 
d="M394 662q107 0 170 -80t63 -218t-63 -218t-170 -80q-106 0 -171 80q-63 80 -63 218t63 218q65 80 171 80zM394 742q-155 0 -246 -103q-92 -103 -92 -275t92 -276q92 -102 246 -102t245 102q92 104 92 276t-92 275q-91 103 -245 103zM440 913v-99h99v99h-99zM249 913v-99
h99v99h-99z" />
    <glyph glyph-name="multiply" unicode="&#xd7;" horiz-adv-x="838" 
d="M701 537l-58 59l-224 -224l-224 224l-58 -59l223 -224l-223 -223l58 -59l224 224l224 -224l58 59l-223 223z" />
    <glyph glyph-name="Oslash" unicode="&#xd8;" horiz-adv-x="787" 
d="M589 543q38 -71 38 -179q0 -138 -63 -218t-170 -80q-93 0 -155 64zM549 598l-351 -414q-38 67 -38 180q0 138 63 218q65 80 171 80q93 0 155 -64zM133 107l-83 -98l50 -43l79 93q89 -73 215 -73q154 0 245 102q92 104 92 276q0 156 -77 257l83 97l-50 43l-79 -93
q-86 74 -214 74q-155 0 -246 -103q-92 -103 -92 -275q0 -156 77 -257z" />
    <glyph glyph-name="Ugrave" unicode="&#xd9;" horiz-adv-x="732" 
d="M87 729v-455q0 -288 279 -288t279 288v455h-99v-443q0 -117 -42.5 -168.5t-137.5 -51.5t-137.5 51.5t-42.5 168.5v443h-99zM338 927h-91l112 -129h75z" />
    <glyph glyph-name="Uacute" unicode="&#xda;" horiz-adv-x="732" 
d="M87 729v-455q0 -288 279 -288t279 288v455h-99v-443q0 -117 -42.5 -168.5t-137.5 -51.5t-137.5 51.5t-42.5 168.5v443h-99zM393 927l-96 -129h75l111 129h-90z" />
    <glyph glyph-name="Ucircumflex" unicode="&#xdb;" horiz-adv-x="732" 
d="M87 729v-455q0 -288 279 -288t279 288v455h-99v-443q0 -117 -42.5 -168.5t-137.5 -51.5t-137.5 51.5t-42.5 168.5v443h-99zM320 928l-103 -130h68l81 87l81 -87h68l-103 130h-92z" />
    <glyph glyph-name="Udieresis" unicode="&#xdc;" horiz-adv-x="732" 
d="M87 729v-455q0 -288 279 -288t279 288v455h-99v-443q0 -117 -42.5 -168.5t-137.5 -51.5t-137.5 51.5t-42.5 168.5v443h-99zM412 913v-99h99v99h-99zM221 913v-99h99v99h-99z" />
    <glyph glyph-name="Yacute" unicode="&#xdd;" horiz-adv-x="611" 
d="M-2 729l258 -382v-347h99v347l258 382h-106l-201 -300l-202 300h-106zM333 927l-96 -129h75l111 129h-90z" />
    <glyph glyph-name="Thorn" unicode="&#xde;" horiz-adv-x="605" 
d="M98 729v-729h99v165h124q248 0 248 218q0 107 -63 162t-185 55h-124v129h-99zM197 519h124q69 0 106.5 -35.5t37.5 -100.5q0 -66 -37.5 -101.5t-106.5 -35.5h-124v273z" />
    <glyph glyph-name="germandbls" unicode="&#xdf;" horiz-adv-x="630" 
d="M91 555v-555h91v553q0 64 33.5 98t96.5 34q55 0 87 -27.5t36 -77.5q-74 -14 -114.5 -56t-40.5 -104q0 -45 21 -77.5t68 -61.5l45 -27q50 -30 63 -51q15 -19 15 -51q0 -91 -115 -91q-64 0 -139 29v-80q70 -24 133 -24q103 0 158 44.5t55 128.5q0 49 -24 83q-22 34 -104 87
l-28 18q-60 39 -60 83q0 47 41 75t115 32q-2 109 -55 166t-155 57q-106 0 -164.5 -53.5t-58.5 -151.5z" />
    <glyph glyph-name="agrave" unicode="&#xe0;" horiz-adv-x="613" 
d="M343 275h89v-20q0 -88 -45 -141t-120 -53q-54 0 -85.5 28t-31.5 76q0 59 42 85q41 25 151 25zM522 312q0 248 -236 248q-87 0 -186 -38v-83q85 45 177 45q74 0 114.5 -34t40.5 -96v-9h-126q-246 0 -246 -186q0 -79 49.5 -126t133.5 -47q130 0 189 97v-83h90v312zM219 800
h-96l159 -183h75z" />
    <glyph glyph-name="aacute" unicode="&#xe1;" horiz-adv-x="613" 
d="M343 275h89v-20q0 -88 -45 -141t-120 -53q-54 0 -85.5 28t-31.5 76q0 59 42 85q41 25 151 25zM522 312q0 248 -236 248q-87 0 -186 -38v-83q85 45 177 45q74 0 114.5 -34t40.5 -96v-9h-126q-246 0 -246 -186q0 -79 49.5 -126t133.5 -47q130 0 189 97v-83h90v312zM358 800
l-137 -184h75l159 184h-97z" />
    <glyph glyph-name="acircumflex" unicode="&#xe2;" horiz-adv-x="613" 
d="M343 275h89v-20q0 -88 -45 -141t-120 -53q-54 0 -85.5 28t-31.5 76q0 59 42 85q41 25 151 25zM522 312q0 248 -236 248q-87 0 -186 -38v-83q85 45 177 45q74 0 114.5 -34t40.5 -96v-9h-126q-246 0 -246 -186q0 -79 49.5 -126t133.5 -47q130 0 189 97v-83h90v312zM254 800
l-120 -184h68l88 120l88 -120h68l-120 184h-72z" />
    <glyph glyph-name="atilde" unicode="&#xe3;" horiz-adv-x="613" 
d="M343 275h89v-20q0 -88 -45 -141t-120 -53q-54 0 -85.5 28t-31.5 76q0 59 42 85q41 25 151 25zM522 312q0 248 -236 248q-87 0 -186 -38v-83q85 45 177 45q74 0 114.5 -34t40.5 -96v-9h-126q-246 0 -246 -186q0 -79 49.5 -126t133.5 -47q130 0 189 97v-83h90v312zM288 669
q34 -30 68 -30q44 0 69 36t26 102h-61q-1 -76 -37 -76q-11 0 -33 19l-28 27q-34 30 -68 30q-44 0 -69 -36t-26 -102h61q1 76 37 76q11 0 33 -19z" />
    <glyph glyph-name="adieresis" unicode="&#xe4;" horiz-adv-x="613" 
d="M343 275h89v-20q0 -88 -45 -141t-120 -53q-54 0 -85.5 28t-31.5 76q0 59 42 85q41 25 151 25zM522 312q0 248 -236 248q-87 0 -186 -38v-83q85 45 177 45q74 0 114.5 -34t40.5 -96v-9h-126q-246 0 -246 -186q0 -79 49.5 -126t133.5 -47q130 0 189 97v-83h90v312zM336 758
v-99h99v99h-99zM145 758v-99h99v99h-99z" />
    <glyph glyph-name="aring" unicode="&#xe5;" horiz-adv-x="613" 
d="M343 275h89v-20q0 -88 -45 -141t-120 -53q-54 0 -85.5 28t-31.5 76q0 59 42 85q41 25 151 25zM522 312q0 248 -236 248q-87 0 -186 -38v-83q85 45 177 45q74 0 114.5 -34t40.5 -96v-9h-126q-246 0 -246 -186q0 -79 49.5 -126t133.5 -47q130 0 189 97v-83h90v312zM364 744
q0 -31 -21.5 -52.5t-52.5 -21.5q-32 0 -53 21t-21 53q0 31 21 52.5t53 21.5q31 0 52.5 -21.5t21.5 -52.5zM424 744q0 56 -39 95t-95 39t-95 -39t-39 -95t39 -95t95 -39t95 39t39 95z" />
    <glyph glyph-name="ae" unicode="&#xe6;" horiz-adv-x="982" 
d="M839 322h-320q7 77 52 119.5t120 42.5q67 0 107 -44t41 -118zM486 470q-57 90 -200 90q-87 0 -186 -38v-83q85 45 177 45q74 0 114.5 -34t40.5 -96v-9h-126q-246 0 -246 -186q0 -82 51.5 -127.5t143.5 -45.5q140 0 211 117q74 -117 240 -117q104 0 202 42v85
q-97 -52 -197 -52q-89 0 -139 49t-56 142h413v44q0 122 -65 193t-174 71q-131 0 -204 -90zM343 275h89v-20q0 -88 -45 -141t-120 -53q-54 0 -85.5 28t-31.5 76q0 59 42 85q41 25 151 25z" />
    <glyph glyph-name="ccedilla" unicode="&#xe7;" horiz-adv-x="550" 
d="M488 526q-72 34 -158 34q-128 0 -202 -77q-73 -76 -73 -210q0 -133 73 -210q74 -77 196 -77q90 0 164 35v83q-77 -42 -154 -42q-87 0 -135.5 55.5t-48.5 155.5t48.5 155.5t135.5 55.5q77 0 154 -42v84zM361 0h-58q43 -59 43 -87q0 -46 -58 -46q-43 0 -76 16v-64
q42 -12 86 -12q116 0 116 88q0 46 -53 105z" />
    <glyph glyph-name="egrave" unicode="&#xe8;" horiz-adv-x="615" 
d="M562 296q0 123 -64 193q-65 71 -175 71q-123 0 -196 -79q-72 -79 -72 -213q0 -130 76 -206t208 -76q106 0 202 42v85q-93 -51 -197 -51q-89 0 -139 48.5t-56 141.5h413v44zM472 322h-320q7 77 52 119.5t120 42.5q67 0 107 -44t41 -118zM247 800h-96l159 -183h75z" />
    <glyph glyph-name="eacute" unicode="&#xe9;" horiz-adv-x="615" 
d="M562 296q0 123 -64 193q-65 71 -175 71q-123 0 -196 -79q-72 -79 -72 -213q0 -130 76 -206t208 -76q106 0 202 42v85q-93 -51 -197 -51q-89 0 -139 48.5t-56 141.5h413v44zM472 322h-320q7 77 52 119.5t120 42.5q67 0 107 -44t41 -118zM386 800l-137 -184h75l159 184h-97
z" />
    <glyph glyph-name="ecircumflex" unicode="&#xea;" horiz-adv-x="615" 
d="M562 296q0 123 -64 193q-65 71 -175 71q-123 0 -196 -79q-72 -79 -72 -213q0 -130 76 -206t208 -76q106 0 202 42v85q-93 -51 -197 -51q-89 0 -139 48.5t-56 141.5h413v44zM472 322h-320q7 77 52 119.5t120 42.5q67 0 107 -44t41 -118zM282 800l-120 -184h68l88 120
l88 -120h68l-120 184h-72z" />
    <glyph glyph-name="edieresis" unicode="&#xeb;" horiz-adv-x="615" 
d="M562 296q0 123 -64 193q-65 71 -175 71q-123 0 -196 -79q-72 -79 -72 -213q0 -130 76 -206t208 -76q106 0 202 42v85q-93 -51 -197 -51q-89 0 -139 48.5t-56 141.5h413v44zM472 322h-320q7 77 52 119.5t120 42.5q67 0 107 -44t41 -118zM364 758v-99h99v99h-99zM173 758
v-99h99v99h-99z" />
    <glyph glyph-name="igrave" unicode="&#xec;" horiz-adv-x="278" 
d="M94 547v-547h90v547h-90zM68 800h-96l159 -183h75z" />
    <glyph glyph-name="iacute" unicode="&#xed;" horiz-adv-x="278" 
d="M94 547v-547h90v547h-90zM207 800l-137 -184h75l159 184h-97z" />
    <glyph glyph-name="icircumflex" unicode="&#xee;" horiz-adv-x="278" 
d="M94 547v-547h90v547h-90zM103 800l-120 -184h68l88 120l88 -120h68l-120 184h-72z" />
    <glyph glyph-name="idieresis" unicode="&#xef;" horiz-adv-x="278" 
d="M94 547v-547h90v547h-90zM185 758v-99h99v99h-99zM-6 758v-99h99v99h-99z" />
    <glyph glyph-name="eth" unicode="&#xf0;" horiz-adv-x="612" 
d="M409 447q53 -65 53 -185q0 -92 -42.5 -146t-113.5 -54t-113.5 54t-42.5 146q0 95 45 148t127 53q40 0 87 -16zM440 557l-80 91l144 48l-16 47l-163 -54l-62 71h-111l88 -100l-137 -45l16 -48l156 52l78 -88q-35 5 -55 5q-109 0 -176 -76t-67 -198q0 -124 69 -200t182 -76
q112 0 181 76q70 76 70 200q0 161 -117 295z" />
    <glyph glyph-name="ntilde" unicode="&#xf1;" horiz-adv-x="634" 
d="M549 330q0 113 -48.5 171.5t-142.5 58.5q-112 0 -177 -98v85h-90v-547h90v309q0 80 42 126.5t115 46.5q121 0 121 -155v-327h90v330zM322 669q34 -30 68 -30q44 0 69 36t26 102h-61q-1 -76 -37 -76q-11 0 -33 19l-28 27q-34 30 -68 30q-44 0 -69 -36t-26 -102h61
q1 76 37 76q11 0 33 -19z" />
    <glyph glyph-name="ograve" unicode="&#xf2;" horiz-adv-x="612" 
d="M306 484q72 0 114 -57t42 -154q0 -98 -42 -154.5t-114 -56.5q-73 0 -114.5 56.5t-41.5 154.5t42 154.5t114 56.5zM306 560q-118 0 -184.5 -76t-66.5 -211q0 -134 66.5 -210.5t184.5 -76.5q117 0 184 76.5t67 210.5q0 135 -67 211t-184 76zM235 800h-96l159 -183h75z" />
    <glyph glyph-name="oacute" unicode="&#xf3;" horiz-adv-x="612" 
d="M306 484q72 0 114 -57t42 -154q0 -98 -42 -154.5t-114 -56.5q-73 0 -114.5 56.5t-41.5 154.5t42 154.5t114 56.5zM306 560q-118 0 -184.5 -76t-66.5 -211q0 -134 66.5 -210.5t184.5 -76.5q117 0 184 76.5t67 210.5q0 135 -67 211t-184 76zM374 800l-137 -184h75l159 184
h-97z" />
    <glyph glyph-name="ocircumflex" unicode="&#xf4;" horiz-adv-x="612" 
d="M306 484q72 0 114 -57t42 -154q0 -98 -42 -154.5t-114 -56.5q-73 0 -114.5 56.5t-41.5 154.5t42 154.5t114 56.5zM306 560q-118 0 -184.5 -76t-66.5 -211q0 -134 66.5 -210.5t184.5 -76.5q117 0 184 76.5t67 210.5q0 135 -67 211t-184 76zM270 800l-120 -184h68l88 120
l88 -120h68l-120 184h-72z" />
    <glyph glyph-name="otilde" unicode="&#xf5;" horiz-adv-x="612" 
d="M306 484q72 0 114 -57t42 -154q0 -98 -42 -154.5t-114 -56.5q-73 0 -114.5 56.5t-41.5 154.5t42 154.5t114 56.5zM306 560q-118 0 -184.5 -76t-66.5 -211q0 -134 66.5 -210.5t184.5 -76.5q117 0 184 76.5t67 210.5q0 135 -67 211t-184 76zM304 669q34 -30 68 -30
q44 0 69 36t26 102h-61q-1 -76 -37 -76q-11 0 -33 19l-28 27q-34 30 -68 30q-44 0 -69 -36t-26 -102h61q1 76 37 76q11 0 33 -19z" />
    <glyph glyph-name="odieresis" unicode="&#xf6;" horiz-adv-x="612" 
d="M306 484q72 0 114 -57t42 -154q0 -98 -42 -154.5t-114 -56.5q-73 0 -114.5 56.5t-41.5 154.5t42 154.5t114 56.5zM306 560q-118 0 -184.5 -76t-66.5 -211q0 -134 66.5 -210.5t184.5 -76.5q117 0 184 76.5t67 210.5q0 135 -67 211t-184 76zM352 758v-99h99v99h-99z
M161 758v-99h99v99h-99z" />
    <glyph glyph-name="divide" unicode="&#xf7;" horiz-adv-x="838" 
d="M359 554v-120h120v120h-120zM359 193v-120h120v120h-120zM106 355v-83h626v83h-626z" />
    <glyph glyph-name="oslash" unicode="&#xf8;" horiz-adv-x="612" 
d="M442 391q20 -45 20 -118q0 -98 -42 -154.5t-114 -56.5q-62 0 -102 40zM407 444l-238 -289q-19 42 -19 111q0 103 41 160.5t115 57.5q61 0 101 -40zM108 81l-73 -89l47 -38l68 82q62 -50 156 -50q117 0 184 76.5t67 210.5q0 117 -52 193l71 87l-46 39l-68 -82
q-67 50 -156 50q-118 0 -184.5 -76t-66.5 -211q0 -115 53 -192z" />
    <glyph glyph-name="ugrave" unicode="&#xf9;" horiz-adv-x="634" 
d="M85 216q0 -113 49 -171.5t143 -58.5q112 0 176 98v-84h90v547h-90v-310q0 -80 -42 -126.5t-115 -46.5q-121 0 -121 155v328h-90v-331zM239 800h-96l159 -183h75z" />
    <glyph glyph-name="uacute" unicode="&#xfa;" horiz-adv-x="634" 
d="M85 216q0 -113 49 -171.5t143 -58.5q112 0 176 98v-84h90v547h-90v-310q0 -80 -42 -126.5t-115 -46.5q-121 0 -121 155v328h-90v-331zM378 800l-137 -184h75l159 184h-97z" />
    <glyph glyph-name="ucircumflex" unicode="&#xfb;" horiz-adv-x="634" 
d="M85 216q0 -113 49 -171.5t143 -58.5q112 0 176 98v-84h90v547h-90v-310q0 -80 -42 -126.5t-115 -46.5q-121 0 -121 155v328h-90v-331zM274 800l-120 -184h68l88 120l88 -120h68l-120 184h-72z" />
    <glyph glyph-name="udieresis" unicode="&#xfc;" horiz-adv-x="634" 
d="M85 216q0 -113 49 -171.5t143 -58.5q112 0 176 98v-84h90v547h-90v-310q0 -80 -42 -126.5t-115 -46.5q-121 0 -121 155v328h-90v-331zM356 758v-99h99v99h-99zM165 758v-99h99v99h-99z" />
    <glyph glyph-name="yacute" unicode="&#xfd;" horiz-adv-x="592" 
d="M322 -51l240 598h-95l-171 -428l-171 428h-95l221 -538l-16 -41q-26 -67 -46 -83q-19 -18 -57 -18h-53v-75h72q60 0 96 30q38 30 75 127zM364 800l-137 -184h75l159 184h-97z" />
    <glyph glyph-name="thorn" unicode="&#xfe;" horiz-adv-x="635" 
d="M181 82q55 -96 175 -96q101 0 162 79q62 80 62 208t-62 208q-61 79 -162 79q-120 0 -175 -96v296h-90v-968h90v290zM487 273q0 -99 -41 -155.5t-112 -56.5t-112 56.5t-41 155.5t41 155.5t112 56.5t112 -56.5t41 -155.5z" />
    <glyph glyph-name="ydieresis" unicode="&#xff;" horiz-adv-x="592" 
d="M322 -51l240 598h-95l-171 -428l-171 428h-95l221 -538l-16 -41q-26 -67 -46 -83q-19 -18 -57 -18h-53v-75h72q60 0 96 30q38 30 75 127zM342 758v-99h99v99h-99zM151 758v-99h99v99h-99z" />
    <glyph glyph-name="Cacute" unicode="&#x106;" horiz-adv-x="698" 
d="M644 673q-100 69 -232 69q-165 0 -261 -101q-95 -101 -95 -277t95 -277q96 -101 261 -101q129 0 232 70v103q-101 -92 -226 -92t-191.5 76.5t-66.5 220.5t66.5 220.5t191.5 76.5t226 -92v104zM424 927l-96 -129h75l111 129h-90z" />
    <glyph glyph-name="cacute" unicode="&#x107;" horiz-adv-x="550" 
d="M488 526q-72 34 -158 34q-128 0 -202 -77q-73 -76 -73 -210q0 -133 73 -210q74 -77 196 -77q90 0 164 35v83q-77 -42 -154 -42q-87 0 -135.5 55.5t-48.5 155.5t48.5 155.5t135.5 55.5q77 0 154 -42v84zM385 800l-137 -184h75l159 184h-97z" />
    <glyph glyph-name="Ccaron" unicode="&#x10c;" horiz-adv-x="698" 
d="M644 673q-100 69 -232 69q-165 0 -261 -101q-95 -101 -95 -277t95 -277q96 -101 261 -101q129 0 232 70v103q-101 -92 -226 -92t-191.5 76.5t-66.5 220.5t66.5 220.5t191.5 76.5t226 -92v104zM351 798h92l103 130h-68l-81 -87l-81 87h-68z" />
    <glyph glyph-name="ccaron" unicode="&#x10d;" horiz-adv-x="550" 
d="M488 526q-72 34 -158 34q-128 0 -202 -77q-73 -76 -73 -210q0 -133 73 -210q74 -77 196 -77q90 0 164 35v83q-77 -42 -154 -42q-87 0 -135.5 55.5t-48.5 155.5t48.5 155.5t135.5 55.5q77 0 154 -42v84zM281 616h72l120 184h-68l-88 -120l-88 120h-68z" />
    <glyph glyph-name="dslash" unicode="&#x111;" horiz-adv-x="635" 
d="M454 464q-55 96 -175 96q-99 0 -162 -79q-62 -80 -62 -208t62 -208q63 -79 162 -79q120 0 175 96v-82h90v627h75v61h-75v72h-90v-72h-159v-61h159v-163zM148 273q0 99 40.5 155.5t112.5 56.5q71 0 112 -56.5t41 -155.5t-41 -155.5t-112 -56.5q-72 0 -112.5 56.5
t-40.5 155.5z" />
    <glyph glyph-name="Gbreve" unicode="&#x11e;" horiz-adv-x="775" 
d="M595 104q-65 -37 -167 -37q-268 0 -268 297t268 297q135 0 246 -93v105q-110 69 -254 69q-171 0 -268 -100q-96 -100 -96 -278q0 -177 96 -278q97 -100 268 -100q160 0 273 82v313h-259v-81h161v-196zM235 928q10 -118 153 -118q142 0 153 118h-58q-17 -54 -95 -54
q-83 0 -95 54h-58z" />
    <glyph glyph-name="gbreve" unicode="&#x11f;" horiz-adv-x="635" 
d="M454 280q0 -97 -40 -151t-113 -54q-72 0 -112.5 54t-40.5 151t40.5 151t112.5 54q73 0 113 -54t40 -151zM544 68v479h-90v-83q-55 96 -175 96q-101 0 -163 -77q-61 -76 -61 -203q0 -128 61 -204t163 -76q119 0 175 96v-44q0 -186 -176 -186q-78 0 -157 42v-87
q77 -29 171 -29q128 0 190 68t62 208zM165 785q11 -140 153 -140t153 140h-58q-12 -73 -95 -73q-84 0 -95 73h-58z" />
    <glyph glyph-name="Idot" unicode="&#x130;" horiz-adv-x="295" 
d="M98 729v-729h99v729h-99zM98 914v-100h100v100h-100z" />
    <glyph glyph-name="dotlessi" unicode="&#x131;" horiz-adv-x="278" 
d="M94 547v-547h90v547h-90z" />
    <glyph glyph-name="Lslash" unicode="&#x141;" horiz-adv-x="562" 
d="M103 729v-371l-110 -77l38 -54l72 52v-279h454v83h-355v264l192 134l-39 54l-153 -107v301h-99z" />
    <glyph glyph-name="lslash" unicode="&#x142;" horiz-adv-x="284" 
d="M97 760v-357l-96 -69l36 -52l60 43v-325h90v389l98 69l-37 52l-61 -44v294h-90z" />
    <glyph glyph-name="OE" unicode="&#x152;" horiz-adv-x="1070" 
d="M997 729h-511q-212 0 -321 -93t-109 -271q0 -179 109 -272t321 -93h520v83h-371v264h347v83h-347v216h362v83zM536 646v-563h-63q-313 0 -313 282q0 281 313 281h63z" />
    <glyph glyph-name="oe" unicode="&#x153;" horiz-adv-x="1023" 
d="M880 322h-320q7 77 52 119.5t120 42.5q67 0 107 -44t41 -118zM970 296q0 122 -65 193t-174 71q-142 0 -221 -107q-65 107 -204 107q-118 0 -184.5 -76t-66.5 -211q0 -134 66.5 -210.5t184.5 -76.5q138 0 205 107q80 -107 236 -107q105 0 202 42v85q-93 -51 -197 -51
q-89 0 -139 48.5t-56 141.5h413v44zM306 484q72 0 114 -57t42 -154q0 -98 -42 -154.5t-114 -56.5q-73 0 -114.5 56.5t-41.5 154.5t42 154.5t114 56.5z" />
    <glyph glyph-name="Scedilla" unicode="&#x15e;" horiz-adv-x="635" 
d="M535 705q-111 37 -213 37q-120 0 -188 -55.5t-68 -152.5q0 -83 49.5 -130t159.5 -69l60 -12q75 -15 108 -45t33 -84q0 -62 -46 -95t-130 -33q-110 0 -231 68v-102q123 -46 231 -46q137 0 208 54.5t71 160.5q0 89 -52.5 142t-162.5 74l-60 12q-80 15 -109.5 39.5
t-29.5 73.5q0 58 43.5 89t124.5 31q92 0 202 -53v96zM359 0h-58q43 -59 43 -87q0 -46 -58 -46q-43 0 -76 16v-64q42 -12 86 -12q116 0 116 88q0 46 -53 105z" />
    <glyph glyph-name="scedilla" unicode="&#x15f;" horiz-adv-x="521" 
d="M443 531q-75 29 -175 29q-101 0 -155.5 -42t-54.5 -119q0 -64 37 -100t121 -54l31 -7q83 -18 108 -38q25 -19 25 -56q0 -40 -34 -61.5t-98 -21.5q-94 0 -194 52v-93q105 -34 192 -34q105 0 165.5 44.5t60.5 120.5q0 67 -40 104t-136 58l-31 7q-70 15 -95 33t-25 50
q0 82 134 82q84 0 164 -39v85zM302 0h-58q43 -59 43 -87q0 -46 -58 -46q-43 0 -76 16v-64q42 -12 86 -12q116 0 116 88q0 46 -53 105z" />
    <glyph glyph-name="Scaron" unicode="&#x160;" horiz-adv-x="635" 
d="M535 705q-111 37 -213 37q-120 0 -188 -55.5t-68 -152.5q0 -83 49.5 -130t159.5 -69l60 -12q75 -15 108 -45t33 -84q0 -62 -46 -95t-130 -33q-110 0 -231 68v-102q123 -46 231 -46q137 0 208 54.5t71 160.5q0 89 -52.5 142t-162.5 74l-60 12q-80 15 -109.5 39.5
t-29.5 73.5q0 58 43.5 89t124.5 31q92 0 202 -53v96zM272 798h92l103 130h-68l-81 -87l-81 87h-68z" />
    <glyph glyph-name="scaron" unicode="&#x161;" horiz-adv-x="521" 
d="M443 531q-75 29 -175 29q-101 0 -155.5 -42t-54.5 -119q0 -64 37 -100t121 -54l31 -7q83 -18 108 -38q25 -19 25 -56q0 -40 -34 -61.5t-98 -21.5q-94 0 -194 52v-93q105 -34 192 -34q105 0 165.5 44.5t60.5 120.5q0 67 -40 104t-136 58l-31 7q-70 15 -95 33t-25 50
q0 82 134 82q84 0 164 -39v85zM225 616h72l120 184h-68l-88 -120l-88 120h-68z" />
    <glyph glyph-name="Ydieresis" unicode="&#x178;" horiz-adv-x="611" 
d="M-2 729l258 -382v-347h99v347l258 382h-106l-201 -300l-202 300h-106zM352 913v-99h99v99h-99zM161 913v-99h99v99h-99z" />
    <glyph glyph-name="Zcaron" unicode="&#x17d;" horiz-adv-x="685" 
d="M56 729v-83h450l-461 -571v-75h595v83h-472l461 571v75h-573zM297 798h92l103 130h-68l-81 -87l-81 87h-68z" />
    <glyph glyph-name="zcaron" unicode="&#x17e;" horiz-adv-x="525" 
d="M55 547v-72h326l-338 -393v-82h439v72h-338l338 393v82h-427zM227 616h72l120 184h-68l-88 -120l-88 120h-68z" />
    <glyph glyph-name="florin" unicode="&#x192;" horiz-adv-x="636" 
d="M626 742q-44 18 -97 18q-74 0 -122.5 -47.5t-65.5 -137.5l-31 -161h-136v-70h121l-67 -334q-17 -81 -43.5 -114.5t-73.5 -33.5q-43 0 -96 32v-81q43 -21 100 -21q91 0 137 52q45 50 74 190l62 310h155v70h-140l29 152q23 124 115 124q42 0 79 -28v80z" />
    <glyph glyph-name="circumflex" unicode="&#x2c6;" 
d="M214 800l-120 -184h68l88 120l88 -120h68l-120 184h-72z" />
    <glyph glyph-name="caron" unicode="&#x2c7;" 
d="M214 616h72l120 184h-68l-88 -120l-88 120h-68z" />
    <glyph glyph-name="breve" unicode="&#x2d8;" 
d="M97 785q11 -140 153 -140t153 140h-58q-12 -73 -95 -73q-84 0 -95 73h-58z" />
    <glyph glyph-name="dotaccent" unicode="&#x2d9;" 
d="M200 758v-100h100v100h-100z" />
    <glyph glyph-name="ring" unicode="&#x2da;" 
d="M324 744q0 -31 -21.5 -52.5t-52.5 -21.5q-32 0 -53 21t-21 53q0 31 21 52.5t53 21.5q31 0 52.5 -21.5t21.5 -52.5zM384 744q0 56 -39 95t-95 39t-95 -39t-39 -95t39 -95t95 -39t95 39t39 95z" />
    <glyph glyph-name="ogonek" unicode="&#x2db;" 
d="M215 0q-53 -59 -53 -105q0 -45 28 -66.5t88 -21.5q32 0 66 10v65q-33 -15 -61 -15q-53 0 -53 45q0 29 43 88h-58z" />
    <glyph glyph-name="tilde" unicode="&#x2dc;" 
d="M248 669q34 -30 68 -30q44 0 69 36t26 102h-61q-1 -76 -37 -76q-11 0 -33 19l-28 27q-34 30 -68 30q-44 0 -69 -36t-26 -102h61q1 76 37 76q11 0 33 -19z" />
    <glyph glyph-name="hungarumlaut" unicode="&#x2dd;" 
d="M373 800l-100 -184h66l121 184h-87zM210 800l-93 -184h67l109 184h-83z" />
    <glyph glyph-name="Omega" unicode="&#x3a9;" horiz-adv-x="764" 
d="M726 87h-156q78 69 113 141t35 167q0 152 -94 247q-94 96 -242 96q-149 0 -243 -97q-93 -96 -93 -251q0 -90 35.5 -162.5t112.5 -140.5h-156v-87h293v87q-87 47 -135.5 128t-48.5 180q0 118 64 188q65 71 171 71q104 0 169 -71t65 -188q0 -99 -48 -180t-135 -128v-87h293
v87z" />
    <glyph glyph-name="pi" unicode="&#x3c0;" horiz-adv-x="589" 
d="M566 446l17 77h-434q-82 0 -116 -31q-35 -30 -48 -111h78q7 65 60 65h20l-95 -446h88l95 446h159l-39 -184q-19 -90 -22 -114q-5 -38 -5 -57q0 -99 117 -99q22 0 54 8l15 69q-30 -5 -49 -5q-27 0 -38.5 12t-11.5 40q0 27 15 92l51 238h89z" />
    <glyph glyph-name="uni10A0" unicode="&#x10a0;" horiz-adv-x="486" 
d="M445 292q0 137 -95 235q-96 99 -100 223h-88q1 -144 97 -238q96 -93 96 -220q0 -210 -111 -210q-112 0 -112 190v62h-91v-63q0 -271 203 -271q201 0 201 292z" />
    <glyph glyph-name="uni10A1" unicode="&#x10a1;" horiz-adv-x="487" 
d="M355 250q0 -168 -110 -168q-111 0 -111 168q0 131 112 134q109 -3 109 -134zM446 250q0 169 -157 212q67 55 66 160q-20 128 -226 127h-74v-207h77v124q128 0 138 -67q-10 -82 -68 -135q-160 -45 -160 -214q-1 -250 203 -250q201 0 201 250z" />
    <glyph glyph-name="uni10A2" unicode="&#x10a2;" horiz-adv-x="565" 
d="M432 222q0 -140 -147 -140q-77 0 -115.5 36t-37.5 107q-1 70 38 105t116 36q146 0 146 -144zM522 225q0 195 -181 217q0 20 55 54t55 86q0 84 -41.5 126t-124.5 41q-169 0 -171 -138v-54h90v54q0 55 81 54q37 1 57 -20t22 -63q0 -38 -64 -72q-63 -32 -65 -64
q-194 -27 -191 -221q-3 -225 240 -226q238 1 238 226z" />
    <glyph glyph-name="uni10A3" unicode="&#x10a3;" horiz-adv-x="800" 
d="M667 476q0 -176 -111 -176t-111 176q0 190 111 190t111 -190zM631 0v82h-90q-410 0 -410 414q0 170 113 170q110 0 112 -192q-2 -258 200 -258t201 259v1q0 274 -201 274q-111 0 -156 -84q-45 84 -156 84q-183 0 -203 -254q0 -496 499 -496h91z" />
    <glyph glyph-name="uni10A4" unicode="&#x10a4;" horiz-adv-x="486" 
d="M445 210v334q0 206 -201 206q-101 0 -152 -46.5t-50 -138.5q0 -146 150 -161v88q-61 12 -61 69q0 104 110 106q114 0 114 -123v-334q0 -128 -111 -128q-113 0 -113 128v40h-90v-40q1 -210 200 -211q204 1 204 211z" />
    <glyph glyph-name="uni10A5" unicode="&#x10a5;" horiz-adv-x="486" 
d="M445 210v40q0 111 -86 147q86 63 86 163q0 190 -201 190q-204 0 -202 -206v-49h89v49q0 61 28 91.5t83 29.5q113 2 113 -108q0 -108 -99 -123h-75v-82h75q99 -3 99 -102v-40q0 -128 -111 -128q-113 0 -113 128v102h-90v-102q0 -210 203 -210q201 0 201 210z" />
    <glyph glyph-name="uni10A6" unicode="&#x10a6;" horiz-adv-x="590" 
d="M549 250q0 117 -70 171q-69 54 -118 48q29 41 29 93q-8 170 -190 188q-174 -18 -178 -193q8 -157 134 -176q-42 -25 -46 -136q5 -245 217 -245q222 0 222 250zM452 250q0 -168 -125 -168q-127 0 -127 168q0 140 131 142q121 -6 121 -142zM302 561q-4 -106 -102 -112
q-85 13 -91 112q7 94 91 105q99 -10 102 -105z" />
    <glyph glyph-name="uni10A7" unicode="&#x10a7;" horiz-adv-x="800" 
d="M355 250q0 -168 -111 -168q-113 0 -113 168v267q0 149 113 149q111 0 111 -149v-267zM759 517q0 233 -218 233q-122 0 -144 -109q-22 109 -153 109q-203 0 -203 -233v-267q0 -250 199 -250q205 0 205 250v267q0 149 96 149q126 0 126 -149v-267q0 -168 -126 -168v-82
q109 -2 163.5 60.5t54.5 189.5v267z" />
    <glyph glyph-name="uni10A8" unicode="&#x10a8;" horiz-adv-x="486" 
d="M445 517q0 233 -201 233q-203 0 -203 -233v-267q0 -221 164 -250v82q-74 15 -74 168v267q0 149 113 149q111 0 111 -149v-267q0 -153 -71 -168v-82q161 27 161 250v267z" />
    <glyph glyph-name="uni10A9" unicode="&#x10a9;" horiz-adv-x="486" 
d="M445 210v40q0 111 -86 147q86 63 86 163q-10 172 -243 190v-85q153 -9 153 -108q0 -108 -99 -123h-75v-82h75q99 -3 99 -102v-40q0 -128 -111 -128q-113 0 -113 128v40h-90v-40q0 -210 203 -210q201 0 201 210z" />
    <glyph glyph-name="uni10AA" unicode="&#x10aa;" horiz-adv-x="1111" 
d="M1065 489q5 261 -196 261q-111 0 -157 -99q-45 99 -156 99q-112 0 -155 -99q-47 99 -157 99q-203 0 -202 -274q31 -426 563 -476h202v82h-202q-442 28 -474 395q0 189 113 189q111 0 111 -177v-85h90v85q0 177 111 177t111 -177v-85h90v85q1 177 112 177t111 -177
q-6 -162 -126 -168v-82q200 10 211 250z" />
    <glyph glyph-name="uni10AB" unicode="&#x10ab;" horiz-adv-x="486" 
d="M355 250q0 -168 -111 -168q-113 0 -113 168q0 135 110 135q114 -5 114 -135zM445 250v294q0 206 -201 206q-101 0 -152 -47.5t-50 -142.5h88q1 105 111 107q114 -1 114 -123v-113q-43 41 -114 45q-200 -11 -200 -226q0 -250 203 -250q201 0 201 250z" />
    <glyph glyph-name="uni10AC" unicode="&#x10ac;" horiz-adv-x="486" 
d="M355 250q0 -168 -113 -168q-111 0 -111 168q0 130 111 135q113 -2 113 -135zM445 250q0 224 -203 226q-56 -2 -111 -57v125q0 122 113 122h201v84h-203q-202 0 -200 -206v-297q-1 -247 200 -247q203 0 203 250z" />
    <glyph glyph-name="uni10AD" unicode="&#x10ad;" horiz-adv-x="800" 
d="M757 517q0 233 -216 233q-96 0 -141 -84q-45 84 -156 84q-203 0 -203 -233v-267q0 -224 203 -250v82q-113 20 -113 168v267q0 149 113 149q111 0 111 -122v-249h90v245q0 126 96 126q126 0 126 -149v-267q0 -168 -125 -168v-82q217 25 215 244v273z" />
    <glyph glyph-name="uni10AE" unicode="&#x10ae;" horiz-adv-x="486" 
d="M444 210q0 139 -100 182q100 43 100 152q0 206 -314 206h-88v-83h88q224 0 225 -123v-2q-2 -107 -113 -107h-75v-86h74q57 1 85.5 -34t28.5 -105q0 -128 -114 -128q-110 0 -110 128v64h-90v-64q0 -210 201 -210q202 0 202 210z" />
    <glyph glyph-name="uni10AF" unicode="&#x10af;" horiz-adv-x="552" 
d="M511 210v540h-321v-78q63 -99 64 -156q0 -114 -74 -114q-69 2 -69 109v68h-89v-68q0 -187 159 -187q163 0 163 193q0 70 -49 149h126v-456q0 -128 -111 -128t-111 117v23h-90v-23q0 -198 200 -200q202 1 202 211z" />
    <glyph glyph-name="uni10B0" unicode="&#x10b0;" horiz-adv-x="800" 
d="M759 247q0 229 -210 229q-104 0 -149 -75q-45 73 -158 75q-111 26 -111 110q0 79 110 81h425v83h-425q-100 0 -150 -41.5t-49 -124.5q-2 -95 92 -145q-93 -50 -92 -192q-1 -247 200 -247v82q-111 0 -111 168q0 135 111 135q113 -2 113 -151v-84h89v84q0 151 112 151
q110 -2 110 -135q0 -168 -110 -168v-82q203 0 203 247z" />
    <glyph glyph-name="uni10B1" unicode="&#x10b1;" horiz-adv-x="485" 
d="M444 221q0 78 -45 126q-45 49 -44 128h-85q0 -91 42 -133q43 -43 44 -121q-1 -139 -114 -139q-111 0 -112 139v529h-89v-529q0 -221 200 -221q203 0 203 221z" />
    <glyph glyph-name="uni10B2" unicode="&#x10b2;" horiz-adv-x="709" 
d="M306 580q2 86 81 86q83 0 83 -86q1 -91 -83 -93q-81 0 -81 93zM667 250q0 199 -191 204q80 29 80 126q0 170 -169 170q-168 0 -168 -170q7 -97 77 -129q-75 -32 -77 -121q7 -135 181 -126v75q-85 0 -94 51q2 75 59 76h54q160 -10 160 -156q0 -168 -202 -168
q-246 0 -246 169v355h-90v-355q0 -251 336 -250q290 -2 290 249z" />
    <glyph glyph-name="uni10B3" unicode="&#x10b3;" horiz-adv-x="555" 
d="M514 199v343q0 104 -42 156t-127 51q-77 1 -120 -70q-50 71 -113 71h-90v-84h92q62 0 62 -116v-110h91v110q0 116 78 116q72 0 70 -122v-345q0 -117 -125 -117q-134 0 -134 117v122h-89v-122q0 -199 223 -200q209 2 224 200z" />
    <glyph glyph-name="uni10B4" unicode="&#x10b4;" horiz-adv-x="800" 
d="M355 499q0 -174 -114 -174q-110 2 -110 174q0 167 113 167q111 0 111 -167zM757 210q0 96 -81 141q82 39 81 193q0 206 -216 206q-96 0 -144 -84q-42 84 -153 84q-203 0 -203 -251q0 -255 200 -258q204 0 204 258q0 167 96 167q126 0 126 -122q0 -153 -68 -155h-59v-83
h59q68 -2 68 -96q0 -128 -138 -128q-131 0 -135 82h-88q13 -163 223 -165q228 1 228 211z" />
    <glyph glyph-name="uni10B5" unicode="&#x10b5;" horiz-adv-x="485" 
d="M444 210v540h-90v-206q-64 41 -120 43q-153 -1 -153 -181h89q2 95 66 98q118 -15 118 -95v-199q0 -128 -112 -128q-110 0 -112 128v77h-89v-77q0 -105 50 -157.5t150 -51.5q101 -1 152 51.5t51 157.5z" />
    <glyph glyph-name="uni10B6" unicode="&#x10b6;" horiz-adv-x="800" 
d="M667 0v82h-111q-425 0 -425 435q0 149 113 149q111 0 111 -149v-150h90v150q0 149 111 149t111 -149q0 -183 -126 -183v-84q218 0 218 267q0 233 -203 233q-111 0 -156 -86q-45 86 -156 86q-204 0 -202 -233q-1 -517 514 -517h111z" />
    <glyph glyph-name="uni10B7" unicode="&#x10b7;" horiz-adv-x="486" 
d="M445 210v540h-90v-233q0 -107 -113 -143q-111 0 -111 143q0 163 51 233h-82q-59 -71 -59 -233q0 -224 203 -226q77 2 111 70v-151q0 -128 -113 -128q-111 0 -111 128v12h-90v-12q0 -210 201 -211q203 2 203 211z" />
    <glyph glyph-name="uni10B8" unicode="&#x10b8;" horiz-adv-x="501" 
d="M370 234q0 -152 -111 -152t-113 152q1 150 113 151q111 -1 111 -151zM460 234v310q-2 103 -42 154.5t-116 50.5q-79 1 -120 -73q-32 74 -160 73v-82q114 0 117 -90v-36h85v36q3 90 78 90q58 0 68 -123v-108q-51 32 -111 33q-203 0 -202 -235q0 -234 202 -234
q201 0 201 234z" />
    <glyph glyph-name="uni10B9" unicode="&#x10b9;" horiz-adv-x="486" 
d="M291 586q-4 -82 -47 -157q-81 -4 -113 -47v115q0 169 84 170q74 -1 76 -81zM321 419q57 84 58 167q-2 164 -164 164q-174 0 -173 -253v-497h89v201q0 148 113 148q102 -7 111 -139q0 -145 -56 -210l87 -15q59 80 59 225q-13 169 -124 209z" />
    <glyph glyph-name="uni10BA" unicode="&#x10ba;" horiz-adv-x="576" 
d="M534 555q1 97 -50 146t-152 49v-84q112 0 112 -110q-7 -121 -117 -121h-46v-85h49q102 0 114 -100q2 -168 -152 -168q-161 0 -161 168v267q0 162 71 233h-92q-69 -70 -69 -233v-267q0 -250 251 -250q243 0 243 250q0 100 -123 142q123 44 122 163z" />
    <glyph glyph-name="uni10BB" unicode="&#x10bb;" horiz-adv-x="486" 
d="M355 250q0 -168 -111 -168q-113 0 -113 168q0 135 110 135q114 -1 114 -135zM445 250v500h-90v-331q-25 42 -111 53q-203 0 -203 -222q0 -250 203 -250q201 0 201 250z" />
    <glyph glyph-name="uni10BC" unicode="&#x10bc;" horiz-adv-x="495" 
d="M42 549l-1 -299q1 -250 203 -250q201 0 201 250q0 226 -203 226q-66 0 -111 -47v120q0 117 79 118q71 -2 71 -90v-17h85v17q3 89 108 89v84q-105 0 -153 -74q-41 74 -111 74q-169 0 -168 -199v-2zM131 250q0 135 110 135q114 0 114 -135q0 -168 -111 -168
q-113 0 -113 168z" />
    <glyph glyph-name="uni10BD" unicode="&#x10bd;" horiz-adv-x="486" 
d="M131 517q0 74 78 74q71 0 73 -74q-3 -76 -77 -78q-74 0 -74 78zM445 205q0 129 -121 214q17 20 31 60h89v77h-89q-14 42 -40 64v129h-83v-87q-11 4 -40 4q-152 -10 -150 -150q-1 -141 150 -151l65 11q98 -75 98 -166q0 -128 -111 -128q-113 0 -113 128v12h-90l1 -12
q0 -210 199 -211q204 1 204 206z" />
    <glyph glyph-name="uni10BE" unicode="&#x10be;" horiz-adv-x="485" 
d="M354 250q0 -168 -112 -168q-111 0 -111 168q0 135 111 135q112 -1 112 -135zM444 250q0 225 -202 226q-73 -2 -111 -47v321h-90v-500q0 -250 201 -250q202 0 202 250z" />
    <glyph glyph-name="uni10BF" unicode="&#x10bf;" horiz-adv-x="486" 
d="M444 174q0 88 -80 183q-78 93 -80 152v50l158 -60v81l-158 61v109h-85v-83l-158 63v-83l156 -62v-78q0 -77 78 -169q78 -90 80 -164q-21 -92 -113 -92q-111 0 -111 128v69h-90v-69q0 -209 200 -211q184 1 203 175z" />
    <glyph glyph-name="uni10C0" unicode="&#x10c0;" horiz-adv-x="486" 
d="M444 174q0 77 -52 117q52 36 52 99q0 50 -52 87q52 40 52 109q0 164 -252 164h-131v-84h131q162 0 162 -80q0 -69 -48 -66h-105v-83h101q53 -2 53 -48q0 -55 -53 -57h-101v-82h101q53 0 53 -76q0 -92 -113 -92q-111 0 -111 119v21h-90v-21q0 -201 201 -201q202 0 202 174
z" />
    <glyph glyph-name="uni10C1" unicode="&#x10c1;" horiz-adv-x="514" 
d="M254 0q218 0 218 187q0 92 -57 134q57 45 56 96q1 49 -51 97q52 42 51 90q1 73 -52 109.5t-159 36.5v-84q121 0 124 -62q-3 -47 -50 -49h-74v-89h74q47 0 50 -49q-3 -51 -49 -51h-75v-86h75q46 -1 46 -93q0 -105 -126 -105q-124 0 -124 128v469h-90v-469q0 -210 213 -210
z" />
    <glyph glyph-name="uni10C2" unicode="&#x10c2;" horiz-adv-x="486" 
d="M131 250v264q0 152 111 152q113 0 113 -152v-264q0 -168 -111 -168q-113 0 -113 168zM42 -8v-92q90 12 202 100q110 -88 198 -100v89q-85 10 -116 28q119 65 119 233v264q0 118 -51 177t-152 58q-100 1 -150.5 -58t-49.5 -177v-264q0 -168 117 -231q-29 -19 -117 -27z
" />
    <glyph glyph-name="uni10C3" unicode="&#x10c3;" horiz-adv-x="486" 
d="M445 210q0 208 -113 225q113 80 113 315h-404v-176h90v92h224q-32 -191 -114 -191h-74v-88h74q114 -1 114 -177q0 -128 -111 -128q-113 0 -113 113v55h-89v-51q0 -199 199 -200q204 1 204 211z" />
    <glyph glyph-name="uni10C4" unicode="&#x10c4;" horiz-adv-x="486" 
d="M445 210q0 140 -126 187q126 49 126 203v150q-80 -85 -203 -83q-111 0 -111 83h-90q0 -164 201 -168q41 0 114 19q-2 -132 -114 -162h-75v-87h85q103 -18 103 -142q0 -128 -113 -128q-111 0 -111 128v12h-90v-12q0 -210 201 -211q203 2 203 211z" />
    <glyph glyph-name="uni10C5" unicode="&#x10c5;" horiz-adv-x="545" 
d="M445 221h59v85l-59 -1v134h59v86h-59v61q0 164 -201 164q-203 0 -203 -164q0 -174 105 -219q-105 -47 -105 -193q0 -173 203 -175q201 1 201 175v47zM131 586q0 80 113 80q111 0 111 -80v-174h-114q-110 0 -110 174zM355 324v-150q0 -92 -111 -92q-113 0 -113 92
q0 147 110 150h114z" />
    <glyph glyph-name="uni10C6" unicode="&#x10c6;" horiz-adv-x="801" 
d="M669 509q0 -148 -112 -148q-111 0 -111 148q0 157 111 157q112 0 112 -157zM759 507q0 243 -202 243q-111 0 -161 -71q-41 71 -152 71q-201 0 -203 -239q1 -240 211 -240v86q-120 5 -120 154q0 155 112 155q111 0 111 -157v-335q0 -92 -111 -92v-82q202 0 202 174v138
q53 -41 108 -41q205 0 205 236z" />
    <glyph glyph-name="uni10D0" unicode="&#x10d0;" horiz-adv-x="461" 
d="M431 239q-16 138 -155 198q-45 19 -56 83h-87q23 -124 138 -159q63 -46 73 -122q-10 -148 -111 -157q-103 9 -112 142l14 65l-84 20l-21 -85q17 -214 201 -224q186 13 200 239z" />
    <glyph glyph-name="uni10D1" unicode="&#x10d1;" horiz-adv-x="461" 
d="M431 254q-15 210 -143 252v74q-23 105 -83 117q-61 13 -61 54h-88q0 -80 68 -92q69 -12 76 -82v-71q-157 -32 -170 -252q9 -241 205 -254q185 15 196 254zM345 254q-9 -163 -110 -172q-106 9 -116 172q9 167 117 185q103 -18 109 -185z" />
    <glyph glyph-name="uni10D2" unicode="&#x10d2;" horiz-adv-x="510" 
d="M480 21q-20 185 -147 213q66 49 71 130q0 136 -166 145q-164 -9 -170 -132l15 -73l78 22l-7 43q1 54 84 56q81 -5 78 -61q-7 -78 -73 -118q-198 -32 -213 -225q11 -215 226 -225q209 11 224 225zM394 21q-15 -135 -139 -144q-125 7 -135 144q9 134 138 151
q132 -17 136 -151z" />
    <glyph glyph-name="uni10D3" unicode="&#x10d3;" horiz-adv-x="760" 
d="M84 -76l41 -63q61 54 150 48q152 -7 220 -110h91q-49 144 -306 188q-153 121 -154 275q13 146 102 160q100 -7 96 -167q0 -214 199 -245q190 19 202 250q-8 231 -202 246q-109 0 -154 -94q-45 94 -144 94q-175 -19 -190 -244q3 -153 146 -288l-5 -14q-56 -5 -92 -36z
M638 264q-9 -160 -115 -172q-109 15 -109 163q0 160 109 167q115 -10 115 -158z" />
    <glyph glyph-name="uni10D4" unicode="&#x10d4;" horiz-adv-x="474" 
d="M434 -6v302q-3 206 -189 210q-189 -15 -192 -184q8 -137 138 -161v88q-47 12 -51 75q2 93 105 97q49 1 73.5 -30.5t25.5 -94.5v-307q-10 -102 -111 -113q-104 8 -113 113l15 60l-85 23l-20 -83q14 -180 203 -193q187 14 201 198z" />
    <glyph glyph-name="uni10D5" unicode="&#x10d5;" horiz-adv-x="471" 
d="M431 -3v24q-3 108 -97 136q84 46 95 153q-7 190 -189 199q-179 -9 -190 -194l34 -79l74 29l-19 50q13 108 101 110q46 2 71 -27t28 -88q-21 -108 -89 -116h-50v-68h50q79 -16 94 -104v-26q-10 -108 -113 -119q-99 14 -112 100l10 59l-84 25l-15 -84q18 -169 201 -180
q187 13 200 200z" />
    <glyph glyph-name="uni10D6" unicode="&#x10d6;" horiz-adv-x="484" 
d="M454 249q-13 216 -148 233q45 40 53 124q-12 136 -168 144q-151 -11 -161 -146q4 -127 97 -160q-65 -39 -78 -195q12 -239 202 -249q190 11 203 249zM275 581q-4 -82 -74 -106q-69 9 -90 106q9 85 80 90q75 -5 84 -90zM362 249q-10 -156 -111 -167q-104 11 -114 167
q11 156 113 163q105 -7 112 -163z" />
    <glyph glyph-name="uni10D7" unicode="&#x10d7;" horiz-adv-x="763" 
d="M728 244q-5 245 -187 262q-110 -6 -148 -104q-39 95 -157 104q-183 -20 -201 -252q14 -235 200 -254q185 20 204 244q0 172 102 177q99 -9 97 -177q-13 -112 -103 -162v-82q178 49 193 244zM349 244q-9 -154 -114 -162q-102 4 -111 172q10 160 112 167q113 -20 113 -177z
" />
    <glyph glyph-name="uni10D8" unicode="&#x10d8;" horiz-adv-x="464" 
d="M434 254q-10 232 -201 252q-192 -19 -203 -252q9 -196 134 -264l20 57q-60 83 -63 207q7 159 112 167q102 -6 111 -167q-2 -124 -64 -207l21 -57q119 67 133 264z" />
    <glyph glyph-name="uni10D9" unicode="&#x10d9;" horiz-adv-x="472" 
d="M432 -10v20q-16 127 -120 160q110 45 120 150q-15 177 -276 176v-84q179 2 189 -92q-13 -105 -115 -115h-51v-83h51q96 0 112 -112v-20q-6 -109 -112 -113q-104 5 -111 113l5 36l-85 5l-9 -41q11 -189 200 -194q186 10 202 194z" />
    <glyph glyph-name="uni10DA" unicode="&#x10da;" horiz-adv-x="1021" 
d="M160 -66l53 -65q62 80 192 62q254 -34 265 -132h85q-10 181 -316 203q-284 20 -313 260q9 143 100 155q103 0 108 -113l5 -120h70l5 120q4 116 96 118q94 -2 98 -118l5 -120h71l5 120q5 112 105 113q102 -7 102 -148q3 -98 -92 -158v-81q174 64 182 239q-12 221 -192 232
q-99 -4 -143 -79q-48 80 -141 84q-92 -9 -132 -84q-49 75 -152 79q-177 -10 -191 -239q19 -208 209 -276v-5q-50 -15 -84 -47z" />
    <glyph glyph-name="uni10DB" unicode="&#x10db;" horiz-adv-x="474" 
d="M434 254v303q-7 187 -201 193q-178 -4 -183 -173h90q0 89 93 89q111 0 111 -109v-102q-40 51 -111 51q-194 -9 -203 -252q15 -241 201 -254q200 14 203 254zM344 254q0 -164 -111 -172q-100 9 -114 173q10 160 114 166q107 -5 111 -167z" />
    <glyph glyph-name="uni10DC" unicode="&#x10dc;" horiz-adv-x="473" 
d="M443 254q-10 244 -202 252q-69 0 -111 -62v143q5 75 62 80h209v83h-209q-141 -7 -152 -163v-333q11 -244 201 -254q188 15 202 254zM353 254q-10 -163 -112 -172q-104 9 -111 172q8 158 107 167q108 -6 116 -167z" />
    <glyph glyph-name="uni10DD" unicode="&#x10dd;" horiz-adv-x="748" 
d="M713 257q-13 238 -188 248q-106 0 -151 -94q-45 94 -151 94q-173 -14 -188 -248q15 -192 211 -262v82q-106 65 -120 180q7 157 97 163q106 -13 111 -124l5 -122h71l4 122q4 110 111 124q91 -6 98 -163q-11 -122 -122 -180v-82q197 65 212 262z" />
    <glyph glyph-name="uni10DE" unicode="&#x10de;" horiz-adv-x="464" 
d="M434 239q-9 135 -111 173q91 58 91 138q0 130 -147 150q-146 20 -149 50h-88q0 -84 147 -101q146 -15 148 -98q-1 -82 -85 -92h-59v-85h50q102 -22 113 -135q-9 -149 -113 -157q-101 8 -110 119v49h-91v-50q15 -185 201 -200q189 13 203 239z" />
    <glyph glyph-name="uni10DF" unicode="&#x10df;" horiz-adv-x="566" 
d="M526 -9v528l-327 -64v-53q69 -63 64 -155q0 -88 -74 -88q-68 6 -70 83v64l-89 20v-84q14 -155 160 -162q154 13 160 167q-2 86 -44 152l132 36v-443q-14 -108 -122 -115q-102 4 -111 115h-87q15 -184 200 -195q200 15 208 194z" />
    <glyph glyph-name="uni10FD" unicode="&#x10e0;" horiz-adv-x="758" 
d="M723 274q-14 218 -193 232q-106 -1 -151 -94q-45 92 -150 94l-61 -26q101 142 403 215l-30 75q-311 -78 -409 -213q-95 -134 -97 -283q9 -225 216 -279v82q-125 53 -125 197q9 141 102 147q106 -10 111 -134l5 -115h70l5 115q6 124 111 134q96 -9 103 -147
q0 -148 -127 -197v-82q206 54 217 279z" />
    <glyph glyph-name="uni10E1" unicode="&#x10e1;" horiz-adv-x="472" 
d="M442 249q0 72 -70 138q-70 67 -1 112l-64 35q-92 -87 -24 -149t68 -136q-8 -158 -109 -167q-101 8 -114 167v501h-88v-501q10 -238 202 -249q185 11 200 249z" />
    <glyph glyph-name="_66" unicode="&#x10e2;" horiz-adv-x="610" 
d="M121 150q1 188 144 255v-236h85v233q142 -55 142 -252q0 -240 -186 -280q-184 41 -185 280zM30 150q4 -333 278 -360q272 27 272 357q-9 302 -230 335v165h-85v-163q-221 -34 -235 -334z" />
    <glyph glyph-name="uni10E3" unicode="&#x10e3;" horiz-adv-x="512" 
d="M472 -11v322q-3 182 -158 196q-79 -10 -118 -92q-27 82 -154 92h-22v-82h24q112 -10 112 -95l4 -98h74l5 98q0 84 75 95q70 -11 72 -114v-322q-8 -103 -112 -113q-108 7 -114 113l14 116l-85 14l-14 -130q14 -183 199 -194q183 16 198 194z" />
    <glyph glyph-name="uni10E4" unicode="&#x10e4;" horiz-adv-x="783" 
d="M743 -28v17q-11 101 -97 135q93 59 97 167q-14 206 -193 218q-110 0 -157 -104q-44 104 -155 104q-185 -15 -203 -257q17 -230 203 -245q186 15 201 245q0 172 111 173q50 1 75.5 -32.5t25.5 -101.5q0 -107 -72 -132h-55v-73h55q71 -16 72 -99v-15q-7 -91 -160 -98
q-136 7 -146 65h-89q13 -133 235 -145q237 15 252 178zM349 252q-11 -166 -111 -162q-100 -3 -112 162q12 160 112 173q111 -11 111 -173z" />
    <glyph glyph-name="uni10E5" unicode="&#x10e5;" horiz-adv-x="474" 
d="M434 -11v761h-90v-306q-39 58 -111 62q-172 -15 -183 -182q9 -146 141 -165v82q-46 19 -51 83q6 93 93 97q101 -6 111 -157v-275q-9 -105 -113 -113q-102 8 -110 113l9 53l-85 9l-15 -62q14 -180 201 -193q185 14 203 193z" />
    <glyph glyph-name="uni10E6" unicode="&#x10e6;" horiz-adv-x="749" 
d="M119 -91l49 -65q33 42 64 52q31 9 104 -2q149 -38 137 -100h86q-1 148 -221 173q-190 58 -214 283q1 151 101 172q104 -8 109 -118l5 -122h71l4 122q5 113 104 118q105 -15 105 -138q1 -133 -102 -187v-82q194 80 192 269q-12 211 -197 222q-98 0 -141 -99
q-47 99 -150 99q-174 -15 -190 -256q19 -205 166 -290l-15 -9q-44 -16 -67 -42z" />
    <glyph glyph-name="uni10E7" unicode="&#x10e7;" horiz-adv-x="474" 
d="M434 -13v500h-90v-252q-20 -91 -113 -104q-102 9 -112 153q11 124 102 186l-63 37q-121 -77 -128 -223q26 -219 201 -234q85 7 113 62v-123q0 -102 -113 -114q-111 19 -111 114h-90q15 -184 201 -194q190 11 203 192z" />
    <glyph glyph-name="uni10E8" unicode="&#x10e8;" horiz-adv-x="488" 
d="M362 254q0 -89 -28.5 -131.5t-86.5 -40.5q-100 12 -113 172q14 141 113 153q110 -12 115 -153zM448 254v295q0 197 -154 201q-79 0 -119 -103q-40 103 -123 103h-32v-83h27q91 -11 96 -87v-41h65v41q5 77 77 87q70 -1 73 -118v-120q-20 56 -111 62q-187 -16 -202 -237
q17 -234 202 -254q196 4 201 254z" />
    <glyph glyph-name="uni10E9" unicode="&#x10e9;" horiz-adv-x="472" 
d="M287 592q-5 -75 -36 -105q-105 -25 -121 -70v154q0 91 62 96q90 -4 95 -75zM312 470q45 28 54 131q-9 138 -174 149q-144 -4 -152 -173v-577h90v255q0 131 113 145q109 -25 109 -136q-5 -159 -95 -264l88 -10q93 112 97 274q-7 142 -130 206z" />
    <glyph glyph-name="_74" unicode="&#x10ea;" horiz-adv-x="543" 
d="M513 312q-18 79 -81 101q-62 24 -57 93h-89q-6 -91 60 -116q67 -25 82 -80q2 -85 -98 -113h-70v-66h74q101 -35 92 -137q-25 -122 -156 -124q-113 8 -150 190v154q25 206 51 292h-92q-23 -97 -37 -205q-12 -105 -12 -117v-124q43 -259 241 -270q205 7 242 205
q-7 127 -132 169q125 41 132 148z" />
    <glyph glyph-name="uni10EB" unicode="&#x10eb;" horiz-adv-x="474" 
d="M434 250v500h-90v-300q-33 56 -113 56q-186 -20 -201 -260q15 -236 201 -246q184 16 203 250zM344 250q-14 -156 -113 -168q-101 12 -112 164q10 162 110 176q115 -10 115 -172z" />
    <glyph glyph-name="_76" unicode="&#x10ec;" horiz-adv-x="488" 
d="M126 254q5 141 115 153q102 -12 112 -153q-13 -169 -122 -172q-94 4 -105 172zM40 549v-295q14 -239 191 -254q195 10 211 254q-15 220 -201 237q-85 -10 -111 -67v125q1 118 73 118q73 -11 77 -83v-35h66v36q2 65 95 82h27v83h-32q-92 -15 -129 -103q-35 98 -112 103
q-155 -20 -155 -201z" />
    <glyph glyph-name="uni10ED" unicode="&#x10ed;" horiz-adv-x="464" 
d="M431 -10q-12 86 -64 117t-64 90v37q40 27 40 68h91v78h-89q-2 41 -41 65v305h-81v-264l-37 4q-142 -20 -155 -151q14 -137 149 -149l43 9q10 -73 58 -101q47 -27 64 -108q-10 -106 -112 -114q-99 8 -113 113l10 42l-85 5l-15 -46q16 -184 203 -194q188 17 198 194z
M115 340q6 66 83 74q72 -4 78 -74q-6 -75 -82 -78q-73 0 -79 78z" />
    <glyph glyph-name="uni10EE" unicode="&#x10ee;" horiz-adv-x="473" 
d="M443 254q-12 241 -203 252q-60 0 -112 -72v316h-88v-496q10 -243 200 -254q191 11 203 254zM351 254q-7 -163 -111 -172q-105 9 -112 172q0 151 112 167q102 -12 111 -167z" />
    <glyph glyph-name="uni10EF" unicode="&#x10ef;" horiz-adv-x="466" 
d="M434 -10q-11 102 -81 148t-70 106v56l153 -75v86l-153 71v217h-85v-180l-158 62v-87l158 -58v-92q15 -103 83 -138q67 -34 63 -116q-10 -104 -114 -114q-99 7 -110 114l10 46h-90l-10 -46q14 -184 200 -194q181 9 204 194z" />
    <glyph glyph-name="uni10F0" unicode="&#x10f0;" horiz-adv-x="474" 
d="M434 174q0 66 -76 117q76 33 76 94q0 65 -74 97q74 29 74 95q0 102 -113 114q-112 13 -112 59h-90q0 -98 112 -114q113 -17 113 -57q0 -58 -49 -64h-90v-73h86q53 -8 53 -56q0 -50 -53 -59h-86v-72h86q53 -18 54 -85q-10 -76 -114 -88q-103 7 -112 119v49h-89v-49
q14 -187 204 -201q185 11 200 174z" />
    <glyph glyph-name="uni10F1" unicode="&#x10f1;" horiz-adv-x="510" 
d="M473 -60q7 96 -91 137q89 23 91 94q-3 88 -95 111q92 20 95 110q0 34 -9 57q-8 24 -81 43q87 22 90 117q-3 48 -76 75q-72 28 -72 66h-85q1 -84 71 -100q71 -17 75 -41q0 -69 -50 -74h-61v-89h61q45 -6 50 -54q-4 -60 -49 -66h-62v-86h62q44 -9 49 -69q-4 -45 -50 -56
h-61v-88h61q50 -5 50 -87q-9 -62 -149 -64q-102 0 -115 148q0 139 22 274q23 140 -22 264h-90q50 -124 24 -264q-25 -141 -26 -274q16 -223 207 -229q219 2 236 145z" />
    <glyph glyph-name="uni10F2" unicode="&#x10f2;" horiz-adv-x="464" 
d="M50 -29v-101q109 35 183 127q72 -93 181 -127v101q-71 5 -99 43q119 83 119 237q-8 245 -201 255q-189 -10 -203 -255q0 -154 116 -237q-26 -39 -96 -43zM121 251q0 170 112 170q111 0 111 -170q0 -155 -111 -194q-112 39 -112 194z" />
    <glyph glyph-name="uni10F3" unicode="&#x10f3;" horiz-adv-x="464" 
d="M434 -10v16q-19 132 -141 191q137 79 141 309h-384v-169h88v84h190q11 -137 -118 -194h-55v-77h55q115 -11 134 -144v-16q0 -114 -111 -114t-113 114l10 44l-85 10l-15 -54q0 -171 200 -195q196 15 204 195z" />
    <glyph glyph-name="uni10F4" unicode="&#x10f4;" horiz-adv-x="464" 
d="M434 -10v27q0 113 -128 154q121 71 128 246v128q-108 -83 -201 -81q-112 19 -115 87q3 85 116 114v85q-193 -43 -204 -199q0 -135 204 -166q57 -8 109 14q2 -164 -113 -187h-75v-86h75q114 -17 114 -109v-27q0 -113 -111 -113t-113 113h-90q0 -180 203 -194
q201 14 201 194z" />
    <glyph glyph-name="uni10F5" unicode="&#x10f5;" horiz-adv-x="521" 
d="M434 250h57v86h-57v78h57v86h-57v90q0 160 -201 160q-203 0 -203 -160q0 -172 199 -176h115v-78h-115q-199 -1 -199 -174q0 -162 201 -163q203 2 203 163v88zM121 589q0 77 112 77q111 0 111 -76v-90h-115q-108 0 -108 89zM344 250v-80q0 -88 -111 -88q-112 0 -112 83
q0 85 108 85h115z" />
    <glyph glyph-name="uni10F6" unicode="&#x10f6;" horiz-adv-x="778" 
d="M748 259q-12 238 -203 247q-111 0 -159 -85q-42 85 -153 85q-193 -10 -203 -247q10 -210 211 -244v86q-111 30 -120 158q9 150 112 162q111 0 111 -162v-280q0 -103 -111 -103v-80q201 0 201 184v77q36 -47 111 -57q191 12 203 259zM656 259q-10 -168 -111 -177
q-107 27 -111 177q11 150 109 165q102 -12 113 -165z" />
    <glyph glyph-name="uni10F7" unicode="&#x10f7;" horiz-adv-x="540" 
d="M510 0q-1 83 -36 136l-74 -44q34 -34 29 -92q-9 -104 -158 -124q-139 17 -152 128q4 132 158 174q155 42 159 171q-16 151 -165 166q-151 0 -170 -151l5 -32l82 15l-5 22q17 62 88 62q70 0 77 -82q-5 -74 -161 -122q-155 -48 -157 -227q18 -186 241 -205q222 25 239 205z
" />
    <glyph glyph-name="uni10F8" unicode="&#x10f8;" horiz-adv-x="465" 
d="M30 494v-507q12 -177 203 -191q180 19 202 193h-89q-7 -102 -113 -113q-97 7 -115 113v100q42 -43 114 -43h1q188 13 202 230q-14 134 -119 238l-83 -30q103 -80 113 -208q-6 -139 -113 -147q-104 10 -115 92v273h-88z" />
    <glyph glyph-name="uni10F9" unicode="&#x10f9;" horiz-adv-x="511" 
d="M118 301q16 123 140 130q119 -8 135 -130q-11 -120 -135 -142q-128 18 -140 142zM30 301q1 -160 180 -202q-115 -41 -116 -152q9 -131 166 -152q166 9 180 137v37h-86v-37q-21 -56 -94 -52q-66 4 -77 72q0 78 142 133q143 55 156 216q-21 196 -223 215
q-203 -17 -228 -215z" />
    <glyph glyph-name="uni10FA" unicode="&#x10fa;" horiz-adv-x="461" 
d="M311 -36l54 45q-46 51 -146 91q-91 38 -95 195q0 61 30.5 93.5t80.5 32.5q51 0 79.5 -29.5t28.5 -84.5q0 -69 -5 -86l70 -29q23 20 23 114q-2 105 -59 152q-58 48 -137 48q-97 0 -151 -66q-54 -65 -54 -146q0 -159 109 -228q-56 -12 -72 -37l-16 -24l63 -36q23 52 95 56
q50 -7 77 -34q27 -25 25 -27z" />
    <glyph glyph-name="uni10FB" unicode="&#x10fb;" horiz-adv-x="365" 
d="M30 480v-85h89v85h-89zM30 84v-84h89v84h-89zM245 285v-84h90v84h-90z" />
    <glyph glyph-name="uni10FC" unicode="&#x10fc;" horiz-adv-x="244" 
d="M169 502q0 -100 -58 -100q-57 0 -57 97q1 82 55 90q57 -1 60 -87zM114 634l-60 -43v81q0 39 34 39l125 -1v40h-114q-89 0 -89 -88v-160q0 -138 101 -138q97 0 103 138q-11 121 -100 132z" />
    <glyph glyph-name="endash" unicode="&#x2013;" 
d="M0 309v-70h500v70h-500z" />
    <glyph glyph-name="emdash" unicode="&#x2014;" horiz-adv-x="1000" 
d="M0 309v-70h1000v70h-1000z" />
    <glyph glyph-name="quoteleft" unicode="&#x2018;" horiz-adv-x="318" 
d="M188 489v84l40 156h-63l-80 -156v-84h103z" />
    <glyph glyph-name="quoteright" unicode="&#x2019;" horiz-adv-x="318" 
d="M127 729v-74l-40 -156h63l80 156v74h-103z" />
    <glyph glyph-name="quotesinglbase" unicode="&#x201a;" horiz-adv-x="318" 
d="M125 124v-84l-40 -156h63l80 156v84h-103z" />
    <glyph glyph-name="quotedblleft" unicode="&#x201c;" horiz-adv-x="518" 
d="M188 489v84l40 156h-63l-80 -156v-84h103zM388 489v84l40 156h-63l-80 -156v-84h103z" />
    <glyph glyph-name="quotedblright" unicode="&#x201d;" horiz-adv-x="518" 
d="M125 729v-84l-40 -156h63l80 156v84h-103zM325 729v-84l-40 -156h63l80 156v84h-103z" />
    <glyph glyph-name="quotedblbase" unicode="&#x201e;" horiz-adv-x="518" 
d="M325 124v-84l-40 -156h63l80 156v84h-103zM125 124v-84l-40 -156h63l80 156v84h-103z" />
    <glyph glyph-name="dagger" unicode="&#x2020;" 
d="M207 729v-205h-179v-75h179v-545h86v545h179v75h-179v205h-86z" />
    <glyph glyph-name="daggerdbl" unicode="&#x2021;" 
d="M472 109v75h-179v265h179v75h-179v205h-86v-205h-179v-75h179v-265h-179v-75h179v-205h86v205h179z" />
    <glyph glyph-name="bullet" unicode="&#x2022;" horiz-adv-x="590" 
d="M150 372q0 -61 42 -103t103 -42t103 42t42 103q0 62 -42 102q-42 42 -102 42q-62 0 -104 -42q-42 -40 -42 -102z" />
    <glyph glyph-name="ellipsis" unicode="&#x2026;" horiz-adv-x="1000" 
d="M448 124v-124h104v124h-104zM781 124v-124h104v124h-104zM115 124v-124h104v124h-104z" />
    <glyph glyph-name="perthousand" unicode="&#x2030;" horiz-adv-x="1342" 
d="M1119 321q42 0 66 -36.5t24 -100.5q0 -63 -24 -99.5t-66 -36.5t-66.5 36.5t-24.5 99.5q0 65 24.5 101t66.5 36zM1119 383q-78 0 -123.5 -53.5t-45.5 -145.5q0 -91 45.5 -144.5t123.5 -53.5q77 0 122.5 53.5t45.5 144.5t-45.5 145t-122.5 54zM223 742q-77 0 -122.5 -53.5
t-45.5 -144.5q0 -92 45.5 -145.5t122.5 -53.5q78 0 123.5 53.5t45.5 145.5q0 91 -46 144.5t-123 53.5zM664 742l-456 -756h78l456 756h-78zM223 680q42 0 66.5 -36.5t24.5 -99.5q0 -65 -24 -101t-67 -36q-42 0 -66 36t-24 101q0 63 24 99.5t66 36.5zM727 383
q-78 0 -123.5 -53.5t-45.5 -145.5q0 -91 45.5 -144.5t123.5 -53.5q77 0 122.5 53.5t45.5 144.5t-45.5 145t-122.5 54zM727 321q42 0 66 -36.5t24 -100.5q0 -63 -24 -99.5t-66 -36.5t-66.5 36.5t-24.5 99.5q0 65 24.5 101t66.5 36z" />
    <glyph glyph-name="guilsinglleft" unicode="&#x2039;" horiz-adv-x="400" 
d="M306 517l-229 -204v-40l229 -204v93l-147 131l147 131v93z" />
    <glyph glyph-name="guilsinglright" unicode="&#x203a;" horiz-adv-x="400" 
d="M94 517v-93l147 -131l-147 -131v-93l229 204v40z" />
    <glyph glyph-name="Euro" unicode="&#x20ac;" horiz-adv-x="636" 
d="M570 673q-84 69 -181 69q-115 0 -190.5 -70.5t-95.5 -196.5h-76l-27 -60h95q0 -7 -0.5 -23t-0.5 -28q0 -11 0.5 -27t0.5 -23h-68l-27 -60h103q20 -127 95 -197.5t191 -70.5q93 0 181 70v103q-45 -51 -86 -73t-91 -22q-77 0 -126 49.5t-65 140.5h183l27 60h-218
q-1 16 -1 50q0 35 1 51h263l27 60h-282q16 91 65 140t126 49q50 0 91 -22t86 -73v104z" />
    <glyph glyph-name="trademark" unicode="&#x2122;" horiz-adv-x="1000" 
d="M536 729h-84v-282h56v236l99 -148h27l95 148v-236h55v282h-83l-80 -125zM397 729h-253v-46h98v-236h56v236h99v46z" />
    <glyph glyph-name="partialdiff" unicode="&#x2202;" horiz-adv-x="517" 
d="M369 303q-35 92 -131 92q-79 0 -133 -63q-54 -62 -54 -159q0 -81 49 -133t124 -52q104 0 174 108q71 109 71 271q0 130 -52 204q-52 76 -140 76q-49 0 -85 -24q-35 -24 -35 -54q0 -15 12 -26t29 -11q19 0 53 28q35 29 62 29q71 0 71 -127q0 -64 -15 -159zM345 241
q0 -98 -35 -163q-34 -63 -87 -63q-81 0 -81 117q0 102 34 164q34 63 88 63q39 0 60 -30.5t21 -87.5z" />
    <glyph glyph-name="increment" unicode="&#x2206;" horiz-adv-x="669" 
d="M334 616l204 -529h-408zM280 719l-283 -719h675l-283 719h-109z" />
    <glyph glyph-name="product" unicode="&#x220f;" horiz-adv-x="757" 
d="M76 719v-911h117v811h370v-811h117v911h-604z" />
    <glyph glyph-name="summation" unicode="&#x2211;" horiz-adv-x="674" 
d="M27 719v-86l339 -361l-354 -391v-73h642v94h-492l339 373l-328 350h468v94h-614z" />
    <glyph glyph-name="minus" unicode="&#x2212;" horiz-adv-x="838" 
d="M106 355v-83h626v83h-626z" />
    <glyph glyph-name="fraction" unicode="&#x2215;" horiz-adv-x="167" 
d="M272 742l-455 -756h78l455 756h-78z" />
    <glyph glyph-name="periodcentered" unicode="&#x2219;" horiz-adv-x="318" 
d="M107 409v-124h103v124h-103z" />
    <glyph glyph-name="radical" unicode="&#x221a;" horiz-adv-x="637" 
d="M545 811l-252 -681l-125 346l-138 -48l12 -39l61 22l156 -431h32l290 784h56v47h-92z" />
    <glyph glyph-name="infinity" unicode="&#x221e;" horiz-adv-x="833" 
d="M447 273q36 78 68.5 111.5t72.5 33.5q43 0 72 -32.5t29 -82.5q0 -51 -31.5 -84t-80.5 -33q-81 0 -130 87zM387 325q-35 -78 -68 -111.5t-73 -33.5q-43 0 -72 33t-29 82q0 52 31 84t81 32q82 0 130 -86zM422 236q38 -68 74.5 -97t82.5 -29q66 0 106.5 52t40.5 138
q0 81 -46 136t-111 55q-93 0 -158 -131q-68 129 -156 129q-66 0 -106.5 -53t-40.5 -138q0 -80 45 -136q47 -54 112 -54q92 0 157 128z" />
    <glyph glyph-name="integral" unicode="&#x222b;" horiz-adv-x="521" 
d="M152 -128q-9 0 -12 21q-1 19 -7 28q-16 28 -47 28q-30 0 -46.5 -15.5t-16.5 -42.5q0 -32 24.5 -52t63.5 -20q95 0 142 101q46 100 54 335q4 139 4 148q8 302 59 302q8 0 10 -18q1 -15 5 -24q13 -36 54 -36q27 0 42.5 15.5t15.5 41.5q0 32 -24.5 52.5t-63.5 20.5
q-99 0 -145 -109q-46 -107 -52 -359q-1 -11 -1.5 -39t-0.5 -42q-6 -336 -58 -336z" />
    <glyph glyph-name="approxequal" unicode="&#x2248;" horiz-adv-x="838" 
d="M732 304q-95 -78 -175 -78q-46 0 -121 30q-2 1 -6 2.5t-5 1.5q-1 1 -8 3q-72 29 -125 29q-90 0 -186 -72v-87q91 78 175 78q46 0 121 -30q2 -1 6 -2t5 -2q2 -1 8 -3q72 -29 125 -29q90 0 186 72v87zM732 494q-95 -78 -175 -78q-46 0 -121 30q-2 1 -6 2.5t-5 1.5
q-2 1 -8 3q-72 29 -125 29q-90 0 -186 -72v-87q91 78 175 78q46 0 121 -30q2 -1 6 -2t5 -2q2 -1 8 -3q72 -29 125 -29q90 0 186 72v87z" />
    <glyph glyph-name="notequal" unicode="&#x2260;" horiz-adv-x="838" 
d="M106 454v-82h309l-95 -117h-214v-83h146l-85 -103l61 -50l126 153h378v83h-310l95 117h215v82h-148l85 104l-61 50l-125 -154h-377z" />
    <glyph glyph-name="lessequal" unicode="&#x2264;" horiz-adv-x="838" 
d="M732 496v86l-626 -179v-83l626 -180v87l-469 134zM106 83v-83h626v83h-626z" />
    <glyph glyph-name="greaterequal" unicode="&#x2265;" horiz-adv-x="838" 
d="M106 496l469 -135l-469 -134v-87l626 180v83l-626 179v-86zM732 83h-626v-83h626v83z" />
    <glyph glyph-name="lozenge" unicode="&#x25ca;" horiz-adv-x="494" 
d="M247 688l188 -399l-188 -403l-188 403zM247 807l-244 -518l244 -522l244 522z" />
    <glyph glyph-name="fi" unicode="&#xfb01;" horiz-adv-x="630" 
d="M536 547h-337v48q0 51 19 70.5t67 19.5h86v75h-90q-88 0 -130 -43t-42 -132v-38h-86v-70h86v-477h90v477h247v-477h90v547zM446 759v-114h90v114h-90z" />
    <glyph glyph-name="fl" unicode="&#xfb02;" horiz-adv-x="630" 
d="M286 760q-92 0 -134.5 -42t-42.5 -133v-38h-86v-70h86v-477h90v477h148v70h-148v48q0 51 19 70.5t67 19.5h161v-685h90v760h-250z" />
    <glyph glyph-name="NULL" horiz-adv-x="0" 
 />
    <glyph glyph-name="CR" horiz-adv-x="318" 
 />
    <glyph glyph-name="c6459" 
d="M296 731v-99h99v99h-99zM105 731v-99h99v99h-99z" />
    <glyph glyph-name="c6460" 
d="M277 745l-96 -129h75l111 129h-90z" />
    <glyph glyph-name="c6461" 
d="M248 653q41 -21 71 -21q41 0 66 29t26 78h-61v-3q0 -20 -9.5 -32.5t-25.5 -12.5q-13 0 -35 12l-28 15q-38 21 -71 21q-42 0 -67 -29t-25 -78h61v3q0 46 37 46q12 0 33 -12z" />
    <glyph glyph-name="c6462" 
d="M222 745h-91l112 -129h75z" />
    <glyph glyph-name="c6463" 
d="M204 746l-103 -130h68l81 87l81 -87h68l-103 130h-92z" />
    <glyph glyph-name="c6466" 
d="M204 616h92l103 130h-68l-81 -87l-81 87h-68z" />
    <glyph glyph-name="c6467" horiz-adv-x="401" 
d="M233 675v-205h-151zM222 734l-191 -258v-59h202v-91h70v91h66v53h-66v264h-81z" />
    <glyph glyph-name="c6468" 
d="M97 746q10 -118 153 -118q142 0 153 118h-58q-17 -54 -95 -54q-83 0 -95 54h-58z" />
    <glyph glyph-name="c6469" 
d="M200 732v-100h100v100h-100z" />
    </font>
</defs>
</svg>
